<svg width="54" height="54" viewBox="0 0 54 54" fill="none" xmlns="http://www.w3.org/2000/svg">
<g clip-path="url(#clip0_17_13522)">
<path d="M15.8204 30.0902L10.22 18.7945L4.75676 29.816C4.472 30.3855 3.74426 30.0797 3.17473 29.7949C2.6052 29.5102 2.2677 29.6262 2.55247 29.0461L9.1759 15.6727C9.37629 15.2824 9.77707 15.0293 10.22 15.0293C10.663 15.0293 11.0638 15.2824 11.2642 15.6727L17.9087 29.0672C18.1935 29.6367 17.6872 29.468 17.1072 29.7527C16.9384 29.8371 16.0314 30.5016 15.831 30.0902H15.8204Z" fill="#6EDCFB"/>
<path d="M35.9647 29.5311C35.9647 29.3834 36.0175 29.2252 36.0807 29.0881L42.7358 15.6619C42.9362 15.2717 43.337 15.0186 43.78 15.0186C44.2229 15.0186 44.6237 15.2717 44.8241 15.6619L51.4581 29.0354C51.5425 29.2041 51.5741 29.3729 51.5741 29.5522C51.5741 29.9846 49.064 29.4467 49.064 29.4467L43.78 18.7943L38.4327 29.5838C38.4327 29.5838 35.9436 29.9846 35.9647 29.5311Z" fill="#6EDCFB"/>
<path d="M48.2203 9.01758H31.3664C31.9359 8.17383 32.2734 7.16133 32.2734 6.06445C32.2734 3.15352 29.9109 0.791016 27 0.791016C24.0891 0.791016 21.7266 3.15352 21.7266 6.06445C21.7266 8.97539 22.0641 8.17383 22.6336 9.01758H5.77969C2.59453 9.01758 0 11.6121 0 14.7973V15.7465C0 16.3898 0.516797 16.9066 1.16016 16.9066H23.0555V44.2336H13.7637C10.9055 44.2336 8.57461 46.5645 8.57461 49.4227V50.8887H6.91875C6.27539 50.8887 5.75859 51.4055 5.75859 52.0488C5.75859 52.6922 6.27539 53.209 6.91875 53.209H47.0707C47.7141 53.209 48.2309 52.6922 48.2309 52.0488C48.2309 51.4055 47.7141 50.8887 47.0707 50.8887H45.4148V49.4227C45.4148 46.5645 43.084 44.2336 40.2258 44.2336H30.934V16.9066H52.8293C53.4727 16.9066 53.9895 16.3898 53.9895 15.7465V14.7973C53.9895 11.6121 51.3949 9.01758 48.2098 9.01758H48.2203ZM24.0469 6.06445C24.0469 4.44023 25.3652 3.11133 27 3.11133C28.6348 3.11133 29.9531 4.44023 29.9531 6.06445C29.9531 7.68867 28.6348 9.01758 27 9.01758C25.3652 9.01758 24.0469 7.68867 24.0469 6.06445ZM43.1051 49.4227V50.8887H10.8949V49.4227C10.8949 47.8406 12.1816 46.5539 13.7637 46.5539H40.2363C41.8184 46.5539 43.1051 47.8406 43.1051 49.4227ZM28.6242 44.2336H25.3758V16.9066H28.6242V44.2336ZM2.33086 14.5863C2.43633 12.7723 3.94453 11.3379 5.79023 11.3379H48.2203C50.0555 11.3379 51.5637 12.7723 51.6797 14.5863H2.33086Z" fill="#F4F4F4"/>
<path d="M19.7542 30.3223C19.7542 29.6789 19.2375 29.1621 18.5941 29.1621H1.8562C1.21284 29.1621 0.696045 29.6789 0.696045 30.3223C0.696045 35.5746 4.96753 39.8566 10.2304 39.8566C15.4933 39.8566 19.7648 35.5852 19.7648 30.3223H19.7542ZM3.11128 31.4824H17.339C16.78 34.9102 13.8058 37.5363 10.2199 37.5363C6.63394 37.5363 3.65972 34.9102 3.10073 31.4824H3.11128Z" fill="#F4F4F4"/>
<path d="M52.1437 29.1625H35.4058C34.7624 29.1625 34.2456 29.6793 34.2456 30.3226C34.2456 35.575 38.5171 39.857 43.78 39.857C49.0429 39.857 53.3144 35.5855 53.3144 30.3226C53.3144 25.0597 52.7976 29.1625 52.1542 29.1625H52.1437ZM43.78 37.5261C40.2046 37.5261 37.2198 34.9 36.6608 31.4722H50.8886C50.3296 34.9 47.3554 37.5261 43.7694 37.5261H43.78Z" fill="#F4F4F4"/>
</g>
<defs>
<clipPath id="clip0_17_13522">
<rect width="54" height="54" fill="white"/>
</clipPath>
</defs>
</svg>
