<svg width="58" height="58" viewBox="0 0 58 58" fill="none" xmlns="http://www.w3.org/2000/svg">
<g clip-path="url(#clip0_13_12472)">
<path d="M38.8893 54.794C38.5608 54.794 38.2436 54.6694 38.0057 54.4315C37.7678 54.1936 37.5526 53.6046 37.6998 53.1514L42.5823 38.4929C42.7182 38.085 43.058 37.7679 43.4772 37.6772C43.8963 37.5753 44.3381 37.6999 44.644 38.0057L45.7994 39.1612C48.2237 35.0944 49.1299 30.0081 48.2463 25.2729C48.167 24.8425 48.3143 24.3893 48.6541 24.1061C48.9827 23.8116 49.4471 23.721 49.8662 23.8682L57.1049 26.2811C57.592 26.4397 57.9319 26.8815 57.9545 27.4026C58.2944 33.9956 56.3459 40.7018 52.585 45.9581L54.4201 47.7932C54.726 48.0991 54.8506 48.5409 54.7487 48.96C54.6467 49.3792 54.3409 49.719 53.933 49.855L39.2744 54.7374C39.1498 54.7827 39.0139 54.8054 38.878 54.8054L38.8893 54.794ZM44.3155 41.1889L40.8604 51.5655L51.2369 48.1104L50.0702 46.9436C49.6284 46.5018 49.583 45.7882 49.9682 45.3011C53.6272 40.5999 55.6209 34.4714 55.5077 28.3655L50.9877 26.8589C51.1916 29.1018 51.0557 31.4014 50.5912 33.6218C49.9682 36.6011 48.7334 39.4444 47.0229 41.846C46.8077 42.1405 46.4791 42.3331 46.1166 42.3671C45.7541 42.4011 45.3916 42.2651 45.1311 42.0046L44.3155 41.1889Z" fill="#0069FF"/>
<path d="M53.548 20.3565C53.4121 20.3565 53.2875 20.3339 53.1515 20.2886L38.4929 15.4061C38.0851 15.2702 37.7679 14.9304 37.6773 14.5112C37.5754 14.0921 37.7 13.6503 38.0058 13.3444L39.1613 12.189C35.0945 9.76474 30.0082 8.85849 25.273 9.74209C24.8312 9.82138 24.3894 9.66279 24.0949 9.33428C23.8004 8.99443 23.7211 8.52998 23.8683 8.11084L26.3945 0.872166C26.5644 0.396385 27.0062 0.0678692 27.5047 0.0338848C34.1316 -0.305959 40.6453 1.59717 45.9468 5.40342L47.782 3.56826C48.0879 3.2624 48.5297 3.13779 48.9488 3.23974C49.3679 3.3417 49.7078 3.64756 49.8437 4.05537L54.7261 18.714C54.8734 19.1671 54.7601 19.6542 54.4203 19.994C54.1824 20.2319 53.8652 20.3565 53.5367 20.3565H53.548ZM41.189 13.6843L51.5656 17.1394L48.1105 6.76279L46.9437 7.92959C46.5019 8.37138 45.7882 8.4167 45.3011 8.03154C40.532 4.31592 34.5847 2.36748 28.4675 2.49209L26.8929 7.00068C29.1246 6.79678 31.4129 6.93271 33.6218 7.39717C36.6011 8.02021 39.4445 9.25498 41.8461 10.9655C42.1406 11.1808 42.3332 11.5093 42.3672 11.8718C42.4011 12.2343 42.2652 12.5968 42.0047 12.8573L41.189 13.6729V13.6843Z" fill="#0069FF"/>
<path d="M8.51865 34.2108C8.37138 34.2108 8.23545 34.1881 8.08818 34.1315L0.84951 31.492C0.385057 31.3221 0.0565411 30.8803 0.0338848 30.3819C-0.305959 23.8116 1.59717 17.3545 5.40342 12.053L3.56826 10.2178C3.2624 9.91195 3.13779 9.47015 3.23974 9.05101C3.3417 8.63187 3.64756 8.29203 4.05537 8.15609L18.714 3.27367C19.1671 3.1264 19.6542 3.23968 19.994 3.57953C20.3226 3.90804 20.4472 4.40648 20.2999 4.8596L15.4175 19.5182C15.2815 19.926 14.9417 20.2432 14.5226 20.3338C14.1034 20.4358 13.6616 20.3112 13.3558 20.0053L12.2003 18.8498C9.77607 22.9166 8.86982 28.003 9.75342 32.7381C9.83271 33.1799 9.67412 33.633 9.33428 33.9162C9.10771 34.1088 8.82451 34.2108 8.52998 34.2108H8.51865ZM2.50342 29.4303L7.01201 31.0729C6.81943 28.8526 6.95537 26.5756 7.40849 24.3666C8.03154 21.3873 9.26631 18.544 10.9769 16.1424C11.1921 15.8479 11.5206 15.6553 11.8831 15.6213C12.2456 15.5873 12.6081 15.7233 12.8686 15.9838L13.6843 16.7994L17.1394 6.42288L6.76279 9.87796L7.92959 11.0448C8.37138 11.4866 8.4167 12.2002 8.03154 12.6873C4.32724 17.4565 2.36748 23.3698 2.49209 29.419L2.50342 29.4303Z" fill="#0069FF"/>
<path d="M28.9772 57.9999C22.8827 57.9999 16.958 56.1081 12.053 52.5964L10.2178 54.4316C9.91195 54.7374 9.47015 54.862 9.05101 54.7601C8.63187 54.6581 8.29203 54.3523 8.15609 53.9445L3.27367 39.2859C3.1264 38.8327 3.23968 38.3456 3.57953 38.0058C3.90804 37.6773 4.40648 37.5527 4.8596 37.6999L19.5182 42.5823C19.926 42.7183 20.2432 43.0581 20.3338 43.4773C20.4244 43.8964 20.3112 44.3382 20.0053 44.6441L18.8498 45.7995C22.928 48.2464 27.867 49.13 32.6248 48.2464C33.0553 48.1671 33.5084 48.3144 33.7916 48.6542C34.0862 48.9827 34.1768 49.4472 34.0295 49.8663L31.6166 57.105C31.458 57.5921 31.0162 57.932 30.4952 57.9546C29.9854 57.9773 29.4756 57.9886 28.9772 57.9886V57.9999ZM11.9397 49.7077C12.2116 49.7077 12.4834 49.7984 12.71 49.9683C17.4791 53.6726 23.4264 55.6323 29.5323 55.5077L31.0389 50.9878C25.7713 51.4749 20.4471 50.0702 16.1651 47.023C15.8705 46.8077 15.678 46.4792 15.644 46.1167C15.61 45.7542 15.7459 45.3917 16.0065 45.1312L16.8221 44.3155L6.44554 40.8605L9.90062 51.237L11.0674 50.0702C11.3053 49.8323 11.6338 49.7077 11.951 49.7077H11.9397Z" fill="#0069FF"/>
<path d="M37.1562 31.4354C37.1562 25.7033 33.6559 21.4213 29.8836 17.649C29.3965 17.1619 28.6035 17.1619 28.1164 17.649C24.2762 21.4893 20.7305 25.8166 20.7305 31.4467C20.7305 37.0768 21.5801 36.9975 27.7539 40.26V44.6779C27.7539 45.3689 28.309 45.924 29 45.924C29.691 45.924 30.2461 45.3689 30.2461 44.6779V40.26C37.1562 36.5896 37.1562 33.1346 37.1562 31.4467V31.4354ZM30.2461 37.3826V27.1646C30.2461 26.4736 29.691 25.9186 29 25.9186C28.309 25.9186 27.7539 26.4736 27.7539 27.1646V37.3939C23.2227 34.6865 23.2227 32.5342 23.2227 31.4467C23.2227 27.3232 25.4996 23.9588 29 20.3111C33.0102 24.5139 34.6641 27.799 34.6641 31.4467C34.6641 35.0943 34.6641 34.7432 30.2461 37.3939V37.3826Z" fill="#010636"/>
</g>
<defs>
<clipPath id="clip0_13_12472">
<rect width="58" height="58" fill="white"/>
</clipPath>
</defs>
</svg>
