<svg width="93" height="93" viewBox="0 0 93 93" fill="none" xmlns="http://www.w3.org/2000/svg">
<path d="M66.2501 34.6195L58.16 42.5095L60.0701 53.6495C60.2201 54.5495 59.85 55.4595 59.11 55.9995C58.69 56.3095 58.1901 56.4595 57.7001 56.4595C57.3201 56.4595 56.9301 56.3695 56.5801 56.1795L46.5801 50.9195L36.5801 56.1795C35.7701 56.6095 34.79 56.5295 34.05 55.9995C33.31 55.4595 32.9401 54.5495 33.0901 53.6495L35.0001 42.5095L26.91 34.6195C26.26 33.9795 26.02 33.0195 26.3 32.1595C26.58 31.2895 27.3301 30.6495 28.2401 30.5195L39.42 28.8995L44.42 18.7695C44.83 17.9495 45.6601 17.4295 46.5801 17.4295C47.5001 17.4295 48.3301 17.9495 48.7401 18.7695L53.7401 28.8995L64.92 30.5195C65.83 30.6495 66.58 31.2895 66.86 32.1595C67.14 33.0295 66.9101 33.9895 66.2501 34.6195ZM81.1801 39.5895C80.9701 38.9595 80.9701 38.2895 81.1801 37.6495L83.1301 31.6495C84.2001 28.3695 83.0401 24.7995 80.2401 22.7695L75.1401 19.0595C74.6001 18.6695 74.2101 18.1295 74.0001 17.4895L72.05 11.4895C70.98 8.20949 67.9501 5.99949 64.4901 5.99949H58.1801C57.5101 5.99949 56.8801 5.78949 56.3401 5.39949L51.2401 1.68949C48.4501 -0.340508 44.6901 -0.340508 41.9001 1.68949L36.8 5.39949C36.26 5.78949 35.6201 5.99949 34.9601 5.99949H28.6501C25.2001 5.99949 22.1601 8.20949 21.0901 11.4895L19.1401 17.4895C18.9301 18.1195 18.5401 18.6695 18.0001 19.0595L12.9001 22.7695C10.1101 24.7995 8.95007 28.3695 10.0101 31.6495L11.9601 37.6495C12.1701 38.2795 12.1701 38.9495 11.9601 39.5895L10.0101 45.5895C8.94007 48.8695 10.1001 52.4395 12.9001 54.4695L18.0001 58.1795C18.5401 58.5695 18.9301 59.1095 19.1401 59.7495L21.0901 65.7495C22.1601 69.0295 25.1901 71.2395 28.6501 71.2395H34.9601C35.6301 71.2395 36.26 71.4495 36.8 71.8395L41.9001 75.5495C43.3001 76.5595 44.9301 77.0695 46.5701 77.0695C48.2101 77.0695 49.84 76.5595 51.2401 75.5495L56.3401 71.8395C56.8801 71.4495 57.5201 71.2395 58.1801 71.2395H64.4901C67.9401 71.2395 70.98 69.0295 72.05 65.7495L74.0001 59.7495C74.2101 59.1195 74.6001 58.5695 75.1401 58.1795L80.2401 54.4695C83.0301 52.4395 84.1901 48.8695 83.1301 45.5895L81.1801 39.5895Z" fill="#0B429C"/>
<path d="M91.85 71.0094L80.49 59.6494L78 61.4594L76.17 67.0894C74.52 72.1594 69.83 75.5694 64.5 75.5694H58.58L56.25 77.2594L70.93 91.9394C71.39 92.3994 72 92.6494 72.63 92.6494C72.79 92.6494 72.96 92.6294 73.12 92.5994C73.91 92.4294 74.57 91.8794 74.87 91.1194L79.41 79.4994L91.02 74.9594C91.78 74.6594 92.33 74.0094 92.5 73.2094C92.67 72.4194 92.42 71.5894 91.85 71.0194" fill="#010636"/>
<path d="M34.58 75.5694H28.6599C23.3299 75.5694 18.63 72.1594 16.99 67.0894L15.1599 61.4594L12.67 59.6494L1.30997 71.0094C0.729974 71.5794 0.489949 72.4094 0.659949 73.1994C0.829949 73.9994 1.37999 74.6494 2.13999 74.9494L13.75 79.4894L18.3 91.0994C18.59 91.8594 19.25 92.4094 20.04 92.5794C20.2 92.6194 20.37 92.6294 20.53 92.6294C21.16 92.6294 21.78 92.3794 22.23 91.9294L36.91 77.2494L34.58 75.5594V75.5694Z" fill="#010636"/>
<path d="M47.29 70.9098C64.87 70.9098 79.11 56.6598 79.11 39.0798C79.11 21.4998 64.86 7.25977 47.29 7.25977C29.72 7.25977 15.47 21.5098 15.47 39.0798C15.47 56.6498 29.72 70.9098 47.29 70.9098Z" fill="#0B429C"/>
</svg>
