<svg width="93" height="93" viewBox="0 0 93 93" fill="none" xmlns="http://www.w3.org/2000/svg">
<path d="M66.4 34.6195L58.31 42.5095L60.22 53.6495C60.37 54.5495 60 55.4595 59.26 55.9995C58.84 56.3095 58.34 56.4595 57.85 56.4595C57.47 56.4595 57.08 56.3695 56.73 56.1795L46.73 50.9195L36.73 56.1795C35.92 56.6095 34.94 56.5295 34.2 55.9995C33.46 55.4595 33.09 54.5495 33.24 53.6495L35.15 42.5095L27.06 34.6195C26.41 33.9795 26.17 33.0195 26.45 32.1595C26.73 31.2895 27.48 30.6495 28.39 30.5195L39.57 28.8995L44.57 18.7695C44.98 17.9495 45.81 17.4295 46.73 17.4295C47.65 17.4295 48.48 17.9495 48.89 18.7695L53.89 28.8995L65.07 30.5195C65.98 30.6495 66.73 31.2895 67.01 32.1595C67.29 33.0295 67.06 33.9895 66.4 34.6195ZM81.33 39.5895C81.12 38.9595 81.12 38.2895 81.33 37.6495L83.28 31.6495C84.35 28.3695 83.19 24.7995 80.39 22.7695L75.29 19.0595C74.75 18.6695 74.36 18.1295 74.15 17.4895L72.2 11.4895C71.13 8.20949 68.1 5.99949 64.64 5.99949H58.33C57.66 5.99949 57.03 5.78949 56.49 5.39949L51.39 1.68949C48.6 -0.340508 44.84 -0.340508 42.05 1.68949L36.95 5.39949C36.41 5.78949 35.77 5.99949 35.11 5.99949H28.8C25.35 5.99949 22.31 8.20949 21.24 11.4895L19.29 17.4895C19.08 18.1195 18.69 18.6695 18.15 19.0595L13.05 22.7695C10.26 24.7995 9.09997 28.3695 10.16 31.6495L12.11 37.6495C12.32 38.2795 12.32 38.9495 12.11 39.5895L10.16 45.5895C9.08997 48.8695 10.25 52.4395 13.05 54.4695L18.15 58.1795C18.69 58.5695 19.08 59.1095 19.29 59.7495L21.24 65.7495C22.31 69.0295 25.34 71.2395 28.8 71.2395H35.11C35.78 71.2395 36.41 71.4495 36.95 71.8395L42.05 75.5495C43.45 76.5595 45.08 77.0695 46.72 77.0695C48.36 77.0695 49.99 76.5595 51.39 75.5495L56.49 71.8395C57.03 71.4495 57.67 71.2395 58.33 71.2395H64.64C68.09 71.2395 71.13 69.0295 72.2 65.7495L74.15 59.7495C74.36 59.1195 74.75 58.5695 75.29 58.1795L80.39 54.4695C83.18 52.4395 84.34 48.8695 83.28 45.5895L81.33 39.5895Z" fill="#16ADFE"/>
<path d="M91.9901 71.0094L80.6301 59.6494L78.1401 61.4594L76.3101 67.0894C74.6601 72.1594 69.9701 75.5694 64.6401 75.5694H58.7201L56.3901 77.2594L71.0701 91.9394C71.5301 92.3994 72.1401 92.6494 72.7701 92.6494C72.9301 92.6494 73.1001 92.6294 73.2601 92.5994C74.0501 92.4294 74.7101 91.8794 75.0101 91.1194L79.5501 79.4994L91.1601 74.9594C91.9201 74.6594 92.4701 74.0094 92.6401 73.2094C92.8101 72.4194 92.5601 71.5894 91.9901 71.0194" fill="#010636"/>
<path d="M34.72 75.5694H28.8C23.47 75.5694 18.77 72.1594 17.13 67.0894L15.3 61.4594L12.81 59.6494L1.45005 71.0094C0.880048 71.5794 0.630023 72.4094 0.800023 73.1994C0.970023 73.9994 1.52006 74.6494 2.28006 74.9494L13.89 79.4894L18.44 91.0994C18.73 91.8594 19.39 92.4094 20.18 92.5794C20.34 92.6194 20.51 92.6294 20.67 92.6294C21.3 92.6294 21.92 92.3794 22.37 91.9294L37.05 77.2494L34.72 75.5594V75.5694Z" fill="#010636"/>
<path d="M47.4299 70.9098C65.0099 70.9098 79.2499 56.6598 79.2499 39.0798C79.2499 21.4998 64.9999 7.25977 47.4299 7.25977C29.8599 7.25977 15.6099 21.5098 15.6099 39.0798C15.6099 56.6498 29.8599 70.9098 47.4299 70.9098Z" fill="#16ADFE"/>
</svg>