<svg width="123" height="124" viewBox="0 0 123 124" fill="none" xmlns="http://www.w3.org/2000/svg">
<path d="M87.91 46.0098L77.1401 56.5098L79.6801 71.3398C79.8901 72.5398 79.39 73.7498 78.41 74.4698C77.85 74.8798 77.1901 75.0798 76.5301 75.0798C76.0201 75.0798 75.5101 74.9598 75.0401 74.7098L61.7301 67.7098L48.4201 74.7098C47.3401 75.2798 46.0301 75.1798 45.0501 74.4698C44.0701 73.7498 43.5701 72.5398 43.7801 71.3398L46.3201 56.5098L35.5501 46.0098C34.6801 45.1598 34.3601 43.8898 34.7401 42.7298C35.1201 41.5698 36.1201 40.7298 37.3201 40.5498L52.2101 38.3898L58.8701 24.8998C59.4101 23.8098 60.5201 23.1198 61.7401 23.1198C62.9601 23.1198 64.0701 23.8098 64.6101 24.8998L71.2701 38.3898L86.1501 40.5498C87.3601 40.7298 88.36 41.5698 88.73 42.7298C89.11 43.8898 88.7901 45.1598 87.9201 46.0098M107.78 52.6198C107.51 51.7798 107.51 50.8898 107.78 50.0398L110.37 42.0598C111.79 37.6898 110.25 32.9398 106.53 30.2398L99.7401 25.3098C99.0201 24.7898 98.5 24.0698 98.22 23.2198L95.6301 15.2398C94.2101 10.8698 90.1701 7.92981 85.5701 7.92981H77.1801C76.2901 7.92981 75.4501 7.64981 74.7301 7.12981L67.9401 2.1998C64.2201 -0.500195 59.2301 -0.500195 55.5101 2.1998L48.72 7.12981C48 7.64981 47.1501 7.92981 46.2701 7.92981H37.8801C33.2801 7.92981 29.2401 10.8698 27.8201 15.2398L25.2301 23.2198C24.9601 24.0598 24.4301 24.7898 23.7101 25.3098L16.9201 30.2398C13.2001 32.9398 11.6601 37.6898 13.0801 42.0598L15.6701 50.0398C15.9401 50.8798 15.9401 51.7798 15.6701 52.6198L13.0801 60.5998C11.6601 64.9698 13.2001 69.7198 16.9201 72.4198L23.7101 77.3498C24.4301 77.8698 24.9501 78.5898 25.2301 79.4398L27.8201 87.4198C29.2401 91.7898 33.2801 94.7298 37.8801 94.7298H46.2701C47.1601 94.7298 48 95.0098 48.72 95.5298L55.5101 100.46C57.3701 101.81 59.5501 102.49 61.7301 102.49C63.9101 102.49 66.0901 101.81 67.9501 100.47L74.7401 95.5398C75.4601 95.0198 76.3101 94.7398 77.1901 94.7398H85.5801C90.1701 94.7398 94.2201 91.7998 95.6401 87.4298L98.23 79.4498C98.5 78.6098 99.0301 77.8798 99.7501 77.3598L106.54 72.4298C110.26 69.7298 111.8 64.9798 110.38 60.6098L107.79 52.6298L107.78 52.6198Z" fill="#24D2B3"/>
<path d="M121.98 94.4393L106.86 79.3193L103.55 81.7193L101.11 89.2093C98.92 95.9593 92.6701 100.499 85.5701 100.499H77.6901L74.5901 102.749L94.1301 122.279C94.7301 122.879 95.5501 123.219 96.3901 123.219C96.6101 123.219 96.83 123.199 97.05 123.149C98.11 122.929 98.9801 122.189 99.3701 121.189L105.42 105.729L120.88 99.6793C121.89 99.2893 122.63 98.4093 122.85 97.3493C123.07 96.2893 122.74 95.1993 121.98 94.4293" fill="#010636"/>
<path d="M45.75 100.499H37.87C30.77 100.499 24.53 95.9593 22.33 89.2093L19.9 81.7193L16.59 79.3193L1.46998 94.4393C0.699981 95.1993 0.379986 96.2993 0.599986 97.3593C0.819986 98.4193 1.56002 99.2893 2.57002 99.6893L18.03 105.739L24.08 121.199C24.47 122.209 25.35 122.939 26.4 123.169C26.62 123.219 26.84 123.239 27.06 123.239C27.9 123.239 28.72 122.909 29.32 122.299L48.86 102.769L45.76 100.519L45.75 100.499Z" fill="#010636"/>
<path d="M62.67 94.3098C86.06 94.3098 105.03 75.3398 105.03 51.9498C105.03 28.5598 86.07 9.58984 62.67 9.58984C39.27 9.58984 20.3101 28.5598 20.3101 51.9498C20.3101 75.3398 39.27 94.3098 62.67 94.3098Z" fill="#24D2B3"/>
</svg>
