<svg width="78" height="78" viewBox="0 0 78 78" fill="none" xmlns="http://www.w3.org/2000/svg">
<g clip-path="url(#clip0_16_12920)">
<path d="M30.1335 27.0102C29.6308 23.6282 26.5687 21.1602 23.1714 21.3125C26.3097 16.5747 22.7448 10.0239 17.0319 10.0696C11.3038 10.0391 7.76944 16.5442 10.8925 21.3125C7.47998 21.1602 4.41787 23.6434 3.93037 27.0254C3.79326 27.9395 4.43311 28.7926 5.34717 28.9297C6.246 29.0668 7.11436 28.427 7.25147 27.5129C7.47998 25.8981 8.91201 24.6793 10.5573 24.6793H23.5065C25.1519 24.6793 26.5687 25.8981 26.8124 27.5282C27.2237 29.7067 30.362 29.2497 30.1335 27.0254V27.0102ZM17.0319 13.4211C19.2105 13.4211 20.9776 15.1883 20.9776 17.3668C20.7644 22.5922 13.2995 22.5922 13.0862 17.3668C13.0862 15.1883 14.8534 13.4211 17.0319 13.4211Z" fill="#6EDCFB"/>
<path d="M74.0695 27.0102C73.5668 23.6282 70.5047 21.1602 67.1074 21.3125C70.2457 16.5747 66.6809 10.0239 60.968 10.0696C55.2398 10.0391 51.7055 16.5442 54.8285 21.3125C51.416 21.1602 48.3539 23.6434 47.8664 27.0254C47.7293 27.9395 48.3691 28.7926 49.2832 28.9297C50.182 29.0668 51.0504 28.427 51.1875 27.5129C51.416 25.8981 52.848 24.6793 54.4934 24.6793H67.4426C69.0879 24.6793 70.5047 25.8981 70.7484 27.5282C71.1598 29.7067 74.298 29.2497 74.0695 27.0254V27.0102ZM60.968 13.4211C63.1465 13.4211 64.9137 15.1883 64.9137 17.3668C64.7004 22.5922 57.2355 22.5922 57.0223 17.3668C57.0223 15.1883 58.7895 13.4211 60.968 13.4211Z" fill="#6EDCFB"/>
<path d="M74.0695 70.9614C73.5668 67.5793 70.5047 65.1114 67.1074 65.2637C70.2457 60.5258 66.6809 53.975 60.968 54.0207C55.2398 53.9903 51.7055 60.4954 54.8285 65.2637C51.416 65.1114 48.3539 67.5946 47.8664 70.9766C47.7293 71.8907 48.3691 72.7438 49.2832 72.8809C50.182 73.018 51.0504 72.3782 51.1875 71.4641C51.416 69.8493 52.848 68.6305 54.4934 68.6305H67.4426C69.0879 68.6305 70.5047 69.8493 70.7484 71.4793C71.1598 73.6579 74.298 73.2008 74.0695 70.9766V70.9614ZM60.968 57.3723C63.1465 57.3723 64.9137 59.1395 64.9137 61.318C64.7004 66.5434 57.2355 66.5434 57.0223 61.318C57.0223 59.1395 58.7895 57.3723 60.968 57.3723Z" fill="#6EDCFB"/>
<path d="M30.1337 70.9623C29.631 67.5803 26.5689 65.1123 23.1716 65.2647C26.3099 60.5268 22.7451 53.976 17.0322 54.0217C11.3041 53.9913 7.76968 60.4963 10.8927 65.2647C7.48023 65.1123 4.41812 67.5955 3.93062 70.9776C3.79351 71.8916 4.43335 72.7448 5.34741 72.8819C6.24624 73.019 7.1146 72.3791 7.25171 71.4651C7.48023 69.8502 8.91226 68.6315 10.5576 68.6315H23.5068C25.1521 68.6315 26.5689 69.8502 26.8126 71.4803C27.224 73.6588 30.3623 73.2018 30.1337 70.9776V70.9623ZM17.0322 57.3733C19.2107 57.3733 20.9779 59.1405 20.9779 61.319C20.7646 66.5444 13.2998 66.5444 13.0865 61.319C13.0865 59.1405 14.8537 57.3733 17.0322 57.3733Z" fill="#6EDCFB"/>
<path d="M60.9679 43.9513C56.8698 43.9513 53.1222 45.3986 50.1819 47.8209L44.9718 42.6107C46.2972 40.4017 46.2972 37.6138 44.9718 35.4048L50.1819 30.1947C61.0593 39.2744 78.0609 31.3373 77.9999 17.0322C77.9999 7.63259 70.3675 0.000163358 60.9679 0.000163358C46.6628 -0.0607741 38.7257 16.9408 47.8054 27.8181L42.5952 33.0283C40.3862 31.7029 37.5984 31.7029 35.3894 33.0283L30.1792 27.8181C39.2589 16.9408 31.337 -0.0607741 17.0319 0.000163358C7.63234 0.000163358 -8.07829e-05 7.63259 -8.07829e-05 17.0322C-0.0610183 31.3373 16.9405 39.2744 27.8179 30.1947L33.028 35.4048C31.7027 37.6138 31.7027 40.4017 33.028 42.6107L27.8179 47.8209C16.9405 38.7412 -0.0610183 46.6783 -8.07829e-05 60.9681C-8.07829e-05 70.3525 7.63234 78.0002 17.0319 78.0002C31.337 78.0611 39.2741 61.0595 30.1944 50.1822L35.4046 44.972C37.6136 46.3127 40.4015 46.3127 42.6105 44.972L47.8206 50.1822C38.7409 61.0595 46.678 78.0611 60.9831 78.0002C83.5757 77.0709 83.5605 44.8806 60.9831 43.9513H60.9679ZM60.9679 3.35173C68.5089 3.35173 74.6483 9.49118 74.6483 17.0322C73.9019 35.1763 48.0491 35.1763 47.3026 17.0322C47.3026 9.49118 53.4421 3.35173 60.9831 3.35173H60.9679ZM3.35148 17.0322C3.35148 9.49118 9.49094 3.35173 17.0319 3.35173C35.1761 4.09821 35.1761 29.9509 17.0319 30.6974C9.49094 30.6974 3.35148 24.558 3.35148 17.017V17.0322ZM17.0319 74.6486C9.49094 74.6486 3.35148 68.5091 3.35148 60.9681C4.09797 42.824 29.9507 42.824 30.6972 60.9681C30.6972 68.5091 24.5577 74.6486 17.0167 74.6486H17.0319ZM36.4405 41.5595C35.0237 40.1427 35.0237 37.8423 36.4405 36.4256C37.8573 35.0088 40.1577 35.0088 41.5745 36.4256C44.8347 39.9752 39.9901 44.8197 36.4405 41.5595ZM60.9679 74.6486C53.4269 74.6486 47.2874 68.5091 47.2874 60.9681C48.0339 42.824 73.8866 42.824 74.6331 60.9681C74.6331 68.5091 68.4937 74.6486 60.9526 74.6486H60.9679Z" fill="#F4F4F4"/>
</g>
<defs>
<clipPath id="clip0_16_12920">
<rect width="78" height="78" fill="white"/>
</clipPath>
</defs>
</svg>
