<svg width="470" height="130" viewBox="0 0 470 130" fill="none" xmlns="http://www.w3.org/2000/svg">
<g clip-path="url(#clip0_20_13827)">
<path d="M18.7632 69.4326C19.198 69.4326 19.5325 69.5326 19.8335 69.8659C20.1011 70.1326 20.2683 70.4993 20.2683 70.8993C20.2683 71.2993 20.1011 71.6993 19.8335 71.966C19.4991 72.2993 19.198 72.3993 18.7632 72.3993H11.6058V81.5326C11.6058 81.8993 11.4386 82.2993 11.171 82.5659C10.9034 82.8993 10.5355 82.9993 10.1007 82.9993C9.66591 82.9993 9.33145 82.8993 9.03044 82.5659C8.76287 82.2993 8.59564 81.9326 8.59564 81.5326V72.3993H1.33784C0.969936 72.3326 0.635475 72.166 0.367907 71.9326C0.100338 71.666 0 71.3326 0 70.8993C0 70.4659 0.100338 70.1326 0.434799 69.8659C0.702367 69.5326 1.07027 69.4326 1.50507 69.4326H18.7632Z" fill="white"/>
<mask id="mask0_20_13827" style="mask-type:luminance" maskUnits="userSpaceOnUse" x="23" y="69" width="21" height="4">
<path d="M24.9843 69.4326C24.5495 69.4326 24.1816 69.5326 23.914 69.8659C23.613 70.1326 23.4792 70.4993 23.4792 70.8659C23.4792 71.2326 23.5796 71.666 23.914 71.9326C24.1816 72.2326 24.5495 72.3659 24.9843 72.3659H41.5401C41.9749 72.3659 42.2759 72.266 42.6104 71.9326C42.878 71.666 43.0452 71.2993 43.0452 70.8659C43.0452 70.4326 42.878 70.1326 42.6104 69.8659C42.3094 69.5326 41.9749 69.4326 41.5401 69.4326H24.9843Z" fill="white"/>
</mask>
<g mask="url(#mask0_20_13827)">
<path d="M43.0452 69.4326H23.5127V72.3326H43.0452V69.4326Z" fill="url(#paint0_linear_20_13827)"/>
</g>
<path d="M46.6572 76.1993C46.6572 75.3993 46.7576 74.6326 47.0251 73.8326C47.2927 73.0326 47.6606 72.2659 48.1623 71.6326C48.6974 70.9993 49.2995 70.4326 50.0018 70.0326C50.7042 69.5993 51.5069 69.4326 52.4434 69.4326H65.2198C65.6546 69.4326 65.9891 69.5326 66.2901 69.8659C66.5911 70.1993 66.7249 70.4993 66.7249 70.8993C66.7249 71.2993 66.5576 71.6993 66.2901 71.9659C65.9556 72.2993 65.6546 72.3993 65.2198 72.3993H53.0789C52.3096 72.3993 51.741 72.566 51.3062 72.766C50.8714 73.0326 50.5035 73.3659 50.236 73.7326C49.9684 74.0993 49.8012 74.5326 49.7008 74.9659C49.6339 75.3993 49.6005 75.8326 49.6005 76.1993C49.6005 76.5659 49.6674 76.9993 49.7008 77.4326C49.8012 77.8659 49.9684 78.2993 50.236 78.6659C50.5035 79.0326 50.8714 79.3659 51.3062 79.6326C51.741 79.8659 52.3431 79.9993 53.0789 79.9993H65.2198C65.6546 79.9993 65.9891 80.1659 66.2901 80.4326C66.5576 80.6993 66.7249 81.0659 66.7249 81.4993C66.7249 81.9326 66.5576 82.2659 66.2901 82.5326C65.9556 82.8659 65.6546 82.9659 65.2198 82.9659H52.1089C51.2393 82.9659 50.5035 82.7993 49.8012 82.3659C49.1657 81.9326 48.5637 81.3993 48.1289 80.766C47.6606 80.1326 47.2593 79.3659 47.0586 78.5659C46.791 77.7659 46.6907 76.9659 46.6907 76.1993" fill="white"/>
<path d="M89.0001 81.5327C89.0001 81.8994 88.8328 82.2994 88.5653 82.5661C88.2977 82.8994 87.9298 82.9994 87.495 82.9994C87.0602 82.9994 86.7257 82.8994 86.4247 82.5661C86.1571 82.2994 85.9899 81.9327 85.9899 81.5327V77.6994H73.1466V81.5327C73.1466 81.8994 73.0463 82.2994 72.7118 82.5661C72.4443 82.8994 72.0763 82.9994 71.675 82.9994C71.2736 82.9994 70.8723 82.8994 70.6047 82.5661C70.2703 82.2994 70.1699 81.9327 70.1699 81.5327V70.8661C70.1699 70.4994 70.2703 70.0994 70.6047 69.8327C70.8723 69.4994 71.2402 69.3994 71.675 69.3994C72.1098 69.3994 72.4443 69.4994 72.7118 69.8327C73.0463 70.0994 73.1466 70.4661 73.1466 70.8661V74.6994H85.9899V70.8661C85.9899 70.4994 86.1571 70.0994 86.4247 69.8327C86.7592 69.4994 87.0602 69.3994 87.495 69.3994C87.9298 69.3994 88.2977 69.4994 88.5653 69.8327C88.8328 70.0994 89.0001 70.4661 89.0001 70.8661V81.5327Z" fill="white"/>
<path d="M41.8411 80.0327H27.4259C27.359 80.0327 27.2921 80.0327 27.2252 80.0327C26.9242 80.0327 26.6901 79.9327 26.4894 79.7327C26.2553 79.5327 26.1549 79.2661 26.1549 78.9327C26.1549 78.5994 26.2218 78.3661 26.4894 78.1661C26.6901 77.9327 26.9242 77.8661 27.2252 77.8661C27.2921 77.8661 27.359 77.8661 27.4259 77.8661H41.8411C42.2759 77.8661 42.6104 77.6994 42.9114 77.4327C43.179 77.1661 43.3462 76.7994 43.3462 76.3661C43.3462 75.9327 43.179 75.5994 42.9114 75.3327C42.577 74.9994 42.2759 74.8994 41.8411 74.8994H27.2587C26.8239 74.8994 26.3556 74.9661 25.9208 75.1661C25.4191 75.3994 25.0512 75.6327 24.6833 75.9661C24.3488 76.3327 24.0478 76.7661 23.8137 77.2661C23.7468 77.4327 23.6799 77.6327 23.6465 77.7994C23.5461 78.1661 23.5127 78.5661 23.5127 78.9661C23.5127 79.3661 23.5796 79.7994 23.6465 80.1327C23.7134 80.3327 23.7468 80.4994 23.8137 80.6661C24.0478 81.1327 24.3488 81.5661 24.6833 81.9661C25.0512 82.2994 25.4526 82.5661 25.9208 82.7661C26.3556 82.9994 26.8239 83.0327 27.2587 83.0327H41.8411C42.2759 83.0327 42.6104 82.9327 42.9114 82.5994C43.179 82.3327 43.3462 81.9661 43.3462 81.5661C43.3462 81.1661 43.179 80.7661 42.9114 80.4994C42.577 80.2327 42.2759 80.0661 41.8411 80.0661" fill="white"/>
<path d="M81.9093 52.7996C81.9093 51.8996 81.0732 51.1996 80.0363 51.1996C78.9995 51.1996 78.1968 51.9329 78.1968 52.7996C78.1968 54.3996 79.7688 54.3996 79.7688 55.5663V57.3329C79.7688 58.5329 78.1634 58.5663 78.1634 60.0996C78.1634 61.6329 78.9995 61.6996 80.0363 61.6996C81.0732 61.6996 81.8759 60.9663 81.8759 60.0996C81.8759 58.4996 80.2705 58.5329 80.2705 57.3329V55.5663C80.2705 54.3663 81.9093 54.2996 81.9093 52.7996ZM88.9664 61.7663C88.1637 65.7663 79.635 68.3663 73.3806 64.7996C72.7451 64.3996 72.1431 63.9663 72.1431 63.0663C72.1431 61.5663 73.414 60.3329 73.414 56.9329C73.414 53.5329 72.0427 53.3329 72.0427 51.5329C72.0427 47.6996 86.0566 43.9996 87.6286 50.6663C88.0634 52.5329 87.2941 54.1329 85.3543 56.2996C87.8962 57.7996 89.3678 59.6996 88.9664 61.7663Z" fill="white"/>
<path d="M1.80609 53.6993H0V51.9326H4.08042V57.9326H1.80609V53.6993Z" fill="white"/>
<path d="M7.69259 56.1993C7.75948 55.6993 7.89326 55.266 8.09394 54.8327C8.29462 54.3993 8.52874 54.066 8.79631 53.8327C8.82975 53.7993 8.89665 53.766 8.96354 53.6993C8.72942 53.6993 8.4284 53.766 8.06049 53.866C7.69259 53.966 7.39157 54.066 7.09056 54.166L6.58887 52.4993C7.29123 52.2327 8.09394 52.0327 8.99698 51.8993C9.90003 51.766 10.7362 51.666 11.5054 51.666C13.044 51.666 14.2146 52.066 15.0173 52.866C15.82 53.666 16.2213 54.8327 16.2213 56.3993V62.5993H11.6727V60.8327H13.947V56.1327C13.947 55.2993 13.7798 54.666 13.4119 54.2327C13.044 53.7993 12.5423 53.566 11.9068 53.566C11.2713 53.566 10.9369 53.766 10.6024 54.1993C10.2679 54.6327 10.0673 55.1993 9.96692 55.966L9.26455 62.5993H6.99022L7.72603 56.2327L7.69259 56.1993Z" fill="white"/>
<path d="M19.3652 53.6993H18.2949V51.9326H21.6395V62.5993H19.3652V53.6993Z" fill="white"/>
<path d="M31.2385 57.9994L34.4828 62.5661H31.9409L27.5929 56.4327C27.3922 56.5994 27.225 56.8327 27.1247 57.0661C27.0243 57.2994 26.9909 57.5994 26.9909 57.9661V62.5661H24.7834V58.8994C24.7834 57.9327 24.9507 57.1661 25.2517 56.5661C25.5527 55.9661 26.0544 55.5327 26.7233 55.1994L24.3821 51.8994H26.924L29.8338 56.0327L32.0078 51.8994H34.5831L31.272 57.9994H31.2385Z" fill="white"/>
<path d="M44.4499 53.3665L40.7374 62.5998H38.2958L41.9749 53.6998H35.988V48.7998H38.2624V51.9331H44.4499V53.3665Z" fill="white"/>
<path d="M46.5903 62.6994C46.2893 62.6661 45.9883 62.5994 45.6204 62.5327V60.7994C46.0552 60.8661 46.49 60.8994 46.9582 60.8994C47.4264 60.8994 47.7609 60.7661 47.9616 60.5327C48.1957 60.2661 48.296 59.8994 48.296 59.3661V53.6994H46.3227V51.8994H50.5704V59.5327C50.5704 60.5661 50.3028 61.3661 49.7677 61.8994C49.2325 62.4661 48.4633 62.7327 47.4933 62.7327C46.5234 62.7327 46.8579 62.7327 46.5569 62.6661" fill="white"/>
<path d="M54.4167 53.6993H52.6106V51.9326H56.691V57.9326H54.4167V53.6993Z" fill="white"/>
<path d="M67.6279 60.8661V62.5661H58.6309V60.7661H64.116V55.7661C64.116 55.0661 63.9488 54.5327 63.5809 54.1994C63.2464 53.8661 62.7113 53.6994 61.942 53.6994H59.1994V51.8994H62.0758C63.4471 51.8994 64.5174 52.2327 65.2532 52.8994C65.989 53.5661 66.3569 54.5661 66.3569 55.8327V60.6661L67.6279 60.8327V60.8661Z" fill="white"/>
</g>
<mask id="mask1_20_13827" style="mask-type:luminance" maskUnits="userSpaceOnUse" x="288" y="59" width="69" height="27">
<path d="M356.284 59H288.716V85.1261H356.284V59Z" fill="white"/>
</mask>
<g mask="url(#mask1_20_13827)">
<path d="M352.846 73.0078C354.004 72.9225 354.903 73.4054 355.478 74.0454C355.892 74.505 356.278 75.2729 356.284 76.1398C356.29 77.1618 355.862 77.9007 355.344 78.4185C354.783 78.9809 354.054 79.3648 353.097 79.3726C351.407 79.3881 349.997 78.0965 349.892 76.3744C349.824 75.2691 350.253 74.5515 350.713 74.0454C350.956 73.7797 351.242 73.5547 351.601 73.3588C351.953 73.1669 352.322 73.0447 352.844 73.0078" fill="white"/>
<path d="M345.258 69.2668C345.083 69.102 344.89 68.9449 344.688 68.7936C344.669 68.7781 344.65 68.7626 344.63 68.749C344.582 68.7141 344.535 68.6792 344.485 68.6443C344.473 68.6365 344.461 68.6268 344.448 68.6191C343.634 68.0625 342.634 67.6145 341.505 67.3159L341.472 67.3081C341.332 67.2732 341.194 67.2402 341.056 67.2053C340.685 67.1142 340.318 67.0269 339.961 66.9455C339.893 66.9299 339.823 66.9144 339.755 66.8989C339.747 66.8989 339.74 66.895 339.732 66.8931C337.749 66.4451 336.183 66.0902 336.183 65.1594C336.183 64.4011 336.999 63.7902 338.166 63.6739C339.44 63.5498 340.639 63.9376 341.837 64.8646C342.012 65.0256 342.433 65.4212 342.604 65.6074C342.604 65.6074 342.606 65.6074 342.606 65.6093C342.622 65.6248 342.643 65.6364 342.667 65.6364C342.682 65.6364 342.696 65.6306 342.707 65.6248H342.711L345.46 63.4664L345.895 63.1251L346.141 62.9331C346.141 62.9331 346.141 62.9331 346.141 62.9311C346.163 62.9176 346.18 62.8923 346.18 62.8633C346.18 62.8439 346.172 62.8284 346.163 62.8148C346.163 62.8148 346.163 62.8141 346.163 62.8128C346.163 62.8128 346.163 62.8109 346.161 62.809C346.159 62.807 346.157 62.8051 346.155 62.8031C345.918 62.5084 345.625 62.202 345.39 61.9595C345.302 61.8684 345.223 61.787 345.162 61.721C344.506 60.9938 343.673 60.3945 342.725 59.9446C342.441 59.8108 342.148 59.6867 341.843 59.58C340.818 59.2213 339.697 59.0273 338.549 59.0273C338.506 59.0273 338.463 59.0273 338.421 59.0312C338.39 59.0312 338.357 59.0332 338.326 59.0332C338.192 59.0332 338.061 59.039 337.931 59.0448H337.902C337.768 59.0526 337.634 59.0642 337.5 59.0758C335.08 59.359 333.029 60.5361 331.901 62.169C331.541 62.6887 331.273 63.255 331.118 63.8542C331.071 64.0676 331.032 64.2867 331.005 64.5097C331.003 64.5252 331.001 64.5427 330.997 64.5601C330.997 64.5757 330.993 64.5892 330.992 64.6047C330.962 64.7987 330.945 64.9945 330.945 65.1923C330.945 65.6791 331.032 66.1523 331.197 66.6061C331.431 67.2499 331.821 67.855 332.339 68.3999C333.179 69.2842 334.352 70.0154 335.746 70.5099L336.377 70.7077C336.712 70.8105 337.964 71.0723 338.493 71.2022C339.235 71.3845 339.928 71.5959 340.491 71.8228C341.297 72.1505 341.835 72.5539 341.835 73.1803C341.835 73.318 341.806 73.4518 341.756 73.5778C341.725 73.6515 341.697 73.7194 341.649 73.7873C341.624 73.828 341.594 73.8687 341.563 73.9095C341.445 74.0995 341.235 74.2643 340.975 74.3885L341.01 74.3729C340.213 74.7744 339.025 74.947 337.731 74.7841C337.032 74.6968 336.385 74.5203 335.832 74.2837C335.119 74.0045 334.35 73.4983 333.652 72.8021C333.592 72.742 333.532 72.6799 333.476 72.6179L330.743 74.7627L330.119 75.2534L330.092 75.2747V75.2786C330.092 75.2786 330.09 75.2786 330.088 75.2786C330.065 75.2941 330.048 75.3193 330.048 75.3484C330.048 75.3678 330.055 75.3853 330.067 75.4008C330.067 75.4008 330.067 75.4046 330.069 75.4046C330.172 75.5346 330.279 75.6606 330.388 75.7847C331.287 76.8203 332.369 77.6581 333.567 78.269C334.93 78.9632 336.444 79.3627 338.013 79.4054C338.087 79.4073 338.16 79.4093 338.234 79.4093C338.277 79.4093 338.32 79.4093 338.362 79.4112C341.73 79.4015 344.65 78.0324 346.106 76.0272C346.74 75.1603 347.097 74.1732 347.097 73.1279C347.097 71.6754 346.409 70.3392 345.256 69.2746" fill="white"/>
<path d="M326.546 62.4073C325.357 61.0052 323.801 59.9949 322.071 59.4557C321.548 59.2928 321.01 59.1707 320.461 59.095C320.016 59.0349 319.565 59 319.111 59C313.606 59 309.125 63.5127 309.125 69.061C309.125 70.5252 309.448 71.9292 310.021 73.2053C310.337 73.9112 310.73 74.5764 311.19 75.1931C312.231 76.6223 313.641 77.7684 315.277 78.4976C315.312 78.5131 315.345 78.5287 315.38 78.5422C315.434 78.5674 315.49 78.5888 315.545 78.612C316.72 79.1027 317.996 79.3761 319.32 79.3761C319.338 79.3761 319.353 79.3742 319.371 79.3742C319.388 79.3742 319.406 79.3761 319.423 79.3761C321.533 79.3761 323.494 78.7362 325.118 77.6405C325.998 77.047 326.777 76.3179 327.431 75.4878L323.984 72.8136C323.968 72.798 323.947 72.7864 323.922 72.7864C323.898 72.7864 323.877 72.798 323.862 72.8136C323.574 73.0637 322.251 74.1362 320.404 74.365C320.183 74.3863 319.95 74.4018 319.703 74.4077C318.909 74.4077 318.229 74.2894 317.65 74.0954C316.673 73.7347 315.729 73.0792 315.09 72.1891C314.752 71.7004 314.57 71.2583 314.49 71.0236C314.471 70.9635 314.451 70.9053 314.434 70.8452H328.558C328.595 70.8452 328.628 70.818 328.636 70.7793C329.166 67.593 328.426 64.6181 326.552 62.4073M314.729 66.5787C315.619 64.9614 317.285 63.8967 319.109 63.8967C320.933 63.8967 322.601 64.9614 323.491 66.5787H314.729Z" fill="white"/>
<path d="M299.853 70.8067C299.478 71.6464 299.068 72.4395 298.633 73.1629L298.482 73.417L298.324 73.1668C297.662 72.106 297.058 70.956 296.524 69.7498C296.099 68.7821 295.714 67.7697 295.386 66.74C294.657 64.4652 294.174 62.0585 293.949 59.5859H288.813C288.864 60.224 288.93 60.8678 289.013 61.5039C289.709 66.9164 291.503 72.0013 294.199 76.2076C294.428 76.5644 294.869 77.2141 294.891 77.2451L294.986 77.3867L294.852 77.4914C293.321 78.6724 291.62 79.485 289.79 79.9L289.742 79.9116C289.408 79.9873 289.064 80.0474 288.716 80.0959V85.1244C291.649 84.9363 294.434 83.9803 296.776 82.359C296.977 82.231 297.149 82.1147 297.309 82.0022C297.588 81.8044 297.876 81.5891 298.185 81.3409C299.535 80.2588 300.78 78.9245 301.885 77.377C304.903 73.1474 307.012 67.1627 308.154 59.5859H302.92C302.162 64.2111 301.16 67.8822 299.853 70.8067Z" fill="white"/>
</g>
<mask id="mask2_20_13827" style="mask-type:luminance" maskUnits="userSpaceOnUse" x="115" y="52" width="144" height="32">
<path d="M258.89 52.2275H115V83.1503H258.89V52.2275Z" fill="white"/>
</mask>
<g mask="url(#mask2_20_13827)">
<path d="M134.487 66.1602V69.2928H137.778C137.396 70.9484 136.017 71.9426 134.258 71.9426C132.115 71.9426 130.457 70.2356 130.457 67.7645C130.457 65.2934 132.115 63.5618 134.258 63.5618C135.661 63.5618 136.606 64.1206 137.344 65.014L140.151 62.5429C138.799 60.8626 136.503 59.8438 134.18 59.8438C129.594 59.8438 126.179 63.2215 126.169 67.7455C125.423 66.1355 123.738 65.1167 120.816 65.1167C120.433 65.1167 120.051 65.1433 119.668 65.168L119.796 63.7918H125.663V60.0985H116.07L115.457 68.5306L115.533 68.5819C116.809 68.3519 117.983 68.1979 119.08 68.1979C121.275 68.1979 122.499 68.7073 122.499 70.0836C122.499 71.3571 121.299 71.9692 119.641 71.9692C118.238 71.9692 117.218 71.6898 116.274 71.205L114.998 74.7463C116.197 75.3584 117.728 75.6891 120.1 75.6891C124.083 75.6891 126.426 73.6324 126.619 70.5055C127.69 73.6001 130.573 75.6891 134.178 75.6891C139.025 75.6891 142.547 71.8684 141.731 66.1602H134.485H134.487Z" fill="white"/>
</g>
<path d="M150.029 60.0967H147.071V79.6373H150.029V60.0967Z" fill="white"/>
<path d="M156.97 60.0967H154.01V75.3813H156.97V60.0967Z" fill="white"/>
<mask id="mask3_20_13827" style="mask-type:luminance" maskUnits="userSpaceOnUse" x="115" y="52" width="144" height="32">
<path d="M258.89 52.2275H115V83.1503H258.89V52.2275Z" fill="white"/>
</mask>
<g mask="url(#mask3_20_13827)">
<path d="M166.742 59.8173C162.889 59.8173 159.904 61.6269 159.904 65.1663C159.904 68.1468 162.558 70.2624 166.512 69.9564L166.588 67.6887C164.344 67.8408 162.864 66.8485 162.864 65.1663C162.864 63.484 164.395 62.2884 166.742 62.2884C169.779 62.2884 171.616 64.4801 171.616 67.6127C171.616 70.9752 169.6 73.1897 166.232 73.1897C164.523 73.1897 162.916 72.935 161.36 72.3248L160.62 74.6172C162.43 75.408 164.344 75.6608 166.284 75.6608C171.641 75.6608 174.574 72.4522 174.574 67.6108C174.574 62.7693 171.742 59.8154 166.742 59.8154" fill="white"/>
<path d="M191.773 60.0967H188.813C188.94 64.9115 188.072 67.1792 186.286 68.2494L179.882 60.0967H176.617V60.224L180.571 65.2669C177.866 66.6945 176.514 69.3937 176.642 75.3813H179.602C179.475 70.5912 180.318 68.3235 182.104 67.2286L188.508 75.3813H191.8V75.2539L187.819 70.2091C190.524 68.7816 191.901 66.109 191.775 60.0967" fill="white"/>
</g>
<path d="M197.258 57.5498H194.299V62.6193H203.483L198.56 75.2542V75.3834H201.697L207.412 60.3782V60.0969H197.258V57.5498Z" fill="white"/>
<mask id="mask4_20_13827" style="mask-type:luminance" maskUnits="userSpaceOnUse" x="115" y="52" width="144" height="32">
<path d="M258.89 52.2275H115V83.1503H258.89V52.2275Z" fill="white"/>
</mask>
<g mask="url(#mask4_20_13827)">
<path d="M215.602 59.8173C211.749 59.8173 208.764 61.6269 208.764 65.1663C208.764 68.1468 211.418 70.2624 215.372 69.9564L215.448 67.6887C213.203 67.8408 211.724 66.8485 211.724 65.1663C211.724 63.484 213.255 62.2884 215.602 62.2884C218.639 62.2884 220.476 64.4801 220.476 67.6127C220.476 70.9752 218.46 73.1897 215.092 73.1897C213.382 73.1897 211.776 72.935 210.22 72.3248L209.48 74.6172C211.29 75.408 213.203 75.6608 215.143 75.6608C220.501 75.6608 223.434 72.4522 223.434 67.6108C223.434 62.7693 220.601 59.8154 215.602 59.8154" fill="white"/>
<path d="M247.852 65.0527C247.545 65.1648 247.205 65.2447 246.862 65.3188C246.517 65.3967 246.175 65.4347 245.832 65.5089C245.299 65.5868 244.842 65.699 244.69 65.775C244.69 65.775 244.537 65.8529 244.482 66.4783C244.423 67.1056 244.271 68.2841 244.157 68.7973L244.044 69.3486L244.008 69.5405C244.008 69.5405 244.008 69.5786 243.949 69.8257C243.892 70.0728 243.776 70.529 243.625 70.9072C242.748 73.5722 239.968 74.0664 238.9 71.1372C237.948 68.4381 237.111 62.0475 238.558 59.0422C239.355 57.4075 240.159 57.2554 241.299 57.2554C243.09 57.2554 244.956 57.7877 246.71 58.816C247.778 59.4224 249.108 60.5268 249.641 61.6692C250.251 62.9618 249.944 64.2543 247.852 65.0527ZM241.756 79.3907C239.698 79.8108 238.175 78.9383 239.087 76.5033C239.965 74.2964 241.489 74.0303 243.089 75.743C244.88 77.6058 243.812 79.0143 241.754 79.3907M252.621 58.472C242.915 48.6314 232.903 50.23 229.568 64.6326C229.151 66.5334 228.887 68.2993 228.789 69.8694C228.692 71.3958 228.74 72.8822 228.986 74.2964C230.518 83.0593 238.356 84.4013 246.885 82.2533C262.273 78.2369 261.353 67.4572 252.621 58.4739" fill="white"/>
<path d="M245.794 60.8689C244.692 59.9166 243.662 60.1846 243.473 61.7053C243.433 61.8954 243.433 62.0836 243.433 62.2756C243.433 62.4276 243.433 62.5816 243.473 62.7318C243.738 63.6061 244.538 63.6822 245.413 63.378C246.974 62.8477 246.784 61.7053 245.794 60.8689Z" fill="white"/>
</g>
<path d="M452.455 72.8014C452.455 74.8872 450.399 76.5557 448.164 76.5557C445.929 76.5557 443.844 74.8574 443.844 72.8014C443.844 69.2557 447.568 69.1365 447.568 66.3655V62.2238C447.538 59.4825 443.903 59.5421 443.903 55.7878C443.903 52.0335 445.959 52.0335 448.194 52.0335C450.429 52.0335 452.514 53.7319 452.514 55.7878C452.514 59.3336 448.73 59.4825 448.73 62.2536V66.3655C448.76 69.1067 452.455 69.0471 452.455 72.8014ZM460.44 63.952C464.969 58.8866 466.787 55.1919 465.744 50.8118C462.109 35.2582 429.482 43.8991 429.482 52.8678C429.482 61.8364 432.7 59.7507 432.7 65.4716C432.7 71.1924 429.72 76.2876 429.72 79.7737C429.72 83.2599 431.091 82.8725 432.581 83.826C447.151 92.1689 467.055 86.0607 468.902 76.7047C469.826 71.8777 466.34 67.4977 460.44 63.952Z" fill="white"/>
<path d="M389.376 74.6186L393.697 62.2829H383V59.0352H397.809V62.2233L393.429 74.6483H389.376V74.6186ZM383.119 79.8329V66.5736H386.993V79.8329H383.119Z" fill="white"/>
<path d="M403.291 74.619C402.844 73.2782 402.516 72.2353 402.308 71.5798C402.099 70.9243 401.861 70.0602 401.652 68.9876C401.444 67.9149 401.295 67.021 401.295 66.2463C401.295 64.5777 401.742 63.2667 402.576 62.3132H399.686V59.0654H408.833V62.3132H406.896C406.122 62.3132 405.556 62.5218 405.138 62.9985C404.751 63.4753 404.543 64.101 404.543 64.8459C404.543 66.0973 405.407 69.0173 407.194 73.606C407.343 74.0529 407.492 74.3807 407.552 74.619H403.232H403.291Z" fill="white"/>
<path d="M410.71 74.6186V71.3708H418.636V65.0242C418.636 63.2066 417.802 62.2829 416.163 62.2829H410.859V59.0352H417.087C419.5 59.0352 421.139 59.9588 421.944 61.8062C422.301 62.6107 422.48 63.7132 422.48 65.1136V71.341H425.013V74.5888H410.71V74.6186Z" fill="white"/>
<defs>
<linearGradient id="paint0_linear_20_13827" x1="12.4956" y1="67.7926" x2="32.0281" y2="67.7926" gradientUnits="userSpaceOnUse">
<stop stop-color="#00EF6A"/>
<stop offset="0.2" stop-color="#00E382"/>
<stop offset="0.5" stop-color="#00C9B8"/>
<stop offset="0.8" stop-color="#0084E2"/>
<stop offset="1" stop-color="#0058FF"/>
</linearGradient>
<clipPath id="clip0_20_13827">
<rect width="89" height="36" fill="white" transform="translate(0 47)"/>
</clipPath>
</defs>
</svg>
