<svg width="233" height="206" viewBox="0 0 233 206" fill="none" xmlns="http://www.w3.org/2000/svg">
<path d="M114.88 0L89.8701 50.01H108.62L114.88 75.02L139.88 25.01H121.13L114.88 0Z" fill="#D3F5FE"/>
<mask id="mask0_13_12598" style="mask-type:luminance" maskUnits="userSpaceOnUse" x="0" y="0" width="233" height="206">
<path d="M232.55 0H0V205.91H232.55V0Z" fill="white"/>
</mask>
<g mask="url(#mask0_13_12598)">
<path d="M164.89 143.79C157.99 143.79 152.39 138.19 152.39 131.29C152.39 124.39 157.99 118.79 164.89 118.79C171.79 118.79 177.39 124.39 177.39 131.29C177.39 138.19 171.79 143.79 164.89 143.79ZM64.8601 143.79C57.9601 143.79 52.3601 138.19 52.3601 131.29C52.3601 124.39 57.9601 118.79 64.8601 118.79C71.7601 118.79 77.3601 124.39 77.3601 131.29C77.3601 138.2 71.7601 143.79 64.8601 143.79ZM199.82 89.6L185.79 42.83C182.59 32.16 172.96 25 161.83 25H152.38V50.01H161.83L173.08 87.52H56.6501L67.9001 50.01H77.3501V25H67.9001C56.7701 25 47.1401 32.16 43.9401 42.83L29.9101 89.6C21.0501 93.45 14.8301 102.27 14.8301 112.53V162.54C14.8301 169.44 20.4301 175.04 27.3301 175.04V187.54C27.3301 194.44 32.9301 200.04 39.8301 200.04H52.3301C59.2401 200.04 64.8301 194.44 64.8301 187.54V175.04H164.86V187.54C164.86 194.45 170.46 200.04 177.36 200.04H189.86C196.77 200.04 202.36 194.44 202.36 187.54V175.04C209.26 175.04 214.86 169.44 214.86 162.54V112.53C214.86 102.27 208.64 93.45 199.78 89.6H199.82Z" fill="#D3F5FE"/>
</g>
<mask id="mask1_13_12598" style="mask-type:luminance" maskUnits="userSpaceOnUse" x="14" y="80" width="201" height="121">
<path d="M214.91 80.02H14.8501V200.05H214.91V80.02Z" fill="white"/>
</mask>
<g mask="url(#mask1_13_12598)">
<path d="M164.89 143.79C157.99 143.79 152.39 138.19 152.39 131.29C152.39 124.39 157.99 118.79 164.89 118.79C171.79 118.79 177.39 124.39 177.39 131.29C177.39 138.19 171.79 143.79 164.89 143.79ZM64.8601 143.79C57.9601 143.79 52.3601 138.19 52.3601 131.29C52.3601 124.39 57.9601 118.79 64.8601 118.79C71.7601 118.79 77.3601 124.39 77.3601 131.29C77.3601 138.2 71.7601 143.79 64.8601 143.79ZM199.82 89.6L185.79 42.83C182.59 32.16 172.96 25 161.83 25H152.38V50.01H161.83L173.08 87.52H56.6501L67.9001 50.01H77.3501V25H67.9001C56.7701 25 47.1401 32.16 43.9401 42.83L29.9101 89.6C21.0501 93.45 14.8301 102.27 14.8301 112.53V162.54C14.8301 169.44 20.4301 175.04 27.3301 175.04V187.54C27.3301 194.44 32.9301 200.04 39.8301 200.04H52.3301C59.2401 200.04 64.8301 194.44 64.8301 187.54V175.04H164.86V187.54C164.86 194.45 170.46 200.04 177.36 200.04H189.86C196.77 200.04 202.36 194.44 202.36 187.54V175.04C209.26 175.04 214.86 169.44 214.86 162.54V112.53C214.86 102.27 208.64 93.45 199.78 89.6H199.82Z" fill="#0069FF"/>
</g>
<path d="M97.6 141.82C92.8 141.82 89.56 138.78 89.56 134.22C89.56 131.62 90.6 129.06 93.04 125.34C93.8 124.18 96.44 120.26 97.88 118.14H103.32C101.2 121.18 99.04 124.3 97.04 127.34C97.56 127.18 98.12 127.1 98.88 127.1C103.16 127.1 106 129.78 106 133.98C106 138.58 102.56 141.82 97.6 141.82ZM97.76 137.94C99.96 137.94 101.4 136.5 101.4 134.3C101.4 132.14 100 130.74 97.88 130.74C95.72 130.74 94.24 132.18 94.24 134.42C94.24 136.58 95.64 137.94 97.76 137.94ZM113.642 141.82C111.842 141.82 110.242 141.5 108.922 140.82L109.202 136.58C110.402 137.26 112.082 137.7 113.722 137.7C116.962 137.7 119.042 136.02 119.042 133.38C119.042 131.34 117.802 130.02 115.842 130.02C114.722 130.02 113.642 130.46 112.842 131.22L109.762 129.94L110.562 118.14H122.482V122.14H114.722L114.402 126.3C115.122 126.1 115.842 126.02 116.602 126.02C120.962 126.02 123.762 128.78 123.762 133.06C123.762 138.22 119.642 141.82 113.642 141.82Z" fill="white"/>
<path d="M130.72 131.124C128.928 131.124 127.444 129.724 127.444 127.932C127.444 126.14 128.872 124.74 130.72 124.74C132.54 124.74 133.968 126.14 133.968 127.932C133.968 129.724 132.54 131.124 130.72 131.124ZM128.228 141.26L139.568 125.076H142.06L130.748 141.26H128.228ZM130.748 129.276C131.476 129.276 132.036 128.688 132.036 127.932C132.036 127.176 131.448 126.56 130.748 126.56C129.964 126.56 129.404 127.148 129.404 127.932C129.404 128.632 129.992 129.276 130.748 129.276ZM139.512 141.596C137.72 141.596 136.236 140.168 136.236 138.376C136.236 136.584 137.692 135.184 139.512 135.184C141.332 135.184 142.76 136.584 142.76 138.376C142.76 140.168 141.276 141.596 139.512 141.596ZM139.512 139.748C140.24 139.748 140.828 139.16 140.828 138.376C140.828 137.648 140.212 137.032 139.512 137.032C138.784 137.032 138.168 137.62 138.168 138.376C138.168 139.104 138.812 139.748 139.512 139.748Z" fill="white"/>
<mask id="mask2_13_12598" style="mask-type:luminance" maskUnits="userSpaceOnUse" x="0" y="0" width="233" height="206">
<path d="M232.55 0H0V205.91H232.55V0Z" fill="white"/>
</mask>
<g mask="url(#mask2_13_12598)">
<path d="M99.2629 201.74V200.278L102.935 196.079C103.462 195.45 103.683 195.025 103.683 194.549C103.683 193.937 103.207 193.478 102.408 193.478C101.49 193.478 101.014 194.107 101.048 195.042H99.0419C99.0079 193.019 100.419 191.693 102.561 191.693C104.499 191.693 105.74 192.764 105.74 194.379C105.74 195.365 105.298 196.232 104.04 197.66L102.068 199.938H105.57V201.74H99.2629ZM111.276 201.995C108.76 201.995 107.417 200.227 107.417 196.997C107.417 193.682 108.913 191.71 111.446 191.71C113.962 191.71 115.288 193.461 115.288 196.691C115.288 200.023 113.792 201.995 111.276 201.995ZM111.344 200.159C112.517 200.159 113.146 198.969 113.146 196.844C113.146 194.719 112.517 193.546 111.344 193.546C110.171 193.546 109.559 194.719 109.559 196.861C109.559 198.969 110.171 200.159 111.344 200.159ZM117.093 201.74V200.278L120.765 196.079C121.292 195.45 121.513 195.025 121.513 194.549C121.513 193.937 121.037 193.478 120.238 193.478C119.32 193.478 118.844 194.107 118.878 195.042H116.872C116.838 193.019 118.249 191.693 120.391 191.693C122.329 191.693 123.57 192.764 123.57 194.379C123.57 195.365 123.128 196.232 121.87 197.66L119.898 199.938H123.4V201.74H117.093ZM129.412 201.74V199.751H124.873V198.119L128.477 191.914H130.806L127.253 198.017H129.412V196.436L131.418 196.419V198.017H132.37V199.751H131.418V201.74H129.412Z" fill="#010636"/>
</g>
</svg>
