<svg width="470" height="130" viewBox="0 0 470 130" fill="none" xmlns="http://www.w3.org/2000/svg">
<g clip-path="url(#clip0_20_13826)">
<path d="M18.7632 69.4333C19.198 69.4333 19.5325 69.5333 19.8335 69.8667C20.1011 70.1333 20.2683 70.5 20.2683 70.9C20.2683 71.3 20.1011 71.7 19.8335 71.9667C19.4991 72.3 19.198 72.4 18.7632 72.4H11.6058V81.5333C11.6058 81.9 11.4386 82.3 11.171 82.5667C10.9034 82.9 10.5355 83 10.1007 83C9.66591 83 9.33145 82.9 9.03044 82.5667C8.76287 82.3 8.59564 81.9333 8.59564 81.5333V72.4H1.33784C0.969936 72.3333 0.635475 72.1667 0.367907 71.9333C0.100338 71.6667 0 71.3333 0 70.9C0 70.4667 0.100338 70.1333 0.434799 69.8667C0.702367 69.5333 1.07027 69.4333 1.50507 69.4333H18.7632Z" fill="white"/>
<mask id="mask0_20_13826" style="mask-type:luminance" maskUnits="userSpaceOnUse" x="23" y="69" width="21" height="4">
<path d="M24.9843 69.4333C24.5495 69.4333 24.1816 69.5333 23.914 69.8667C23.613 70.1333 23.4792 70.5 23.4792 70.8667C23.4792 71.2333 23.5796 71.6667 23.914 71.9333C24.1816 72.2333 24.5495 72.3667 24.9843 72.3667H41.5401C41.9749 72.3667 42.2759 72.2667 42.6104 71.9333C42.878 71.6667 43.0452 71.3 43.0452 70.8667C43.0452 70.4333 42.878 70.1333 42.6104 69.8667C42.3094 69.5333 41.9749 69.4333 41.5401 69.4333H24.9843Z" fill="white"/>
</mask>
<g mask="url(#mask0_20_13826)">
<path d="M43.0452 69.4333H23.5127V72.3333H43.0452V69.4333Z" fill="url(#paint0_linear_20_13826)"/>
</g>
<path d="M46.6572 76.2C46.6572 75.4 46.7576 74.6333 47.0251 73.8333C47.2927 73.0333 47.6606 72.2667 48.1623 71.6333C48.6974 71 49.2995 70.4333 50.0018 70.0333C50.7042 69.6 51.5069 69.4333 52.4434 69.4333H65.2198C65.6546 69.4333 65.9891 69.5333 66.2901 69.8667C66.5911 70.2 66.7249 70.5 66.7249 70.9C66.7249 71.3 66.5576 71.7 66.2901 71.9667C65.9556 72.3 65.6546 72.4 65.2198 72.4H53.0789C52.3096 72.4 51.741 72.5667 51.3062 72.7667C50.8714 73.0333 50.5035 73.3667 50.236 73.7333C49.9684 74.1 49.8012 74.5333 49.7008 74.9667C49.6339 75.4 49.6005 75.8333 49.6005 76.2C49.6005 76.5667 49.6674 77 49.7008 77.4333C49.8012 77.8667 49.9684 78.3 50.236 78.6667C50.5035 79.0333 50.8714 79.3667 51.3062 79.6333C51.741 79.8667 52.3431 80 53.0789 80H65.2198C65.6546 80 65.9891 80.1667 66.2901 80.4333C66.5576 80.7 66.7249 81.0667 66.7249 81.5C66.7249 81.9333 66.5576 82.2667 66.2901 82.5333C65.9556 82.8667 65.6546 82.9667 65.2198 82.9667H52.1089C51.2393 82.9667 50.5035 82.8 49.8012 82.3667C49.1657 81.9333 48.5637 81.4 48.1289 80.7667C47.6606 80.1333 47.2593 79.3667 47.0586 78.5667C46.791 77.7667 46.6907 76.9667 46.6907 76.2" fill="white"/>
<path d="M89.0001 81.5333C89.0001 81.9 88.8328 82.3 88.5653 82.5667C88.2977 82.9 87.9298 83 87.495 83C87.0602 83 86.7257 82.9 86.4247 82.5667C86.1571 82.3 85.9899 81.9333 85.9899 81.5333V77.7H73.1466V81.5333C73.1466 81.9 73.0463 82.3 72.7118 82.5667C72.4443 82.9 72.0763 83 71.675 83C71.2736 83 70.8723 82.9 70.6047 82.5667C70.2703 82.3 70.1699 81.9333 70.1699 81.5333V70.8667C70.1699 70.5 70.2703 70.1 70.6047 69.8333C70.8723 69.5 71.2402 69.4 71.675 69.4C72.1098 69.4 72.4443 69.5 72.7118 69.8333C73.0463 70.1 73.1466 70.4667 73.1466 70.8667V74.7H85.9899V70.8667C85.9899 70.5 86.1571 70.1 86.4247 69.8333C86.7592 69.5 87.0602 69.4 87.495 69.4C87.9298 69.4 88.2977 69.5 88.5653 69.8333C88.8328 70.1 89.0001 70.4667 89.0001 70.8667V81.5333Z" fill="white"/>
<path d="M41.8411 80.0333H27.4259C27.359 80.0333 27.2921 80.0333 27.2252 80.0333C26.9242 80.0333 26.6901 79.9333 26.4894 79.7333C26.2553 79.5333 26.1549 79.2667 26.1549 78.9333C26.1549 78.6 26.2218 78.3667 26.4894 78.1667C26.6901 77.9333 26.9242 77.8667 27.2252 77.8667C27.2921 77.8667 27.359 77.8667 27.4259 77.8667H41.8411C42.2759 77.8667 42.6104 77.7 42.9114 77.4333C43.179 77.1667 43.3462 76.8 43.3462 76.3667C43.3462 75.9333 43.179 75.6 42.9114 75.3333C42.577 75 42.2759 74.9 41.8411 74.9H27.2587C26.8239 74.9 26.3556 74.9667 25.9208 75.1667C25.4191 75.4 25.0512 75.6333 24.6833 75.9667C24.3488 76.3333 24.0478 76.7667 23.8137 77.2667C23.7468 77.4333 23.6799 77.6333 23.6465 77.8C23.5461 78.1667 23.5127 78.5667 23.5127 78.9667C23.5127 79.3667 23.5796 79.8 23.6465 80.1333C23.7134 80.3333 23.7468 80.5 23.8137 80.6667C24.0478 81.1333 24.3488 81.5667 24.6833 81.9667C25.0512 82.3 25.4526 82.5667 25.9208 82.7667C26.3556 83 26.8239 83.0333 27.2587 83.0333H41.8411C42.2759 83.0333 42.6104 82.9333 42.9114 82.6C43.179 82.3333 43.3462 81.9667 43.3462 81.5667C43.3462 81.1667 43.179 80.7667 42.9114 80.5C42.577 80.2333 42.2759 80.0667 41.8411 80.0667" fill="white"/>
<path d="M81.9093 52.8C81.9093 51.9 81.0732 51.2 80.0363 51.2C78.9995 51.2 78.1968 51.9333 78.1968 52.8C78.1968 54.4 79.7688 54.4 79.7688 55.5667V57.3333C79.7688 58.5333 78.1634 58.5667 78.1634 60.1C78.1634 61.6333 78.9995 61.7 80.0363 61.7C81.0732 61.7 81.8759 60.9667 81.8759 60.1C81.8759 58.5 80.2705 58.5333 80.2705 57.3333V55.5667C80.2705 54.3667 81.9093 54.3 81.9093 52.8ZM88.9664 61.7667C88.1637 65.7667 79.635 68.3667 73.3806 64.8C72.7451 64.4 72.1431 63.9667 72.1431 63.0667C72.1431 61.5667 73.414 60.3333 73.414 56.9333C73.414 53.5333 72.0427 53.3333 72.0427 51.5333C72.0427 47.7 86.0566 44 87.6286 50.6667C88.0634 52.5333 87.2941 54.1333 85.3543 56.3C87.8962 57.8 89.3678 59.7 88.9664 61.7667Z" fill="white"/>
<path d="M1.80609 53.7H0V51.9333H4.08042V57.9333H1.80609V53.7Z" fill="white"/>
<path d="M7.69259 56.2C7.75948 55.7 7.89326 55.2667 8.09394 54.8333C8.29462 54.4 8.52874 54.0667 8.79631 53.8333C8.82975 53.8 8.89665 53.7667 8.96354 53.7C8.72942 53.7 8.4284 53.7667 8.06049 53.8667C7.69259 53.9667 7.39157 54.0667 7.09056 54.1667L6.58887 52.5C7.29123 52.2333 8.09394 52.0333 8.99698 51.9C9.90003 51.7667 10.7362 51.6667 11.5054 51.6667C13.044 51.6667 14.2146 52.0667 15.0173 52.8667C15.82 53.6667 16.2213 54.8333 16.2213 56.4V62.6H11.6727V60.8333H13.947V56.1333C13.947 55.3 13.7798 54.6667 13.4119 54.2333C13.044 53.8 12.5423 53.5667 11.9068 53.5667C11.2713 53.5667 10.9369 53.7667 10.6024 54.2C10.2679 54.6333 10.0673 55.2 9.96692 55.9667L9.26455 62.6H6.99022L7.72603 56.2333L7.69259 56.2Z" fill="white"/>
<path d="M19.3652 53.7H18.2949V51.9333H21.6395V62.6H19.3652V53.7Z" fill="white"/>
<path d="M31.2385 58L34.4828 62.5667H31.9409L27.5929 56.4333C27.3922 56.6 27.225 56.8333 27.1247 57.0667C27.0243 57.3 26.9909 57.6 26.9909 57.9667V62.5667H24.7834V58.9C24.7834 57.9333 24.9507 57.1667 25.2517 56.5667C25.5527 55.9667 26.0544 55.5333 26.7233 55.2L24.3821 51.9H26.924L29.8338 56.0333L32.0078 51.9H34.5831L31.272 58H31.2385Z" fill="white"/>
<path d="M44.4499 53.3667L40.7374 62.6H38.2958L41.9749 53.7H35.988V48.8H38.2624V51.9333H44.4499V53.3667Z" fill="white"/>
<path d="M46.5903 62.7C46.2893 62.6667 45.9883 62.6 45.6204 62.5333V60.8C46.0552 60.8667 46.49 60.9 46.9582 60.9C47.4264 60.9 47.7609 60.7667 47.9616 60.5333C48.1957 60.2667 48.296 59.9 48.296 59.3667V53.7H46.3227V51.9H50.5704V59.5333C50.5704 60.5667 50.3028 61.3667 49.7677 61.9C49.2325 62.4667 48.4633 62.7333 47.4933 62.7333C46.5234 62.7333 46.8579 62.7333 46.5569 62.6667" fill="white"/>
<path d="M54.4167 53.7H52.6106V51.9333H56.691V57.9333H54.4167V53.7Z" fill="white"/>
<path d="M67.6279 60.8667V62.5667H58.6309V60.7667H64.116V55.7667C64.116 55.0667 63.9488 54.5333 63.5809 54.2C63.2464 53.8667 62.7113 53.7 61.942 53.7H59.1994V51.9H62.0758C63.4471 51.9 64.5174 52.2333 65.2532 52.9C65.989 53.5667 66.3569 54.5667 66.3569 55.8333V60.6667L67.6279 60.8333V60.8667Z" fill="white"/>
</g>
<mask id="mask1_20_13826" style="mask-type:luminance" maskUnits="userSpaceOnUse" x="288" y="59" width="69" height="27">
<path d="M356.284 59H288.716V85.1261H356.284V59Z" fill="white"/>
</mask>
<g mask="url(#mask1_20_13826)">
<path d="M352.846 73.0075C354.004 72.9221 354.903 73.405 355.478 74.045C355.892 74.5046 356.278 75.2725 356.284 76.1394C356.29 77.1614 355.862 77.9003 355.344 78.4181C354.783 78.9805 354.054 79.3645 353.097 79.3722C351.407 79.3877 349.997 78.0962 349.892 76.3741C349.824 75.2687 350.253 74.5511 350.713 74.045C350.956 73.7793 351.242 73.5543 351.601 73.3585C351.953 73.1665 352.322 73.0443 352.844 73.0075" fill="white"/>
<path d="M345.258 69.2666C345.083 69.1018 344.89 68.9447 344.688 68.7934C344.669 68.7779 344.65 68.7624 344.63 68.7488C344.582 68.7139 344.535 68.679 344.485 68.6441C344.473 68.6363 344.461 68.6266 344.448 68.6189C343.634 68.0623 342.634 67.6143 341.505 67.3157L341.472 67.3079C341.332 67.273 341.194 67.24 341.056 67.2051C340.685 67.114 340.318 67.0267 339.961 66.9453C339.893 66.9297 339.823 66.9142 339.755 66.8987C339.747 66.8987 339.74 66.8948 339.732 66.8929C337.749 66.4449 336.183 66.09 336.183 65.1592C336.183 64.4009 336.999 63.79 338.166 63.6737C339.44 63.5496 340.639 63.9374 341.837 64.8644C342.012 65.0254 342.433 65.421 342.604 65.6072C342.604 65.6072 342.606 65.6072 342.606 65.6091C342.622 65.6246 342.643 65.6362 342.667 65.6362C342.682 65.6362 342.696 65.6304 342.707 65.6246H342.711L345.46 63.4662L345.895 63.1249L346.141 62.9329C346.141 62.9329 346.141 62.9329 346.141 62.9309C346.163 62.9174 346.18 62.8921 346.18 62.8631C346.18 62.8437 346.172 62.8282 346.163 62.8146C346.163 62.8146 346.163 62.8139 346.163 62.8126C346.163 62.8126 346.163 62.8107 346.161 62.8088C346.159 62.8068 346.157 62.8049 346.155 62.8029C345.918 62.5082 345.625 62.2018 345.39 61.9594C345.302 61.8682 345.223 61.7868 345.162 61.7208C344.506 60.9936 343.673 60.3943 342.725 59.9444C342.441 59.8106 342.148 59.6865 341.843 59.5798C340.818 59.2211 339.697 59.0271 338.549 59.0271C338.506 59.0271 338.463 59.0271 338.421 59.031C338.39 59.031 338.357 59.033 338.326 59.033C338.192 59.033 338.061 59.0388 337.931 59.0446H337.902C337.768 59.0524 337.634 59.064 337.5 59.0756C335.08 59.3588 333.029 60.5359 331.901 62.1688C331.541 62.6885 331.273 63.2548 331.118 63.854C331.071 64.0674 331.032 64.2865 331.005 64.5095C331.003 64.525 331.001 64.5425 330.997 64.5599C330.997 64.5755 330.993 64.589 330.992 64.6045C330.962 64.7985 330.945 64.9943 330.945 65.1921C330.945 65.6789 331.032 66.1521 331.197 66.6059C331.431 67.2497 331.821 67.8548 332.339 68.3997C333.179 69.284 334.352 70.0152 335.746 70.5097L336.377 70.7075C336.712 70.8103 337.964 71.0721 338.493 71.202C339.235 71.3843 339.928 71.5957 340.491 71.8226C341.297 72.1503 341.835 72.5537 341.835 73.1801C341.835 73.3178 341.806 73.4516 341.756 73.5776C341.725 73.6513 341.697 73.7192 341.649 73.7871C341.624 73.8278 341.594 73.8685 341.563 73.9093C341.445 74.0993 341.235 74.2641 340.975 74.3883L341.01 74.3727C340.213 74.7742 339.025 74.9468 337.731 74.7839C337.032 74.6966 336.385 74.5201 335.832 74.2835C335.119 74.0043 334.35 73.4981 333.652 72.8019C333.592 72.7418 333.532 72.6797 333.476 72.6177L330.743 74.7625L330.119 75.2532L330.092 75.2745V75.2784C330.092 75.2784 330.09 75.2784 330.088 75.2784C330.065 75.2939 330.048 75.3191 330.048 75.3482C330.048 75.3676 330.055 75.3851 330.067 75.4006C330.067 75.4006 330.067 75.4045 330.069 75.4045C330.172 75.5344 330.279 75.6604 330.388 75.7845C331.287 76.8201 332.369 77.6579 333.567 78.2688C334.93 78.963 336.444 79.3625 338.013 79.4052C338.087 79.4071 338.16 79.4091 338.234 79.4091C338.277 79.4091 338.32 79.4091 338.362 79.411C341.73 79.4013 344.65 78.0322 346.106 76.027C346.74 75.1601 347.097 74.173 347.097 73.1277C347.097 71.6752 346.409 70.339 345.256 69.2744" fill="white"/>
<path d="M326.546 62.4073C325.357 61.0052 323.801 59.9949 322.071 59.4557C321.548 59.2928 321.01 59.1707 320.461 59.095C320.016 59.0349 319.565 59 319.111 59C313.606 59 309.125 63.5127 309.125 69.061C309.125 70.5252 309.448 71.9292 310.021 73.2053C310.337 73.9112 310.73 74.5764 311.19 75.1931C312.231 76.6223 313.641 77.7684 315.277 78.4976C315.312 78.5131 315.345 78.5287 315.38 78.5422C315.434 78.5674 315.49 78.5888 315.545 78.612C316.72 79.1027 317.996 79.3761 319.32 79.3761C319.338 79.3761 319.353 79.3742 319.371 79.3742C319.388 79.3742 319.406 79.3761 319.423 79.3761C321.533 79.3761 323.494 78.7362 325.118 77.6405C325.998 77.047 326.777 76.3179 327.431 75.4878L323.984 72.8136C323.968 72.798 323.947 72.7864 323.922 72.7864C323.898 72.7864 323.877 72.798 323.862 72.8136C323.574 73.0637 322.251 74.1362 320.404 74.365C320.183 74.3863 319.95 74.4018 319.703 74.4077C318.909 74.4077 318.229 74.2894 317.65 74.0954C316.673 73.7347 315.729 73.0792 315.09 72.1891C314.752 71.7004 314.57 71.2583 314.49 71.0236C314.471 70.9635 314.451 70.9053 314.434 70.8452H328.558C328.595 70.8452 328.628 70.818 328.636 70.7793C329.166 67.593 328.426 64.6181 326.552 62.4073M314.729 66.5787C315.619 64.9614 317.285 63.8967 319.109 63.8967C320.933 63.8967 322.601 64.9614 323.491 66.5787H314.729Z" fill="white"/>
<path d="M299.853 70.8064C299.478 71.6461 299.068 72.4393 298.633 73.1626L298.482 73.4167L298.324 73.1665C297.662 72.1057 297.058 70.9557 296.524 69.7495C296.099 68.7818 295.714 67.7695 295.386 66.7397C294.657 64.4649 294.174 62.0583 293.949 59.5857H288.813C288.864 60.2237 288.93 60.8675 289.013 61.5036C289.709 66.9162 291.503 72.001 294.199 76.2073C294.428 76.5641 294.869 77.2138 294.891 77.2448L294.986 77.3864L294.852 77.4911C293.321 78.6721 291.62 79.4847 289.79 79.8997L289.742 79.9114C289.408 79.987 289.064 80.0471 288.716 80.0956V85.1242C291.649 84.9361 294.434 83.98 296.776 82.3587C296.977 82.2307 297.149 82.1144 297.309 82.0019C297.588 81.8041 297.876 81.5888 298.185 81.3406C299.535 80.2585 300.78 78.9243 301.885 77.3767C304.903 73.1471 307.012 67.1625 308.154 59.5857H302.92C302.162 64.2109 301.16 67.8819 299.853 70.8064Z" fill="white"/>
</g>
<mask id="mask2_20_13826" style="mask-type:luminance" maskUnits="userSpaceOnUse" x="115" y="52" width="144" height="32">
<path d="M258.89 52.2271H115V83.1499H258.89V52.2271Z" fill="white"/>
</mask>
<g mask="url(#mask2_20_13826)">
<path d="M134.487 66.1602V69.2928H137.778C137.396 70.9484 136.017 71.9426 134.258 71.9426C132.115 71.9426 130.457 70.2356 130.457 67.7646C130.457 65.2935 132.115 63.5618 134.258 63.5618C135.661 63.5618 136.606 64.1206 137.344 65.014L140.151 62.543C138.799 60.8626 136.503 59.8438 134.18 59.8438C129.594 59.8438 126.179 63.2216 126.169 67.7455C125.423 66.1355 123.738 65.1167 120.816 65.1167C120.433 65.1167 120.051 65.1433 119.668 65.168L119.796 63.7918H125.663V60.0985H116.07L115.457 68.5306L115.533 68.5819C116.809 68.3519 117.983 68.1979 119.08 68.1979C121.275 68.1979 122.499 68.7074 122.499 70.0836C122.499 71.3571 121.299 71.9692 119.641 71.9692C118.238 71.9692 117.218 71.6898 116.274 71.2051L114.998 74.7463C116.197 75.3584 117.728 75.6891 120.1 75.6891C124.083 75.6891 126.426 73.6324 126.619 70.5056C127.69 73.6001 130.573 75.6891 134.178 75.6891C139.025 75.6891 142.547 71.8685 141.731 66.1602H134.485H134.487Z" fill="white"/>
</g>
<path d="M150.029 60.0966H147.071V79.6372H150.029V60.0966Z" fill="white"/>
<path d="M156.97 60.0966H154.01V75.3812H156.97V60.0966Z" fill="white"/>
<mask id="mask3_20_13826" style="mask-type:luminance" maskUnits="userSpaceOnUse" x="115" y="52" width="144" height="32">
<path d="M258.89 52.2271H115V83.1499H258.89V52.2271Z" fill="white"/>
</mask>
<g mask="url(#mask3_20_13826)">
<path d="M166.742 59.8172C162.889 59.8172 159.904 61.6268 159.904 65.1661C159.904 68.1466 162.558 70.2623 166.512 69.9562L166.588 67.6885C164.344 67.8406 162.864 66.8484 162.864 65.1661C162.864 63.4839 164.395 62.2883 166.742 62.2883C169.779 62.2883 171.616 64.4799 171.616 67.6125C171.616 70.9751 169.6 73.1895 166.232 73.1895C164.523 73.1895 162.916 72.9348 161.36 72.3247L160.62 74.6171C162.43 75.4078 164.344 75.6606 166.284 75.6606C171.641 75.6606 174.574 72.452 174.574 67.6106C174.574 62.7692 171.742 59.8153 166.742 59.8153" fill="white"/>
<path d="M191.773 60.0966H188.813C188.94 64.9114 188.072 67.1791 186.286 68.2493L179.882 60.0966H176.617V60.2239L180.571 65.2669C177.866 66.6944 176.514 69.3936 176.642 75.3812H179.602C179.475 70.5911 180.318 68.3234 182.104 67.2285L188.508 75.3812H191.8V75.2539L187.819 70.209C190.524 68.7815 191.901 66.1089 191.775 60.0966" fill="white"/>
</g>
<path d="M197.258 57.5495H194.299V62.619H203.483L198.56 75.2538V75.3831H201.697L207.412 60.3779V60.0966H197.258V57.5495Z" fill="white"/>
<mask id="mask4_20_13826" style="mask-type:luminance" maskUnits="userSpaceOnUse" x="115" y="52" width="144" height="32">
<path d="M258.89 52.2271H115V83.1499H258.89V52.2271Z" fill="white"/>
</mask>
<g mask="url(#mask4_20_13826)">
<path d="M215.602 59.8172C211.749 59.8172 208.764 61.6268 208.764 65.1661C208.764 68.1466 211.418 70.2623 215.372 69.9562L215.448 67.6885C213.203 67.8406 211.724 66.8484 211.724 65.1661C211.724 63.4839 213.255 62.2883 215.602 62.2883C218.639 62.2883 220.476 64.4799 220.476 67.6125C220.476 70.9751 218.46 73.1895 215.092 73.1895C213.382 73.1895 211.776 72.9348 210.22 72.3247L209.48 74.6171C211.29 75.4078 213.203 75.6606 215.143 75.6606C220.501 75.6606 223.434 72.452 223.434 67.6106C223.434 62.7692 220.601 59.8153 215.602 59.8153" fill="white"/>
<path d="M247.852 65.0521C247.545 65.1642 247.205 65.244 246.862 65.3182C246.517 65.3961 246.175 65.4341 245.832 65.5083C245.299 65.5862 244.842 65.6983 244.69 65.7744C244.69 65.7744 244.537 65.8523 244.482 66.4777C244.423 67.105 244.271 68.2835 244.157 68.7967L244.044 69.3479L244.008 69.5399C244.008 69.5399 244.008 69.578 243.949 69.8251C243.892 70.0722 243.776 70.5284 243.625 70.9066C242.748 73.5716 239.968 74.0658 238.9 71.1366C237.948 68.4375 237.111 62.0468 238.558 59.0416C239.355 57.4069 240.159 57.2548 241.299 57.2548C243.09 57.2548 244.956 57.7871 246.71 58.8154C247.778 59.4218 249.108 60.5262 249.641 61.6686C250.251 62.9611 249.944 64.2537 247.852 65.0521ZM241.756 79.3901C239.698 79.8102 238.175 78.9377 239.087 76.5027C239.965 74.2958 241.489 74.0297 243.089 75.7424C244.88 77.6052 243.812 79.0137 241.754 79.3901M252.621 58.4714C242.915 48.6307 232.903 50.2293 229.568 64.632C229.151 66.5328 228.887 68.2987 228.789 69.8688C228.692 71.3951 228.74 72.8816 228.986 74.2958C230.518 83.0587 238.356 84.4007 246.885 82.2527C262.273 78.2363 261.353 67.4566 252.621 58.4733" fill="white"/>
<path d="M245.794 60.8683C244.692 59.916 243.662 60.184 243.473 61.7047C243.433 61.8948 243.433 62.083 243.433 62.275C243.433 62.427 243.433 62.581 243.473 62.7312C243.738 63.6055 244.538 63.6816 245.413 63.3774C246.974 62.8471 246.784 61.7047 245.794 60.8683Z" fill="white"/>
</g>
<path d="M452.455 72.8012C452.455 74.887 450.399 76.5556 448.164 76.5556C445.929 76.5556 443.844 74.8572 443.844 72.8012C443.844 69.2555 447.568 69.1363 447.568 66.3653V62.2236C447.538 59.4824 443.903 59.5419 443.903 55.7876C443.903 52.0333 445.959 52.0333 448.194 52.0333C450.429 52.0333 452.514 53.7317 452.514 55.7876C452.514 59.3334 448.73 59.4824 448.73 62.2534V66.3653C448.76 69.1065 452.455 69.0469 452.455 72.8012ZM460.44 63.9518C464.969 58.8864 466.787 55.1917 465.744 50.8117C462.109 35.2581 429.482 43.899 429.482 52.8676C429.482 61.8363 432.7 59.7505 432.7 65.4714C432.7 71.1922 429.72 76.2874 429.72 79.7735C429.72 83.2597 431.091 82.8723 432.581 83.8258C447.151 92.1688 467.055 86.0605 468.902 76.7045C469.826 71.8776 466.34 67.4975 460.44 63.9518Z" fill="white"/>
<path d="M389.376 74.6188L393.697 62.2832H383V59.0354H397.809V62.2236L393.429 74.6486H389.376V74.6188ZM383.119 79.8332V66.5739H386.993V79.8332H383.119Z" fill="white"/>
<path d="M403.291 74.6188C402.844 73.278 402.516 72.2351 402.308 71.5796C402.099 70.9241 401.861 70.06 401.652 68.9874C401.444 67.9147 401.295 67.0208 401.295 66.2461C401.295 64.5775 401.742 63.2665 402.576 62.313H399.686V59.0652H408.833V62.313H406.896C406.122 62.313 405.556 62.5216 405.138 62.9983C404.751 63.4751 404.543 64.1008 404.543 64.8457C404.543 66.0971 405.407 69.0172 407.194 73.6058C407.343 74.0527 407.492 74.3805 407.552 74.6188H403.232H403.291Z" fill="white"/>
<path d="M410.71 74.6188V71.371H418.636V65.0245C418.636 63.2069 417.802 62.2832 416.163 62.2832H410.859V59.0354H417.087C419.5 59.0354 421.139 59.9591 421.944 61.8065C422.301 62.611 422.48 63.7134 422.48 65.1138V71.3412H425.013V74.589H410.71V74.6188Z" fill="white"/>
<defs>
<linearGradient id="paint0_linear_20_13826" x1="12.4956" y1="67.7933" x2="32.0281" y2="67.7933" gradientUnits="userSpaceOnUse">
<stop stop-color="#00EF6A"/>
<stop offset="0.2" stop-color="#00E382"/>
<stop offset="0.5" stop-color="#00C9B8"/>
<stop offset="0.8" stop-color="#0084E2"/>
<stop offset="1" stop-color="#0058FF"/>
</linearGradient>
<clipPath id="clip0_20_13826">
<rect width="89" height="36" fill="white" transform="translate(0 47)"/>
</clipPath>
</defs>
</svg>
