<svg width="65" height="65" viewBox="0 0 65 65" fill="none" xmlns="http://www.w3.org/2000/svg">
<g clip-path="url(#clip0_17_12978)">
<path d="M44.1035 5.59863C40.3457 5.1543 36.8545 3.60547 34.0107 1.12988L33.1094 0.342773C32.5889 -0.114258 31.8018 -0.114258 31.2812 0.342773L30.3799 1.12988C27.5234 3.60547 24.0322 5.1543 20.2871 5.59863C19.5889 5.6875 19.0557 6.28418 19.0557 6.98242V19.8174C19.0557 24.4004 21.5566 28.5898 25.5811 30.7734L31.5352 34.0107C31.7383 34.125 31.9668 34.1758 32.1953 34.1758C32.4238 34.1758 32.6523 34.125 32.8555 34.0107L38.8096 30.7734C42.834 28.5898 45.335 24.3877 45.335 19.8174V6.98242C45.335 6.27149 44.8018 5.67481 44.1035 5.59863ZM42.542 19.8174C42.542 23.3721 40.5996 26.6221 37.4766 28.3232L32.1826 31.1924L26.8887 28.3232C23.7656 26.6348 21.8232 23.3721 21.8232 19.8174V8.18848C25.6572 7.50293 29.2119 5.81445 32.1826 3.23731C35.1406 5.80176 38.708 7.50293 42.542 8.18848V19.8174Z" fill="#0069FF"/>
<path d="M54.3486 52.292C55.8213 50.9844 56.748 49.0674 56.748 46.9473V43.7861C56.748 39.8379 53.5361 36.6133 49.5752 36.6133C45.6143 36.6133 42.4023 39.8252 42.4023 43.7861V46.9473C42.4023 49.0674 43.3291 50.9717 44.7891 52.292C43.4053 52.876 42.123 53.7139 41.0186 54.7803C39.9395 53.7393 38.6699 52.8887 37.2607 52.292C38.7334 50.9844 39.6602 49.0674 39.6602 46.9473V43.7861C39.6602 39.8379 36.4482 36.6133 32.4873 36.6133C28.5264 36.6133 25.3145 39.8252 25.3145 43.7861V46.9473C25.3145 49.0674 26.2412 50.9717 27.7139 52.292C26.3047 52.8887 25.0352 53.7393 23.9561 54.7803C22.8516 53.7139 21.582 52.876 20.1855 52.292C21.6582 50.9844 22.5723 49.0674 22.5723 46.9473V43.7861C22.5723 39.8379 19.3604 36.6133 15.3994 36.6133C11.4385 36.6133 8.22656 39.8252 8.22656 43.7861V46.9473C8.22656 49.0674 9.15332 50.9717 10.626 52.292C6.2207 54.1582 3.12305 58.5254 3.12305 63.6035C3.12305 68.6816 3.74512 65 4.51953 65H60.417C61.1914 65 61.8135 64.3779 61.8135 63.6035C61.8135 58.5254 58.7158 54.1582 54.3105 52.292H54.3486ZM45.1953 46.96V43.7988C45.1953 41.3867 47.1631 39.4189 49.5752 39.4189C51.9873 39.4189 53.9551 41.3867 53.9551 43.7988V46.96C53.9551 49.3721 51.9873 51.3398 49.5752 51.3398C47.1631 51.3398 45.1953 49.3721 45.1953 46.96ZM28.1201 46.96V43.7988C28.1201 41.3867 30.0879 39.4189 32.5 39.4189C34.9121 39.4189 36.8799 41.3867 36.8799 43.7988V46.96C36.8799 49.3721 34.9121 51.3398 32.5 51.3398C30.0879 51.3398 28.1201 49.3721 28.1201 46.96ZM11.0576 46.96V43.7988C11.0576 41.3867 13.0254 39.4189 15.4375 39.4189C17.8496 39.4189 19.8174 41.3867 19.8174 43.7988V46.96C19.8174 49.3721 17.8496 51.3398 15.4375 51.3398C13.0254 51.3398 11.0576 49.3721 11.0576 46.96ZM15.4248 54.1201C17.9893 54.1201 20.4014 55.1484 22.1787 56.9512C21.1758 58.5 20.5156 60.29 20.2998 62.207H6.05566C6.72852 57.6367 10.6768 54.1201 15.4375 54.1201H15.4248ZM23.1182 62.207C23.791 57.6367 27.7393 54.1201 32.5 54.1201C37.2607 54.1201 41.1963 57.6367 41.8818 62.207H23.1309H23.1182ZM44.6875 62.207C44.4717 60.29 43.8115 58.5 42.8086 56.9512C44.5859 55.1357 47.0107 54.1201 49.5625 54.1201C54.3105 54.1201 58.2588 57.6367 58.9443 62.207H44.6875Z" fill="#010636"/>
<path d="M30.3926 22.2671C30.6592 22.5464 31.0274 22.7115 31.4209 22.7115C31.8145 22.7115 32.1827 22.5464 32.4493 22.2671L39.3047 14.8277C39.8252 14.2564 39.7871 13.3804 39.2285 12.8599C38.6573 12.3394 37.7813 12.3775 37.2608 12.9361L31.4336 19.2583L28.5264 16.1353C28.0059 15.5767 27.1172 15.5386 26.5586 16.0591C26 16.5796 25.9619 17.4683 26.4825 18.0269L30.418 22.2544L30.3926 22.2671Z" fill="#010636"/>
</g>
<defs>
<clipPath id="clip0_17_12978">
<rect width="65" height="65" fill="white"/>
</clipPath>
</defs>
</svg>
