<svg width="97" height="39" viewBox="0 0 97 39" fill="none" xmlns="http://www.w3.org/2000/svg">
<g clip-path="url(#clip0_10_4390)">
<path d="M20.4498 24.303C20.9237 24.303 21.2882 24.4113 21.6163 24.7724C21.9079 25.0613 22.0902 25.4585 22.0902 25.8919C22.0902 26.3252 21.9079 26.7585 21.6163 27.0474C21.2518 27.4085 20.9237 27.5169 20.4498 27.5169H12.649V37.4113C12.649 37.8085 12.4667 38.2419 12.1751 38.5308C11.8835 38.8919 11.4825 39.0002 11.0086 39.0002C10.5348 39.0002 10.1702 38.8919 9.84216 38.5308C9.55054 38.2419 9.36828 37.8446 9.36828 37.4113V27.5169H1.4581C1.05712 27.4446 0.692597 27.2641 0.400977 27.0113C0.109357 26.7224 0 26.3613 0 25.8919C0 25.4224 0.109357 25.0613 0.473882 24.7724C0.765502 24.4113 1.16648 24.303 1.64036 24.303H20.4498Z" fill="#010636"/>
<mask id="mask0_10_4390" style="mask-type:luminance" maskUnits="userSpaceOnUse" x="25" y="24" width="22" height="4">
<path d="M27.23 24.303C26.7561 24.303 26.3551 24.4113 26.0635 24.7724C25.7354 25.0613 25.5896 25.4585 25.5896 25.8558C25.5896 26.253 25.699 26.7224 26.0635 27.0113C26.3551 27.3363 26.7561 27.4808 27.23 27.4808H45.2739C45.7478 27.4808 46.0759 27.3724 46.4404 27.0113C46.732 26.7224 46.9143 26.3252 46.9143 25.8558C46.9143 25.3863 46.732 25.0613 46.4404 24.7724C46.1123 24.4113 45.7478 24.303 45.2739 24.303H27.23Z" fill="white"/>
</mask>
<g mask="url(#mask0_10_4390)">
<path d="M46.9142 24.303H25.626V27.4446H46.9142V24.303Z" fill="url(#paint0_linear_10_4390)"/>
</g>
<path d="M50.8511 31.6335C50.8511 30.7669 50.9604 29.9363 51.2521 29.0696C51.5437 28.203 51.9446 27.3724 52.4914 26.6863C53.0747 26.0002 53.7308 25.3863 54.4963 24.953C55.2618 24.4835 56.1367 24.303 57.1574 24.303H71.0822C71.5561 24.303 71.9206 24.4113 72.2487 24.7724C72.5767 25.1335 72.7226 25.4585 72.7226 25.8919C72.7226 26.3252 72.5403 26.7585 72.2487 27.0474C71.8841 27.4085 71.5561 27.5169 71.0822 27.5169H57.8499C57.0115 27.5169 56.3918 27.6974 55.918 27.9141C55.4441 28.203 55.0431 28.5641 54.7515 28.9613C54.4599 29.3585 54.2776 29.828 54.1683 30.2974C54.0953 30.7669 54.0589 31.2363 54.0589 31.6335C54.0589 32.0308 54.1318 32.5002 54.1683 32.9696C54.2776 33.4391 54.4599 33.9085 54.7515 34.3058C55.0431 34.703 55.4441 35.0641 55.918 35.353C56.3918 35.6058 57.048 35.7502 57.8499 35.7502H71.0822C71.5561 35.7502 71.9206 35.9308 72.2487 36.2196C72.5403 36.5085 72.7226 36.9058 72.7226 37.3752C72.7226 37.8446 72.5403 38.2058 72.2487 38.4946C71.8841 38.8558 71.5561 38.9641 71.0822 38.9641H56.7928C55.8451 38.9641 55.0431 38.7835 54.2776 38.3141C53.585 37.8446 52.9289 37.2669 52.455 36.5808C51.9446 35.8946 51.5072 35.0641 51.2885 34.1974C50.9969 33.3308 50.8875 32.4641 50.8875 31.6335" fill="#010636"/>
<path d="M97 37.4113C97 37.8085 96.8178 38.2418 96.5261 38.5307C96.2345 38.8918 95.8336 39.0002 95.3597 39.0002C94.8858 39.0002 94.5213 38.8918 94.1932 38.5307C93.9016 38.2418 93.7193 37.8446 93.7193 37.4113V33.2585H79.7216V37.4113C79.7216 37.8085 79.6122 38.2418 79.2477 38.5307C78.9561 38.8918 78.5551 39.0002 78.1177 39.0002C77.6802 39.0002 77.2428 38.8918 76.9512 38.5307C76.5867 38.2418 76.4773 37.8446 76.4773 37.4113V25.8557C76.4773 25.4585 76.5867 25.0252 76.9512 24.7363C77.2428 24.3752 77.6438 24.2668 78.1177 24.2668C78.5915 24.2668 78.9561 24.3752 79.2477 24.7363C79.6122 25.0252 79.7216 25.4224 79.7216 25.8557V30.0085H93.7193V25.8557C93.7193 25.4585 93.9016 25.0252 94.1932 24.7363C94.5577 24.3752 94.8858 24.2668 95.3597 24.2668C95.8336 24.2668 96.2345 24.3752 96.5261 24.7363C96.8178 25.0252 97 25.4224 97 25.8557V37.4113Z" fill="#010636"/>
<path d="M45.6019 35.7862H29.8909C29.818 35.7862 29.7451 35.7862 29.6722 35.7862C29.3441 35.7862 29.089 35.6779 28.8702 35.4612C28.6151 35.2445 28.5057 34.9557 28.5057 34.5945C28.5057 34.2334 28.5786 33.9807 28.8702 33.764C29.089 33.5112 29.3441 33.439 29.6722 33.439C29.7451 33.439 29.818 33.439 29.8909 33.439H45.6019C46.0758 33.439 46.4403 33.2584 46.7684 32.9695C47.06 32.6807 47.2423 32.2834 47.2423 31.814C47.2423 31.3445 47.06 30.9834 46.7684 30.6945C46.4039 30.3334 46.0758 30.2251 45.6019 30.2251H29.7087C29.2348 30.2251 28.7244 30.2973 28.2506 30.514C27.7038 30.7668 27.3028 31.0195 26.9018 31.3807C26.5373 31.7779 26.2092 32.2473 25.954 32.789C25.8811 32.9695 25.8082 33.1862 25.7718 33.3668C25.6624 33.764 25.626 34.1973 25.626 34.6307C25.626 35.064 25.6989 35.5334 25.7718 35.8945C25.8447 36.1112 25.8811 36.2918 25.954 36.4723C26.2092 36.9779 26.5373 37.4473 26.9018 37.8807C27.3028 38.2418 27.7402 38.5307 28.2506 38.7473C28.7244 39.0001 29.2348 39.0362 29.7087 39.0362H45.6019C46.0758 39.0362 46.4403 38.9279 46.7684 38.5668C47.06 38.2779 47.2423 37.8807 47.2423 37.4473C47.2423 37.014 47.06 36.5807 46.7684 36.2918C46.4039 36.0029 46.0758 35.8223 45.6019 35.8223" fill="#010636"/>
<path d="M89.272 6.28345C89.272 5.30845 88.3607 4.55012 87.2307 4.55012C86.1007 4.55012 85.2258 5.34456 85.2258 6.28345C85.2258 8.01679 86.9391 8.01679 86.9391 9.28068V11.1946C86.9391 12.4946 85.1894 12.5307 85.1894 14.1918C85.1894 15.8529 86.1007 15.9251 87.2307 15.9251C88.3607 15.9251 89.2356 15.1307 89.2356 14.1918C89.2356 12.4585 87.4859 12.4946 87.4859 11.1946V9.28068C87.4859 7.98068 89.272 7.90845 89.272 6.28345ZM96.9635 15.9973C96.0886 20.3307 86.7933 23.1473 79.9767 19.2835C79.2841 18.8501 78.6279 18.3807 78.6279 17.4057C78.6279 15.7807 80.0131 14.4446 80.0131 10.7612C80.0131 7.0779 78.5186 6.86123 78.5186 4.91123C78.5186 0.758453 93.7921 -3.24988 95.5054 3.97234C95.9793 5.99456 95.1409 7.7279 93.0266 10.0751C95.797 11.7001 97.4009 13.7585 96.9635 15.9973Z" fill="#010636"/>
<path d="M1.96843 7.25837H0V5.34448H4.4472V11.8445H1.96843V7.25837Z" fill="#010636"/>
<path d="M8.38408 9.96677C8.45699 9.42511 8.6028 8.95566 8.82151 8.48622C9.04023 8.01677 9.29539 7.65566 9.58701 7.40289C9.62347 7.36678 9.69637 7.33066 9.76928 7.25844C9.51411 7.25844 9.18604 7.33066 8.78506 7.439C8.38408 7.54733 8.05601 7.65566 7.72794 7.764L7.18115 5.95844C7.94665 5.66955 8.82151 5.45289 9.80573 5.30844C10.7899 5.164 11.7013 5.05566 12.5397 5.05566C14.2165 5.05566 15.4923 5.489 16.3672 6.35566C17.242 7.22233 17.6795 8.48622 17.6795 10.1834V16.9001H12.7219V14.9862H15.2007V9.89455C15.2007 8.99177 15.0184 8.30566 14.6175 7.83622C14.2165 7.36678 13.6697 7.114 12.9771 7.114C12.2845 7.114 11.92 7.33066 11.5554 7.80011C11.1909 8.26955 10.9722 8.88344 10.8629 9.714L10.0973 16.9001H7.61858L8.42054 10.0029L8.38408 9.96677Z" fill="#010636"/>
<path d="M21.1059 7.25837H19.9395V5.34448H23.5847V16.9H21.1059V7.25837Z" fill="#010636"/>
<path d="M34.0465 11.9167L37.5824 16.8639H34.812L30.0732 10.2195C29.8545 10.4 29.6722 10.6528 29.5628 10.9056C29.4535 11.1584 29.417 11.4834 29.417 11.8806V16.8639H27.0112V12.8917C27.0112 11.8445 27.1934 11.0139 27.5215 10.3639C27.8496 9.71391 28.3964 9.24446 29.1254 8.88335L26.5737 5.30835H29.3441L32.5155 9.78613L34.8849 5.30835H37.6917L34.0829 11.9167H34.0465Z" fill="#010636"/>
<path d="M48.4454 6.89742L44.3992 16.9002H41.7381L45.7479 7.25853H39.2229V1.9502H41.7017V5.34464H48.4454V6.89742Z" fill="#010636"/>
<path d="M50.7783 17.0083C50.4502 16.9722 50.1222 16.9 49.7212 16.8278V14.95C50.1951 15.0222 50.669 15.0583 51.1793 15.0583C51.6896 15.0583 52.0541 14.9139 52.2729 14.6611C52.528 14.3722 52.6374 13.975 52.6374 13.3972V7.25835H50.4867V5.30835H55.1162V13.5778C55.1162 14.6972 54.8245 15.5639 54.2413 16.1417C53.6581 16.7556 52.8197 17.0445 51.7625 17.0445C50.7054 17.0445 51.0699 17.0445 50.7419 16.9722" fill="#010636"/>
<path d="M59.3083 7.25837H57.3398V5.34448H61.787V11.8445H59.3083V7.25837Z" fill="#010636"/>
<path d="M73.7068 15.0222V16.8639H63.9011V14.9139H69.8793V9.49724C69.8793 8.73891 69.6971 8.16113 69.2961 7.80002C68.9316 7.43891 68.3483 7.25835 67.5099 7.25835H64.5208V5.30835H67.6557C69.1503 5.30835 70.3168 5.66946 71.1187 6.39168C71.9207 7.11391 72.3216 8.19724 72.3216 9.56946V14.8056L73.7068 14.9861V15.0222Z" fill="#010636"/>
</g>
<defs>
<linearGradient id="paint0_linear_10_4390" x1="13.6185" y1="22.5263" x2="34.9068" y2="22.5263" gradientUnits="userSpaceOnUse">
<stop stop-color="#00EF6A"/>
<stop offset="0.2" stop-color="#00E382"/>
<stop offset="0.5" stop-color="#00C9B8"/>
<stop offset="0.8" stop-color="#0084E2"/>
<stop offset="1" stop-color="#0058FF"/>
</linearGradient>
<clipPath id="clip0_10_4390">
<rect width="97" height="39" fill="white"/>
</clipPath>
</defs>
</svg>
