<?xml version="1.0" encoding="utf-8"?>
<!-- Generator: Adobe Illustrator 27.9.0, SVG Export Plug-In . SVG Version: 6.00 Build 0)  -->
<svg version="1.1" id="Layer_1" xmlns="http://www.w3.org/2000/svg" xmlns:xlink="http://www.w3.org/1999/xlink" x="0px" y="0px"
	 viewBox="0 0 400 280" style="enable-background:new 0 0 400 280;" xml:space="preserve">
<style type="text/css">
	.st0{fill:#FFFFFF;}
</style>
<g>
	<g>
		<path class="st0" d="M89.7,166.2c0,7-6.9,12.6-14.4,12.6c-8,0-14.5-5.7-14.5-12.6c0-11.9,12.5-12.3,12.5-21.6v-13.9
			c-0.1-9.2-12.3-9-12.3-21.6c0-7,6.9-12.6,14.4-12.6c8,0,14.5,5.7,14.5,12.6c0,11.9-12.7,12.4-12.7,21.7v13.8
			C77.3,153.8,89.7,153.6,89.7,166.2 M116.5,136.5c15.2-17,21.3-29.4,17.8-44.1C122.1,40.2,12.6,69.2,12.6,99.3
			c0,14,10.8,23.1,10.8,42.3c0,26.6-10,36.3-10,48c0,7.1,4.6,10.4,9.6,13.6c48.9,28,115.7,7.5,121.9-23.9
			C148,163.1,136.3,148.4,116.5,136.5"/>
	</g>
</g>
<g>
	<path class="st0" d="M185.2,162.2c6.2,0,10-3.7,10-9c0-5.2-3.7-8.6-9.8-8.6h-11v17.6H185.2z M182.9,135.6c5.7,0,9.2-3.3,9.2-8.3
		c0-4.8-3.4-7.8-8.9-7.8h-8.7v16.1H182.9z M163.4,110.6h21.5c10.9,0,18.1,5.6,18.1,15c0,5.3-2.2,9.6-6,12.5
		c5.9,2.5,9.5,7.7,9.5,14.7c0,10.9-8.7,18.4-21.9,18.4h-21.2L163.4,110.6L163.4,110.6z"/>
	<path class="st0" d="M245.1,144.6c-0.7-6.4-5-10.3-11.2-10.3c-6.4,0-10.6,4.1-11.3,10.3H245.1z M212.2,149.5c0-14.4,9-24,22.2-24
		c12.7,0,21.1,8.8,21.1,22.7c0,1.3-0.1,2.6-0.3,4h-32.9c0.7,7,4.9,11.3,11.4,11.3c4.5,0,8-2.2,9.7-5.8H254
		c-3,8.9-10.6,14.6-20.7,14.6C220.7,172.3,212.2,163.5,212.2,149.5"/>
	<polygon class="st0" points="261.1,164.5 281.9,135.7 261.3,135.7 261.3,126.7 295.2,126.7 295.2,133.5 274.5,162.2 295.1,162.2 
		295.1,171.2 261.1,171.2 	"/>
	<path class="st0" d="M333.3,144.6c-0.7-6.4-5-10.3-11.2-10.3c-6.4,0-10.6,4.1-11.3,10.3H333.3z M300.3,149.5c0-14.4,9-24,22.2-24
		c12.7,0,21.1,8.8,21.1,22.7c0,1.3-0.1,2.6-0.3,4h-32.9c0.7,7,4.9,11.3,11.4,11.3c4.5,0,8-2.2,9.7-5.8h10.6
		c-3,8.9-10.6,14.6-20.7,14.6C308.9,172.3,300.3,163.5,300.3,149.5"/>
	<path class="st0" d="M383.6,148.9c0-8.5-4.4-14.1-11.1-14.1c-6.8,0-11.2,5.5-11.2,14.1c0,8.5,4.4,14.1,11.1,14.1
		C379.3,163,383.6,157.4,383.6,148.9 M383.4,167.5c-3.4,3.2-7.8,4.9-13,4.9c-11.9,0-20.1-9.2-20.1-23c0-14.2,8.7-23.9,21.5-23.9
		c5.2,0,9.7,1.7,13.2,4.8l2-3.6h7.5v64.1h-11v-23.3H383.4z"/>
</g>
</svg>
