<svg width="62" height="32" viewBox="0 0 62 32" fill="none" xmlns="http://www.w3.org/2000/svg">
<path d="M49.3872 21.4825C49.3872 22.9483 47.9424 24.121 46.3719 24.121C44.8014 24.121 43.3356 22.9274 43.3356 21.4825C43.3356 18.9907 45.9531 18.9069 45.9531 16.9595V14.0488C45.9321 12.1223 43.3774 12.1642 43.3774 9.52574C43.3774 6.88729 44.8223 6.88729 46.3928 6.88729C47.9633 6.88729 49.4291 8.08088 49.4291 9.52574C49.4291 12.0176 46.7697 12.1223 46.7697 14.0697V16.9595C46.7907 18.886 49.3872 18.8441 49.3872 21.4825ZM54.9992 15.2633C58.1821 11.7035 59.4594 9.10694 58.7265 6.02875C56.1718 -4.90198 33.2424 1.17065 33.2424 7.47361C33.2424 13.7766 35.504 12.3108 35.504 16.3313C35.504 20.3518 33.41 23.9325 33.41 26.3825C33.41 28.8325 34.3732 28.5603 35.4202 29.2304C45.6599 35.0936 59.6479 30.8009 60.9462 24.2257C61.5953 20.8334 59.1453 17.7552 54.9992 15.2633Z" fill="#010636"/>
<path d="M5.05711 22.76L8.09342 14.0908H0.575928V11.8083H10.9832V14.0489L7.90496 22.781H5.05711V22.76ZM0.659688 26.4245V17.1062H3.3819V26.4245H0.659688Z" fill="#010636"/>
<path d="M14.8362 22.7598C14.5221 21.8175 14.2918 21.0846 14.1452 20.6239C13.9986 20.1633 13.8311 19.556 13.6845 18.8022C13.538 18.0483 13.4333 17.4201 13.4333 16.8757C13.4333 15.703 13.7474 14.7817 14.3337 14.1116H12.3025V11.8291H18.7311V14.1116H17.37C16.8256 14.1116 16.4277 14.2582 16.1345 14.5932C15.8623 14.9282 15.7157 15.368 15.7157 15.8915C15.7157 16.771 16.323 18.8231 17.5794 22.0479C17.6841 22.362 17.7888 22.5923 17.8307 22.7598H14.7944H14.8362Z" fill="#010636"/>
<path d="M20.0503 22.76V20.4775H25.6204V16.0173C25.6204 14.74 25.034 14.0908 23.8823 14.0908H20.155V11.8083H24.5315C26.2276 11.8083 27.3793 12.4575 27.9447 13.7558C28.196 14.3212 28.3216 15.0959 28.3216 16.0801V20.4566H30.1015V22.7391H20.0503V22.76Z" fill="#010636"/>
</svg>
