<svg width="68" height="27" viewBox="0 0 68 27" fill="none" xmlns="http://www.w3.org/2000/svg">
<mask id="mask0_10_4380" style="mask-type:luminance" maskUnits="userSpaceOnUse" x="0" y="0" width="68" height="27">
<path d="M67.5678 0H0V26.1261H67.5678V0Z" fill="white"/>
</mask>
<g mask="url(#mask0_10_4380)">
<path d="M64.13 14.0074C65.2876 13.922 66.1869 14.4049 66.7618 15.0449C67.1755 15.5045 67.562 16.2724 67.5678 17.1393C67.5737 18.1613 67.1464 18.9002 66.6278 19.418C66.0665 19.9804 65.3381 20.3643 64.3806 20.3721C62.6908 20.3876 61.2807 19.096 61.1758 17.374C61.1078 16.2686 61.5371 15.551 61.9974 15.0449C62.2402 14.7792 62.5257 14.5542 62.885 14.3584C63.2366 14.1664 63.6056 14.0442 64.1281 14.0074" fill="#00C0E8"/>
<path d="M56.5415 10.2665C56.3667 10.1017 56.1744 9.94462 55.9724 9.79336C55.953 9.77785 55.9335 9.76234 55.9141 9.74876C55.8656 9.71385 55.819 9.67894 55.7685 9.64404C55.7568 9.63628 55.7452 9.62658 55.7316 9.61883C54.9177 9.06225 53.9175 8.61427 52.789 8.31562L52.756 8.30787C52.6161 8.27296 52.4783 8.23999 52.3404 8.20508C51.9694 8.11394 51.6023 8.02667 51.2449 7.94522C51.1769 7.9297 51.107 7.91419 51.039 7.89868C51.0313 7.89868 51.0235 7.8948 51.0157 7.89286C49.0327 7.44488 47.4672 7.08999 47.4672 6.15913C47.4672 5.40087 48.2829 4.78999 49.4503 4.67364C50.7244 4.54952 51.9228 4.93738 53.1211 5.86436C53.2959 6.02532 53.7174 6.42094 53.8883 6.60711C53.8883 6.60711 53.8903 6.60711 53.8903 6.60905C53.9058 6.62456 53.9272 6.6362 53.9505 6.6362C53.966 6.6362 53.9796 6.63038 53.9913 6.62456H53.9952L56.7435 4.46613L57.1785 4.12482L57.4252 3.93283C57.4252 3.93283 57.4252 3.93283 57.4252 3.93089C57.4466 3.91732 57.4641 3.8921 57.4641 3.86301C57.4641 3.84362 57.4563 3.82811 57.4466 3.81453C57.4466 3.81453 57.4466 3.81388 57.4466 3.81259C57.4466 3.81259 57.4466 3.81065 57.4446 3.80871C57.4427 3.80678 57.4408 3.80484 57.4388 3.8029C57.2019 3.50813 56.9086 3.20172 56.6736 2.95931C56.5862 2.86816 56.5065 2.78671 56.4463 2.72077C55.7898 1.99354 54.9566 1.3943 54.0088 0.944386C53.7252 0.810575 53.4319 0.686459 53.127 0.579798C52.1014 0.22103 50.9808 0.0270996 49.8329 0.0270996C49.7901 0.0270996 49.7474 0.0270975 49.7047 0.0309761C49.6736 0.0309761 49.6406 0.0329172 49.6095 0.0329172C49.4755 0.0329172 49.3454 0.0387346 49.2152 0.0445525H49.1861C49.0521 0.0523097 48.9181 0.0639461 48.784 0.0755819C46.364 0.358718 44.3129 1.53587 43.1845 3.16875C42.8252 3.68848 42.5571 4.25475 42.4017 4.85399C42.3551 5.06731 42.3163 5.28645 42.2891 5.50947C42.2872 5.52498 42.2852 5.54244 42.2813 5.55989C42.2813 5.57541 42.2774 5.58898 42.2755 5.6045C42.2464 5.79843 42.2289 5.9943 42.2289 6.1921C42.2289 6.67887 42.3163 7.15205 42.4814 7.60584C42.7145 8.24969 43.1048 8.85474 43.6234 9.39968C44.4625 10.284 45.6356 11.0151 47.0302 11.5096L47.6614 11.7074C47.9955 11.8102 49.2482 12.072 49.7765 12.202C50.5185 12.3843 51.2119 12.5956 51.7752 12.8225C52.5812 13.1503 53.1192 13.5536 53.1192 14.18C53.1192 14.3177 53.0901 14.4515 53.0396 14.5776C53.0085 14.6513 52.9813 14.7192 52.9327 14.787C52.9075 14.8278 52.8784 14.8685 52.8473 14.9092C52.7288 15.0993 52.519 15.2641 52.2588 15.3882L52.2937 15.3727C51.4974 15.7741 50.3087 15.9467 49.0152 15.7838C48.3159 15.6966 47.6692 15.5201 47.1156 15.2835C46.4028 15.0042 45.6337 14.4981 44.9364 13.8019C44.8762 13.7418 44.816 13.6797 44.7597 13.6176L42.0269 15.7625L41.4034 16.2531L41.3762 16.2745V16.2783C41.3762 16.2783 41.3743 16.2783 41.3723 16.2783C41.349 16.2939 41.3315 16.3191 41.3315 16.3482C41.3315 16.3676 41.3393 16.385 41.351 16.4005C41.351 16.4005 41.351 16.4044 41.3529 16.4044C41.4558 16.5343 41.5627 16.6604 41.6714 16.7845C42.5707 17.8201 43.6526 18.6579 44.8509 19.2687C46.2144 19.963 47.7275 20.3625 49.2968 20.4052C49.3706 20.4071 49.4444 20.409 49.5182 20.409C49.561 20.409 49.6037 20.409 49.6464 20.411C53.0143 20.4013 55.9336 19.0321 57.3903 17.0269C58.0235 16.1601 58.3808 15.173 58.3808 14.1277C58.3808 12.6751 57.6933 11.339 56.5396 10.2743" fill="#00C0E8"/>
<path d="M37.8297 3.40733C36.641 2.00523 35.0852 0.994857 33.3547 0.455734C32.8322 0.292834 32.2942 0.170662 31.7445 0.0950292C31.2997 0.0349112 30.8491 0 30.3946 0C24.8902 0 20.4094 4.51273 20.4094 10.061C20.4094 11.5252 20.7318 12.9292 21.3048 14.2053C21.6214 14.9112 22.0137 15.5764 22.4741 16.1931C23.5151 17.6223 24.9252 18.7684 26.5606 19.4976C26.5955 19.5131 26.6286 19.5287 26.6635 19.5422C26.7179 19.5674 26.7742 19.5888 26.8286 19.612C28.0037 20.1027 29.2798 20.3761 30.6044 20.3761C30.6219 20.3761 30.6374 20.3742 30.6549 20.3742C30.6724 20.3742 30.6899 20.3761 30.7074 20.3761C32.8167 20.3761 34.7784 19.7362 36.4021 18.6405C37.2819 18.047 38.0608 17.3179 38.7153 16.4878L35.2678 13.8136C35.2523 13.798 35.2309 13.7864 35.2056 13.7864C35.1823 13.7864 35.161 13.798 35.1454 13.8136C34.858 14.0637 33.5353 15.1362 31.6882 15.365C31.4668 15.3863 31.2337 15.4018 30.987 15.4077C30.1926 15.4077 29.5129 15.2894 28.9341 15.0954C27.9571 14.7347 27.0131 14.0792 26.3741 13.1891C26.0362 12.7004 25.8536 12.2583 25.774 12.0236C25.7546 11.9635 25.7351 11.9053 25.7176 11.8452H39.8419C39.8788 11.8452 39.9118 11.818 39.9195 11.7793C40.4498 8.593 39.7098 5.61812 37.8355 3.40733M26.0129 7.57875C26.9024 5.96138 28.5689 4.89671 30.3927 4.89671C32.2165 4.89671 33.8849 5.96138 34.7745 7.57875H26.0129Z" fill="#00C0E8"/>
<path d="M11.137 11.8064C10.7621 12.6461 10.3523 13.4393 9.91725 14.1627L9.76574 14.4167L9.60843 14.1665C8.94612 13.1057 8.34207 11.9557 7.80794 10.7495C7.38258 9.78181 6.998 8.76949 6.66976 7.73973C5.94141 5.46494 5.45779 3.05829 5.23248 0.585693H0.0971137C0.147613 1.22372 0.213644 1.86756 0.297162 2.50365C0.992495 7.91621 2.78716 13.001 5.48303 17.2073C5.71222 17.5642 6.15312 18.2138 6.17448 18.2449L6.26965 18.3864L6.13563 18.4912C4.60512 19.6722 2.90369 20.4847 1.07407 20.8998L1.02551 20.9114C0.691443 20.987 0.347667 21.0471 0 21.0956V26.1242C2.93283 25.9361 5.71805 24.98 8.06043 23.3588C8.26049 23.2308 8.43335 23.1144 8.59262 23.0019C8.8723 22.8041 9.15975 22.5889 9.46857 22.3406C10.8184 21.2585 12.0635 19.9243 13.1686 18.3767C16.1869 14.1471 18.2962 8.1625 19.4383 0.585693H14.2038C13.4463 5.2109 12.4441 8.88197 11.137 11.8064Z" fill="#00C0E8"/>
</g>
</svg>
