<svg width="144" height="31" viewBox="0 0 144 31" fill="none" xmlns="http://www.w3.org/2000/svg">
<mask id="mask0_10_4325" style="mask-type:luminance" maskUnits="userSpaceOnUse" x="0" y="0" width="144" height="31">
<path d="M143.89 0H0V30.9228H143.89V0Z" fill="white"/>
</mask>
<g mask="url(#mask0_10_4325)">
<path d="M19.4868 13.9332V17.0658H22.7784C22.3958 18.7214 21.0175 19.7155 19.2584 19.7155C17.1148 19.7155 15.4566 18.0086 15.4566 15.5375C15.4566 13.0664 17.1148 11.3347 19.2584 11.3347C20.6615 11.3347 21.6057 11.8936 22.3444 12.787L25.1505 10.3159C23.7989 8.63555 21.5029 7.6167 19.1803 7.6167C14.5942 7.6167 11.1788 10.9945 11.1693 15.5185C10.423 13.9085 8.73821 12.8896 5.81594 12.8896C5.43328 12.8896 5.05063 12.9162 4.66797 12.9409L4.79552 11.5647H10.6629V7.87141H1.06986L0.456852 16.3035L0.533003 16.3548C1.80852 16.1248 2.98314 15.9709 4.07971 15.9709C6.27474 15.9709 7.49886 16.4803 7.49886 17.8565C7.49886 19.1301 6.29949 19.7421 4.64132 19.7421C3.23825 19.7421 2.21783 19.4627 1.27357 18.978L-0.00195312 22.5193C1.19742 23.1313 2.72804 23.4621 5.10012 23.4621C9.08279 23.4621 11.4263 21.4054 11.6186 18.2785C12.6904 21.373 15.5727 23.4621 19.1784 23.4621C24.0254 23.4621 27.5474 19.6414 26.7306 13.9332H19.4849H19.4868Z" fill="#1129C6"/>
</g>
<path d="M35.0292 7.86938H32.0708V27.41H35.0292V7.86938Z" fill="#1129C6"/>
<path d="M41.9704 7.86938H39.01V23.154H41.9704V7.86938Z" fill="#1129C6"/>
<mask id="mask1_10_4325" style="mask-type:luminance" maskUnits="userSpaceOnUse" x="0" y="0" width="144" height="31">
<path d="M143.89 0H0V30.9228H143.89V0Z" fill="white"/>
</mask>
<g mask="url(#mask1_10_4325)">
<path d="M51.7424 7.59004C47.8892 7.59004 44.9041 9.39963 44.9041 12.939C44.9041 15.9195 47.5579 18.0351 51.512 17.7291L51.5882 15.4614C49.3436 15.6135 47.8644 14.6212 47.8644 12.939C47.8644 11.2567 49.395 10.0611 51.7424 10.0611C54.7789 10.0611 56.616 12.2528 56.616 15.3854C56.616 18.7479 54.5999 20.9624 51.2322 20.9624C49.5226 20.9624 47.9158 20.7077 46.3604 20.0975L45.6199 22.3899C47.4303 23.1807 49.3436 23.4335 51.2836 23.4335C56.6407 23.4335 59.5744 20.2249 59.5744 15.3835C59.5744 10.542 56.7416 7.58813 51.7424 7.58813" fill="#1129C6"/>
<path d="M76.773 7.86938H73.8127C73.9402 12.6842 73.0721 14.9519 71.2864 16.0221L64.8821 7.86938H61.6172V7.99674L65.5713 13.0397C62.8661 14.4672 61.5144 17.1664 61.6419 23.154H64.6023C64.4747 18.3639 65.3181 16.0962 67.1038 15.0013L73.5081 23.154H76.7997V23.0266L72.8189 17.9818C75.5242 16.5543 76.9006 13.8817 76.7749 7.86938" fill="#1129C6"/>
</g>
<path d="M82.2578 5.32227H79.2993V10.3918H88.483L83.5599 23.0267V23.1559H86.6973L92.4124 8.15071V7.86939H82.2578V5.32227Z" fill="#1129C6"/>
<mask id="mask2_10_4325" style="mask-type:luminance" maskUnits="userSpaceOnUse" x="0" y="0" width="144" height="31">
<path d="M143.89 0H0V30.9228H143.89V0Z" fill="white"/>
</mask>
<g mask="url(#mask2_10_4325)">
<path d="M100.602 7.59004C96.749 7.59004 93.7639 9.39963 93.7639 12.939C93.7639 15.9195 96.4178 18.0351 100.372 17.7291L100.448 15.4614C98.2035 15.6135 96.7243 14.6212 96.7243 12.939C96.7243 11.2567 98.2549 10.0611 100.602 10.0611C103.639 10.0611 105.476 12.2528 105.476 15.3854C105.476 18.7479 103.46 20.9624 100.092 20.9624C98.3824 20.9624 96.7757 20.7077 95.2203 20.0975L94.4797 22.3899C96.2902 23.1807 98.2035 23.4335 100.143 23.4335C105.501 23.4335 108.434 20.2249 108.434 15.3835C108.434 10.542 105.601 7.58813 100.602 7.58813" fill="#1129C6"/>
<path d="M132.852 12.8249C132.545 12.937 132.205 13.0169 131.862 13.091C131.517 13.1689 131.175 13.207 130.832 13.2811C130.299 13.359 129.842 13.4712 129.69 13.5472C129.69 13.5472 129.537 13.6251 129.482 14.2505C129.423 14.8778 129.271 16.0563 129.157 16.5695L129.044 17.1208L129.008 17.3128C129.008 17.3128 129.008 17.3508 128.949 17.5979C128.892 17.845 128.776 18.3012 128.625 18.6795C127.748 21.3444 124.968 21.8387 123.9 18.9095C122.948 16.2103 122.111 9.81967 123.558 6.81445C124.355 5.17973 125.159 5.02766 126.299 5.02766C128.09 5.02766 129.956 5.55989 131.71 6.58825C132.778 7.19461 134.108 8.299 134.641 9.4414C135.251 10.734 134.944 12.0265 132.852 12.8249ZM126.756 27.1629C124.698 27.583 123.175 26.7105 124.087 24.2755C124.965 22.0687 126.489 21.8025 128.089 23.5152C129.88 25.378 128.812 26.7865 126.754 27.1629M137.621 6.24419C127.915 -3.59643 117.903 -1.99783 114.568 12.4048C114.151 14.3056 113.887 16.0715 113.789 17.6416C113.692 19.168 113.74 20.6544 113.986 22.0687C115.518 30.8315 123.356 32.1735 131.885 30.0256C147.273 26.0091 146.353 15.2294 137.621 6.2461" fill="#1129C6"/>
<path d="M130.794 8.64116C129.692 7.68884 128.662 7.95686 128.473 9.47753C128.433 9.66761 128.433 9.8558 128.433 10.0478C128.433 10.1998 128.433 10.3538 128.473 10.504C128.738 11.3784 129.538 11.4544 130.413 11.1503C131.974 10.6199 131.784 9.47753 130.794 8.64116Z" fill="#1129C6"/>
</g>
</svg>
