<?xml version="1.0" encoding="UTF-8"?>
<svg id="Warstwa_1" data-name="Warstwa 1" xmlns="http://www.w3.org/2000/svg" viewBox="0 0 2394.67 405.95">
  <defs>
    <style>
      .cls-1 {
        fill: #fff;
      }
    </style>
  </defs>
  <g>
    <path class="cls-1" d="m548.3,107.6h-82.57v202.79h40.56v-67.21h42.01c43.16,0,68.37-25.49,68.37-67.79s-25.21-67.79-68.37-67.79Zm-5.21,101.11h-36.79v-66.63h36.79c20.85,0,33.02,13.03,33.02,33.31s-12.16,33.31-33.02,33.31Z"/>
    <path class="cls-1" d="m714.56,148.16c-46.06,0-79.67,35.34-79.67,82.57s33.61,82.56,79.67,82.56c28.39,0,49.83-11.88,64.6-32.16l-29.26-19.98c-8.41,11.59-21.15,18.24-35.34,18.24-21.44,0-37.67-13.32-42.88-33.89h120.51c6.09-49.25-23.75-97.34-77.63-97.34Zm-43.46,70.98c4.35-22.31,21.15-36.51,43.46-36.51,24.62,0,38.24,17.38,41.71,36.51h-85.17Z"/>
    <rect class="cls-1" x="822.28" y="93.12" width="38.24" height="217.27"/>
    <path class="cls-1" d="m969.44,148.16c-46.06,0-79.67,35.34-79.67,82.57s33.61,82.56,79.67,82.56c28.39,0,49.83-11.88,64.6-32.16l-29.26-19.98c-8.41,11.59-21.15,18.24-35.34,18.24-21.44,0-37.67-13.32-42.88-33.89h120.51c6.09-49.25-23.75-97.34-77.63-97.34Zm-43.46,70.98c4.35-22.31,21.15-36.51,43.46-36.51,24.62,0,38.24,17.38,41.71,36.51h-85.17Z"/>
    <path class="cls-1" d="m1167.85,148.75c-22.59,0-40.85,8.98-52.44,25.49v-23.18h-38.24v217.28h38.24v-81.12c11.59,16.51,29.84,25.5,52.44,25.5,42.58,0,73.58-35.35,73.58-81.98s-31-81.98-73.58-81.98Zm-8.12,130.65c-25.2,0-44.32-20.85-44.32-48.66s19.12-48.67,44.32-48.67,43.46,20.85,43.46,48.67-17.96,48.66-43.46,48.66Z"/>
    <path class="cls-1" d="m1358.14,149.61c-21.44,0-38.54,8.41-49.54,23.76v-80.24h-38.24v217.27h38.24v-88.65c0-24.34,14.49-40.27,36.21-40.27s35.64,15.93,35.64,40.27v88.65h38.24v-88.65c0-45.77-22.6-72.14-60.55-72.14Z"/>
    <path class="cls-1" d="m1525.84,147.58c-47.22,0-81.11,34.48-81.11,83.15s33.9,83.14,81.11,83.14,81.11-34.48,81.11-83.14-33.89-83.15-81.11-83.15Zm0,132.11c-25.21,0-44.03-20.57-44.03-48.96s18.83-48.97,44.03-48.97,44.03,20.58,44.03,48.97-18.83,48.96-44.03,48.96Z"/>
    <path class="cls-1" d="m1723.96,148.45c-21.44,0-38.54,8.41-49.54,23.76v-21.15h-38.24v159.33h38.24v-89.81c0-24.04,14.49-40.27,36.21-40.27s35.64,16.23,35.64,40.27v89.81h38.24v-92.12c0-45.19-22.59-69.82-60.55-69.82Z"/>
    <path class="cls-1" d="m1890.22,148.16c-46.06,0-79.67,35.34-79.67,82.57s33.61,82.56,79.67,82.56c28.39,0,49.83-11.88,64.6-32.16l-29.26-19.98c-8.41,11.59-21.15,18.24-35.34,18.24-21.44,0-37.66-13.32-42.88-33.89h120.51c6.09-49.25-23.75-97.34-77.63-97.34Zm-43.46,70.98c4.35-22.31,21.15-36.51,43.46-36.51,24.62,0,38.24,17.38,41.71,36.51h-85.17Z"/>
    <path class="cls-1" d="m2393.1,187.46h-96.75v41.91h43.95c-5.12,22.15-23.51,35.43-47.02,35.43-28.62,0-50.77-22.82-50.77-55.86s22.15-56.22,50.77-56.22c18.74,0,31.34,7.49,41.22,19.42l37.48-33.04c-18.06-22.49-48.72-36.11-79.72-36.11-61.25,0-106.85,45.19-106.97,105.72-9.96-21.57-32.47-35.2-71.48-35.2-5.11,0-10.21.34-15.33.69l1.71-18.41h78.36v-49.39h-128.1l-8.17,112.76,1.02.69c17.03-3.07,32.71-5.12,47.36-5.12,29.3,0,45.65,6.82,45.65,25.21,0,17.04-16.02,25.21-38.16,25.21-18.74,0-32.37-3.74-44.97-10.22l-17.03,47.36c16.01,8.18,36.45,12.6,68.13,12.6,53.19,0,84.48-27.51,87.02-69.35,14.3,41.39,52.79,69.35,100.97,69.35,64.72,0,111.74-51.1,100.84-127.41Z"/>
  </g>
  <path class="cls-1" d="m10.82,162.84C5.35,187.79,1.89,210.98.61,231.59c-1.26,20.02-.65,39.55,2.57,58.11,20.08,115.02,122.81,132.66,234.6,104.46,201.71-52.73,189.64-194.24,75.19-312.18C185.76-47.2,54.53-26.23,10.82,162.84Zm159.74,193.75c-26.97,5.53-46.94-5.94-34.98-37.91,11.52-28.99,31.48-32.47,52.46-9.99,23.47,24.46,9.48,42.94-17.48,47.9Zm79.9-188.21c-4.01,1.48-8.48,2.51-12.98,3.49-4.5,1.02-9,1.53-13.5,2.49-6.99,1.02-12.99,2.5-14.97,3.51,0,0-1.99,1-2.73,9.23-.76,8.24-2.77,23.71-4.27,30.44l-1.49,7.24-.48,2.51s0,.51-.76,3.75c-.75,3.23-2.26,9.24-4.23,14.19-11.52,34.98-47.94,41.46-61.94,3.01-12.48-35.44-23.45-119.34-4.49-158.78,10.46-21.47,20.97-23.46,35.93-23.46,23.49,0,47.95,6.97,70.93,20.48,13.99,7.97,31.45,22.46,38.43,37.46,7.98,16.97,3.98,33.95-23.44,44.42Z"/>
  <path class="cls-1" d="m223.48,113.45c-14.44-12.49-27.96-8.99-30.43,10.98-.52,2.5-.52,4.98-.52,7.48,0,2,0,4.02.52,5.99,3.48,11.49,13.97,12.48,25.44,8.48,20.48-6.97,17.98-21.96,5-32.94Z"/>
</svg>