<svg width="61" height="61" viewBox="0 0 61 61" fill="none" xmlns="http://www.w3.org/2000/svg">
<g clip-path="url(#clip0_17_13230)">
<path d="M46.6794 12.4979H43.6056C42.8788 12.4979 42.295 11.9141 42.295 11.1873C42.295 10.4605 42.8788 9.87676 43.6056 9.87676H46.4888V6.85059C46.4888 6.12383 47.0726 5.54004 47.7993 5.54004C48.5261 5.54004 49.1099 6.12383 49.1099 6.85059V10.0674C49.1099 11.4018 48.0257 12.4979 46.6794 12.4979Z" fill="#6EDCFB"/>
<path d="M41.8779 16.501C41.8779 15.7742 42.4617 15.1904 43.1885 15.1904H53.9111C54.6379 15.1904 55.2217 15.7742 55.2217 16.501C55.2217 17.2277 54.6379 17.8115 53.9111 17.8115H43.2004C42.4736 17.8115 41.8898 17.2277 41.8898 16.501H41.8779Z" fill="#6EDCFB"/>
<path d="M42.1759 20.54H46.6794C48.0138 20.54 49.1099 21.6242 49.1099 22.9705V26.1873C49.1099 26.9141 48.5261 27.4979 47.7993 27.4979C47.0726 27.4979 46.4888 26.9141 46.4888 26.1873V23.1611H42.1759C41.4491 23.1611 40.8653 22.5773 40.8653 21.8506C40.8653 21.1238 41.4491 20.54 42.1759 20.54Z" fill="#6EDCFB"/>
<path d="M17.6328 12.4979H14.2016C12.8672 12.4979 11.7711 11.4137 11.7711 10.0674V6.85059C11.7711 6.12383 12.3549 5.54004 13.0816 5.54004C13.8084 5.54004 14.3922 6.12383 14.3922 6.85059V9.87676H17.6328C18.3596 9.87676 18.9434 10.4605 18.9434 11.1873C18.9434 11.9141 18.3596 12.4979 17.6328 12.4979Z" fill="#6EDCFB"/>
<path d="M7.08896 15.1904H17.5376C18.2644 15.1904 18.8481 15.7742 18.8481 16.501C18.8481 17.2277 18.2644 17.8115 17.5376 17.8115H7.08896C6.3622 17.8115 5.77842 17.2277 5.77842 16.501C5.77842 15.7742 6.3622 15.1904 7.08896 15.1904Z" fill="#6EDCFB"/>
<path d="M14.1896 20.54H18.562C19.2888 20.54 19.8726 21.1238 19.8726 21.8506C19.8726 22.5773 19.2888 23.1611 18.562 23.1611H14.3802V26.1873C14.3802 26.9141 13.7964 27.4979 13.0696 27.4979C12.3429 27.4979 11.7591 26.9141 11.7591 26.1873V22.9705C11.7591 21.6361 12.8433 20.54 14.1896 20.54Z" fill="#6EDCFB"/>
<path d="M22.8512 12.8672C24.7693 11.8545 26.3182 10.3057 27.3309 8.3875C27.5572 7.95859 28.01 7.68457 28.4865 7.68457H32.5135C33.002 7.68457 33.4428 7.95859 33.6691 8.3875C34.6699 10.3057 36.2188 11.8545 38.1369 12.8672C38.5658 13.0936 38.8398 13.5463 38.8398 14.0229V14.9164C38.8398 17.2992 38.2203 19.6701 37.0646 21.7551C35.8971 23.84 34.2053 25.6033 32.1799 26.8543L31.1791 27.4619C30.9646 27.593 30.7264 27.6525 30.4881 27.6525C30.2498 27.6525 30.0115 27.593 29.7971 27.4619L28.8082 26.8543C26.7709 25.6033 25.0791 23.84 23.9234 21.7551C22.7559 19.6701 22.1482 17.3111 22.1482 14.9164V14.0348C22.1482 13.5463 22.4223 13.1055 22.8512 12.8791V12.8672ZM24.7693 14.9164C24.7693 16.8584 25.2697 18.7766 26.2109 20.4684C27.1521 22.1602 28.5342 23.6018 30.1902 24.6145L30.5 24.8051L30.8098 24.6145C32.4658 23.6018 33.8359 22.1602 34.7891 20.4684C35.7303 18.7766 36.2307 16.8465 36.2307 14.9164V14.7973C34.3959 13.6893 32.8709 12.1523 31.751 10.3176H29.249C28.141 12.1643 26.6041 13.6893 24.7693 14.8092V14.9283V14.9164Z" fill="#6EDCFB"/>
<path d="M4.13418 36.5045C5.5043 36.2066 6.91016 36.4568 8.08965 37.2193L20.0514 44.9039C20.3373 42.7951 22.0291 40.9723 24.126 40.5434L38.5539 37.398C41.4014 36.7785 44.3203 37.2313 46.8223 38.6848C46.8461 37.3266 47.9541 36.2305 49.3242 36.2305H58.498C59.8801 36.2305 61 37.3504 61 38.7205V58.4979C61 59.8799 59.8801 60.9998 58.498 60.9998H49.3361C47.9541 60.9998 46.8342 59.8799 46.8342 58.4979V57.6758L32.1918 60.7258C31.2982 60.9164 30.3928 60.9998 29.4992 60.9998C27.0211 60.9998 24.5787 60.2969 22.4461 58.9148L2.40664 46.0477C-0.0357399 44.4869 -0.738674 41.2225 0.822071 38.792C1.58457 37.6125 2.75215 36.7904 4.12226 36.4926L4.13418 36.5045ZM49.4553 58.3787H58.3789V38.8516H49.4553V58.3787ZM3.82441 43.8436L23.8639 56.7107C26.1871 58.2 28.9512 58.7123 31.6557 58.1523L46.8342 54.9832V41.7824L45.893 41.1629C43.8676 39.8643 41.4609 39.4353 39.1139 39.9477L24.6859 43.093C23.292 43.367 22.3389 44.8443 22.6725 46.2264C22.9465 47.6203 24.4238 48.5734 25.8059 48.2398L39.2568 45.309C39.9598 45.1541 40.6627 45.6068 40.8176 46.3098C40.9725 47.0127 40.5197 47.7156 39.8168 47.8705L26.3658 50.8014C24.2809 51.2898 21.9576 50.3248 20.8258 48.502L6.67188 39.4115C6.07617 39.0303 5.37324 38.8992 4.69414 39.0541C4.00312 39.209 3.41933 39.6141 3.03809 40.2098C2.25176 41.4369 2.60918 43.0691 3.83633 43.8436H3.82441Z" fill="#F4F4F4"/>
<path d="M47.8231 7.89902C45.6428 7.89902 43.8676 6.12383 43.8676 3.94355C43.8676 1.76328 45.6428 0 47.8231 0C50.0034 0 51.7786 1.7752 51.7786 3.95547C51.7786 6.13574 50.0034 7.91094 47.8231 7.91094V7.89902ZM47.8231 2.62109C47.0844 2.62109 46.4887 3.2168 46.4887 3.95547C46.4887 4.69414 47.0844 5.28984 47.8231 5.28984C48.5618 5.28984 49.1575 4.69414 49.1575 3.95547C49.1575 3.2168 48.5618 2.62109 47.8231 2.62109Z" fill="#F4F4F4"/>
<path d="M47.8231 33.0379C45.6428 33.0379 43.8676 31.2627 43.8676 29.0824C43.8676 26.9021 45.6428 25.127 47.8231 25.127C50.0034 25.127 51.7786 26.9021 51.7786 29.0824C51.7786 31.2627 50.0034 33.0379 47.8231 33.0379ZM47.8231 27.76C47.0844 27.76 46.4887 28.3557 46.4887 29.0943C46.4887 29.833 47.0844 30.4287 47.8231 30.4287C48.5618 30.4287 49.1575 29.833 49.1575 29.0943C49.1575 28.3557 48.5618 27.76 47.8231 27.76Z" fill="#F4F4F4"/>
<path d="M56.9254 20.4568C54.7451 20.4568 52.9699 18.6816 52.9699 16.5014C52.9699 14.3211 54.7451 12.5459 56.9254 12.5459C59.1057 12.5459 60.8809 14.3211 60.8809 16.5014C60.8809 18.6816 59.1057 20.4568 56.9254 20.4568ZM56.9254 15.167C56.1867 15.167 55.591 15.7627 55.591 16.5014C55.591 17.24 56.1867 17.8357 56.9254 17.8357C57.6641 17.8357 58.2598 17.24 58.2598 16.5014C58.2598 15.7627 57.6641 15.167 56.9254 15.167Z" fill="#F4F4F4"/>
<path d="M13.0577 7.89902C10.8774 7.89902 9.10225 6.12383 9.10225 3.94355C9.10225 1.76328 10.8774 0 13.0577 0C15.238 0 17.0132 1.7752 17.0132 3.95547C17.0132 6.13574 15.238 7.91094 13.0577 7.91094V7.89902ZM13.0577 2.62109C12.319 2.62109 11.7233 3.2168 11.7233 3.95547C11.7233 4.69414 12.319 5.28984 13.0577 5.28984C13.7964 5.28984 14.3921 4.69414 14.3921 3.95547C14.3921 3.2168 13.7964 2.62109 13.0577 2.62109Z" fill="#F4F4F4"/>
<path d="M13.0577 25.1387C15.238 25.1387 17.0132 26.9139 17.0132 29.0941C17.0132 31.2744 15.238 33.0496 13.0577 33.0496C10.8774 33.0496 9.10225 31.2744 9.10225 29.0941C9.10225 26.9139 10.8774 25.1387 13.0577 25.1387ZM13.0577 30.4166C13.7964 30.4166 14.3921 29.8209 14.3921 29.0822C14.3921 28.3436 13.7964 27.7479 13.0577 27.7479C12.319 27.7479 11.7233 28.3436 11.7233 29.0822C11.7233 29.8209 12.319 30.4166 13.0577 30.4166Z" fill="#F4F4F4"/>
<path d="M3.94346 20.4568C1.76319 20.4568 -0.0120072 18.6816 -0.0120072 16.5014C-0.0120072 14.3211 1.76319 12.5459 3.94346 12.5459C6.12373 12.5459 7.89893 14.3211 7.89893 16.5014C7.89893 18.6816 6.12373 20.4568 3.94346 20.4568ZM3.94346 15.167C3.20479 15.167 2.60908 15.7627 2.60908 16.5014C2.60908 17.24 3.20479 17.8357 3.94346 17.8357C4.68213 17.8357 5.27783 17.24 5.27783 16.5014C5.27783 15.7627 4.68213 15.167 3.94346 15.167Z" fill="#F4F4F4"/>
<path d="M44.4514 14.9045C44.4514 18.2404 43.5936 21.5525 41.9614 24.4715C40.3291 27.3904 37.9702 29.8566 35.1227 31.608L32.4778 33.2402C31.8702 33.6096 31.1911 33.8002 30.512 33.8002C29.8329 33.8002 29.1538 33.6096 28.5342 33.2402L25.8893 31.608C23.0418 29.8566 20.6829 27.3904 19.0506 24.4715C17.4184 21.5525 16.5606 18.2523 16.5606 14.9045V10.8775C16.5606 9.65039 17.4422 8.62578 18.6575 8.43516C20.8616 8.08965 22.5653 6.38594 22.8989 4.18184C23.0895 2.9666 24.1141 2.08496 25.3413 2.08496H35.6708C36.8979 2.08496 37.9344 2.9666 38.1131 4.18184C38.4586 6.37402 40.1624 8.08965 42.3545 8.43516C43.5698 8.62578 44.4514 9.65039 44.4514 10.8775V14.9045ZM41.8303 11.0086C38.6016 10.4486 36.0997 7.93477 35.5516 4.70605H25.4723C24.9243 7.93477 22.4104 10.4486 19.1817 11.0086V14.9164C19.1817 17.8115 19.9323 20.6709 21.3381 23.2086C22.7559 25.7344 24.7932 27.8789 27.2594 29.392L29.9043 31.0242C30.2737 31.2506 30.7264 31.2506 31.0958 31.0242L33.7407 29.392C36.2069 27.8789 38.2561 25.7344 39.6739 23.2086C41.0916 20.6828 41.8303 17.8115 41.8303 14.9164V11.0086Z" fill="#F4F4F4"/>
</g>
<defs>
<clipPath id="clip0_17_13230">
<rect width="61" height="61" fill="white" transform="matrix(-1 0 0 1 61 0)"/>
</clipPath>
</defs>
</svg>
