<svg width="55" height="72" viewBox="0 0 55 72" fill="none" xmlns="http://www.w3.org/2000/svg">
<path opacity="0.9" fill-rule="evenodd" clip-rule="evenodd" d="M27.3311 71.0519C27.3311 71.0519 1 59.0759 1 28.6399C1 -1.79604 1 1.07213 1 1.07213H53.6621V28.6399C53.6621 59.0759 27.3311 71.0519 27.3311 71.0519Z" fill="#1485FF" stroke="black" stroke-width="0.963171"/>
<path opacity="0.9" fill-rule="evenodd" clip-rule="evenodd" d="M27.3311 71.0519C27.3311 71.0519 1 59.0759 1 28.6399C1 -1.79604 1 1.07213 1 1.07213H53.6621V28.6399C53.6621 59.0759 27.3311 71.0519 27.3311 71.0519Z" fill="#1485FF" stroke="black" stroke-width="0.963171"/>
<path fill-rule="evenodd" clip-rule="evenodd" d="M27.2134 70.6675L26.8713 35.5461C26.8713 35.5461 29.8731 33.8403 31.3028 33.7095C33.1865 33.5372 37.472 35.0305 37.472 35.0305C37.472 35.0305 40.7373 31.8905 41.5053 31.2933C42.6975 30.3663 44.084 29.5686 46.0762 29.2542C48.0684 28.9399 49.9141 29.7945 50.9194 30.9199C51.5966 31.6781 53.4096 33.1473 53.4096 33.1473C50.1344 63.2639 27.3949 70.8482 27.3949 70.8482L27.2134 70.6675Z" fill="#FF713A" stroke="black" stroke-width="0.885269"/>
<path fill-rule="evenodd" clip-rule="evenodd" d="M27.5479 70.7452L27.8899 35.6238L17.2892 35.7397C17.2892 35.7397 14.024 31.9682 13.256 31.371C12.0637 30.444 7.86479 29.5477 3.71779 30.4924C2.15315 30.8488 1.22754 32.3409 1.22754 32.3409C4.50272 62.4575 27.3664 70.9259 27.3664 70.9259L27.5479 70.7452Z" fill="#FF713A" stroke="black" stroke-width="0.885269"/>
<path fill-rule="evenodd" clip-rule="evenodd" d="M25.846 69.7191L26.1337 53.4414L28.3424 53.4515L28.4879 69.9208C28.4879 69.9208 28.0267 70.1536 27.8168 70.2217C27.5997 70.2922 27.0721 70.3777 27.0721 70.3777L25.846 69.7191Z" fill="#FF713A"/>
<path fill-rule="evenodd" clip-rule="evenodd" d="M24.9186 40.0129C24.9186 40.0129 23.32 40.3761 22.6567 40.6028C22.1324 40.7821 21.4441 41.0618 20.9587 41.328L19.4713 42.3453C19.1574 42.3018 18.7539 41.8494 18.7948 41.5372L20.4431 40.3811C20.9685 40.0662 21.6852 39.6559 22.2662 39.4591C23.0257 39.2019 24.8955 38.9667 24.8955 38.9667L24.9186 40.0129Z" fill="black"/>
<path fill-rule="evenodd" clip-rule="evenodd" d="M38.2373 38.757C37.5416 38.6753 36.6126 38.6183 35.6882 38.5242C34.633 38.4169 34.2364 38.4372 33.717 38.3998C33.1228 38.357 32.3273 38.3433 31.7317 38.3519L29.7942 38.4548C29.5702 38.2517 29.5502 37.6734 29.7548 37.4523L31.3249 37.3829C31.8346 37.3746 32.5149 37.3751 33.024 37.4029C33.539 37.4311 34.2016 37.4857 34.716 37.524C35.7205 37.5989 36.4544 37.6706 37.5665 37.8083C38.7647 37.9566 38.882 38.0442 39.2301 38.0964C39.8095 38.1833 40.5972 38.1958 41.1702 38.3175C41.6362 38.4164 42.2228 38.6774 42.6846 38.7941C43.1472 38.9109 43.7837 38.9777 44.2462 39.0945C45.0022 39.2856 45.9948 39.6022 46.7252 39.8748C47.1945 40.0501 47.6009 40.3582 48.0318 40.6133C48.3779 40.8182 49.9645 42.2415 50.0955 42.6201C50.2264 42.9987 49.9228 42.957 49.6485 43.0736C49.2706 43.2343 49.1311 42.8668 48.9891 42.7332L47.2527 41.0991C46.8256 40.6973 45.9784 40.618 45.4223 40.441C44.701 40.2113 43.7259 39.9476 42.9913 39.7648C42.2283 39.5749 41.2023 39.357 40.4315 39.2014C39.7081 39.0555 38.9702 38.843 38.2373 38.757Z" fill="black"/>
<path fill-rule="evenodd" clip-rule="evenodd" d="M44.5172 36.5969C44.2191 39.7363 44.8825 40.5286 45.6539 41.35C46.7239 42.4895 46.42 41.97 47.257 41.405C48.3074 40.6958 49.8064 38.4291 50.0212 37.5236C50.4433 35.7442 50.1899 33.9871 48.7374 33.4913C47.285 32.9954 44.7845 33.7827 44.5172 36.5969Z" fill="#008D58" stroke="black" stroke-width="0.230966" stroke-linecap="round" stroke-linejoin="round"/>
<path fill-rule="evenodd" clip-rule="evenodd" d="M42.2951 41.5383C40.2124 44.1688 40.3052 45.2436 40.4713 46.4045C40.7017 48.0147 40.7506 47.383 41.7812 47.3452C43.0746 47.2979 45.6529 46.1127 46.3613 45.4257C47.7537 44.0755 48.5675 42.3693 47.6412 41.1196C46.7149 39.8699 44.162 39.1801 42.2951 41.5383Z" fill="#008D58" stroke="black" stroke-width="0.238968" stroke-linecap="round" stroke-linejoin="round"/>
<path fill-rule="evenodd" clip-rule="evenodd" d="M36.8915 47.3855C36.3393 50.4989 36.977 51.339 37.7259 52.2162C38.7647 53.4329 38.4845 52.8918 39.4078 52.389C40.5665 51.758 42.3153 49.6043 42.61 48.7159C43.1892 46.9697 43.0562 45.1962 41.5662 44.5941C40.0762 43.9921 37.3864 44.5944 36.8915 47.3855Z" fill="#008D58" stroke="black" stroke-width="0.237351" stroke-linecap="round" stroke-linejoin="round"/>
<path fill-rule="evenodd" clip-rule="evenodd" d="M35.4379 51.7883C33.5791 54.8033 33.7348 56.0186 33.9668 57.3301C34.2887 59.1492 34.2975 58.433 35.2945 58.3723C36.5459 58.296 38.9736 56.9089 39.6186 56.1186C40.8863 54.5654 41.5711 52.6194 40.5965 51.2206C39.6218 49.8219 37.1041 49.0857 35.4379 51.7883Z" fill="#008D58" stroke="black" stroke-width="0.250519" stroke-linecap="round" stroke-linejoin="round"/>
<path fill-rule="evenodd" clip-rule="evenodd" d="M30.9399 57.0544C28.1506 59.3008 28.008 60.3858 27.9235 61.5692C27.8064 63.2108 27.9995 62.5914 29.0968 62.7364C30.4739 62.9183 33.4632 62.1965 34.3655 61.639C36.1389 60.5432 37.3807 58.9912 36.6818 57.5848C35.983 56.1784 33.4403 55.0407 30.9399 57.0544Z" fill="#008D58" stroke="black" stroke-width="0.249485" stroke-linecap="round" stroke-linejoin="round"/>
<path d="M37.8537 49.0738L36.634 46.1396" stroke="black" stroke-width="0.302429"/>
<path d="M39.6716 48.1413L40.3475 46.1646" stroke="black" stroke-width="0.302429"/>
<path d="M41.7703 46.3789L42.7452 44.7202" stroke="black" stroke-width="0.302429"/>
<path d="M38.6944 46.1109L37.4326 44.2935" stroke="black" stroke-width="0.377474"/>
<path d="M42.2109 48.9696L43.7701 48.1875" stroke="black" stroke-width="0.302429"/>
<path d="M39.4209 50.5202L40.3689 49.3057" stroke="black" stroke-width="0.302429"/>
<path d="M34.6438 54.8788L34.6462 51.458" stroke="black" stroke-width="0.0638581"/>
<path d="M38.2903 54.3352L39.7949 53.2046" stroke="black" stroke-width="0.0638581"/>
<path d="M40.7122 53.7206L42.3901 52.519" stroke="black" stroke-width="0.0638581"/>
<path d="M36.7024 52.3247L36.1946 50.0322" stroke="black" stroke-width="0.0638581"/>
<path d="M39.0437 56.5718L40.9421 56.4658" stroke="black" stroke-width="0.0638581"/>
<path d="M35.5889 56.463L37.3606 55.7241" stroke="black" stroke-width="0.0638581"/>
<path d="M42.903 43.7806L42.7842 41.8379" stroke="black" stroke-width="0.0638581"/>
<path d="M44.3999 42.6723L44.4671 40.5815" stroke="black" stroke-width="0.0638581"/>
<path d="M47.1413 45.6602L46.3264 44.6006" stroke="black" stroke-width="0.0638581"/>
<path d="M45.1682 43.7246L43.8831 44.4521" stroke="black" stroke-width="0.0638581"/>
<path d="M44.7305 45.7612L45.2381 47.0209" stroke="black" stroke-width="0.0638581"/>
<path d="M45.4888 42.469L47.1848 42.0225" stroke="black" stroke-width="0.0638581"/>
<path d="M38.023 53.5464L38.0146 50.8369" stroke="black" stroke-width="0.302429"/>
<path d="M43.261 41.3437L42.8596 40.3428" stroke="black" stroke-width="0.323754"/>
<path d="M46.8872 37.2981L46.9516 35.6206" stroke="black" stroke-width="0.0638581"/>
<path d="M46.1444 34.5855L45.7061 32.8535" stroke="black" stroke-width="0.468563"/>
<path d="M47.9207 34.0292L47.9879 31.9385" stroke="black" stroke-width="0.224638"/>
<path d="M49.6943 37.541L48.0657 38.5287" stroke="black" stroke-width="0.407594"/>
<path d="M49.4482 35.1648L51.1442 34.7183" stroke="black" stroke-width="0.377474"/>
<path d="M45.7947 40.1891L46.3249 38.7139" stroke="black" stroke-width="0.414422"/>
<path d="M43.6448 36.4854L45.0113 37.5952" stroke="black" stroke-width="0.0638581"/>
<path d="M31.9321 56.9129L32.4224 55.479" stroke="black" stroke-width="0.242477"/>
<path d="M36.9679 60.0974L35.0505 59.5234" stroke="black" stroke-width="0.341443"/>
<path d="M32.5803 61.5806L33.0424 63.4191" stroke="black" stroke-width="0.348612"/>
<path d="M34.4419 58.4589L34.7633 56.4639" stroke="black" stroke-width="0.34732"/>
<path d="M31.6296 60.1216L32.6607 58.4634" stroke="black" stroke-width="0.0638581"/>
<path d="M34.2737 60.8628L35.6494 62.1731" stroke="black" stroke-width="0.0638581"/>
<path fill-rule="evenodd" clip-rule="evenodd" d="M9.68907 36.0603C9.98722 39.1997 9.32375 39.992 8.55236 40.8134C7.48239 41.9528 7.78628 41.4334 6.94928 40.8683C5.89886 40.1592 4.3999 37.8924 4.18511 36.987C3.76297 35.2076 4.01641 33.4505 5.46886 32.9547C6.92131 32.4588 9.42179 33.2461 9.68907 36.0603Z" fill="#008D58" stroke="black" stroke-width="0.230966" stroke-linecap="round" stroke-linejoin="round"/>
<path fill-rule="evenodd" clip-rule="evenodd" d="M11.911 41.0016C13.9936 43.6322 13.9009 44.707 13.7348 45.8679C13.5044 47.4781 13.4555 46.8463 12.4249 46.8086C11.1315 46.7613 8.55318 45.5761 7.84471 44.8891C6.45233 43.5388 5.63854 41.8327 6.56487 40.583C7.4912 39.3333 10.0441 38.6435 11.911 41.0016Z" fill="#008D58" stroke="black" stroke-width="0.238968" stroke-linecap="round" stroke-linejoin="round"/>
<path fill-rule="evenodd" clip-rule="evenodd" d="M17.3151 46.8489C17.8672 49.9623 17.2296 50.8024 16.4806 51.6796C15.4418 52.8963 15.722 52.3552 14.7987 51.8524C13.64 51.2213 11.8912 49.0677 11.5965 48.1792C11.0173 46.4331 11.1504 44.6596 12.6403 44.0575C14.1303 43.4555 16.8201 44.0578 17.3151 46.8489Z" fill="#008D58" stroke="black" stroke-width="0.237351" stroke-linecap="round" stroke-linejoin="round"/>
<path fill-rule="evenodd" clip-rule="evenodd" d="M18.7684 51.2517C20.6271 54.2666 20.4715 55.482 20.2395 56.7935C19.9176 58.6126 19.9088 57.8964 18.9118 57.8356C17.6604 57.7594 15.2327 56.3722 14.5877 55.5819C13.32 54.0288 12.6352 52.0827 13.6098 50.684C14.5845 49.2853 17.1022 48.549 18.7684 51.2517Z" fill="#008D58" stroke="black" stroke-width="0.250519" stroke-linecap="round" stroke-linejoin="round"/>
<path fill-rule="evenodd" clip-rule="evenodd" d="M23.2662 56.5173C26.0555 58.7637 26.1981 59.8487 26.2825 61.0321C26.3997 62.6737 26.2065 62.0543 25.1093 62.1993C23.7322 62.3812 20.7428 61.6594 19.8405 61.1019C18.0671 60.0061 16.8254 58.4541 17.5242 57.0477C18.2231 55.6413 20.7657 54.5036 23.2662 56.5173Z" fill="#008D58" stroke="black" stroke-width="0.249485" stroke-linecap="round" stroke-linejoin="round"/>
<path d="M16.3524 48.5372L17.572 45.603" stroke="black" stroke-width="0.0638581"/>
<path d="M14.5344 47.6047L13.8586 45.6279" stroke="black" stroke-width="0.0638581"/>
<path d="M12.4358 45.8423L11.4609 44.1836" stroke="black" stroke-width="0.0638581"/>
<path d="M15.5121 45.5743L16.7739 43.7568" stroke="black" stroke-width="0.0638581"/>
<path d="M11.9951 48.433L10.4359 47.6509" stroke="black" stroke-width="0.0638581"/>
<path d="M14.7854 49.9836L13.8374 48.769" stroke="black" stroke-width="0.0638581"/>
<path d="M19.5623 54.3426L19.5599 50.9219" stroke="black" stroke-width="0.302429"/>
<path d="M15.9158 53.7985L14.4111 52.668" stroke="black" stroke-width="0.302429"/>
<path d="M13.4941 53.184L11.8162 51.9824" stroke="black" stroke-width="0.302429"/>
<path d="M17.5039 51.7881L18.0117 49.4956" stroke="black" stroke-width="0.302429"/>
<path d="M15.1624 56.0352L13.264 55.9292" stroke="black" stroke-width="0.302429"/>
<path d="M18.6174 55.9264L16.8457 55.1875" stroke="black" stroke-width="0.302429"/>
<path d="M11.3033 43.244L11.4221 41.3013" stroke="black" stroke-width="0.258361"/>
<path d="M9.8064 42.1361L9.73919 40.0454" stroke="black" stroke-width="0.224638"/>
<path d="M7.0648 45.1236L7.87964 44.064" stroke="black" stroke-width="0.302429"/>
<path d="M9.03785 43.188L10.323 43.9155" stroke="black" stroke-width="0.310749"/>
<path d="M9.47583 45.2246L8.96824 46.4843" stroke="black" stroke-width="0.302429"/>
<path d="M8.71753 41.9324L7.02153 41.4858" stroke="black" stroke-width="0.377474"/>
<path d="M16.1833 53.0098L16.1917 50.3003" stroke="black" stroke-width="0.0638581"/>
<path d="M10.9453 40.8075L11.3467 39.8066" stroke="black" stroke-width="0.0638581"/>
<path d="M7.31909 36.762L7.25467 35.0845" stroke="black" stroke-width="0.302429"/>
<path d="M8.06161 34.0489L8.5 32.3169" stroke="black" stroke-width="0.0638581"/>
<path d="M6.28564 33.4926L6.21844 31.4019" stroke="black" stroke-width="0.0638581"/>
<path d="M4.51178 37.0044L6.14038 37.9921" stroke="black" stroke-width="0.0638581"/>
<path d="M4.75806 34.6287L3.06206 34.1821" stroke="black" stroke-width="0.0638581"/>
<path d="M8.41162 39.6525L7.88137 38.1772" stroke="black" stroke-width="0.0638581"/>
<path d="M10.5615 35.9492L9.19497 37.0591" stroke="black" stroke-width="0.390229"/>
<path d="M22.2739 56.3763L21.7836 54.9424" stroke="black" stroke-width="0.0638581"/>
<path d="M17.2384 59.5608L19.1558 58.9868" stroke="black" stroke-width="0.0638581"/>
<path d="M21.626 61.0444L21.1639 62.8829" stroke="black" stroke-width="0.0638581"/>
<path d="M19.7642 57.9228L19.4428 55.9277" stroke="black" stroke-width="0.0638581"/>
<path d="M22.5767 59.585L21.5456 57.9268" stroke="black" stroke-width="0.308937"/>
<path d="M19.9324 60.3262L18.5566 61.6365" stroke="black" stroke-width="0.306302"/>
<path d="M31.039 9.37549H23.5361V52.1468H31.039V9.37549Z" fill="white" stroke="black" stroke-width="0.436596"/>
<path d="M27.6372 11.2432H26.7966V52.0779H27.6372V11.2432Z" fill="black"/>
<path fill-rule="evenodd" clip-rule="evenodd" d="M40.2975 41.4325L35.5073 41.4918C35.5073 41.4918 35.3187 40.5689 35.471 40.2173C35.6505 39.8029 36.2391 39.4861 36.6003 39.2107C36.9055 38.978 37.3088 38.6344 37.6747 38.5144C38.0083 38.4049 38.6021 38.6955 38.8444 38.444C39.164 38.1122 39.1174 37.2992 38.8612 36.9176C38.5336 36.4299 37.509 36.5268 37.0329 36.1782C36.6268 35.8809 36.1995 35.332 35.9687 34.8879C35.7663 34.4984 35.6021 33.9168 35.582 33.4795C35.5624 33.0509 35.6783 32.472 35.833 32.0711C35.9973 31.6457 36.3054 31.092 36.642 30.7808C36.8426 30.5953 37.451 30.3562 37.451 30.3562C37.451 30.3562 37.1153 29.9291 36.9049 29.853C36.9049 29.853 34.6631 29.8435 33.723 30.0065C33.3666 30.0683 32.8914 30.1879 32.5737 30.3568C31.5808 30.8846 30.5083 31.9688 29.6707 32.7141C28.7868 33.5007 27.7603 34.7112 26.8475 35.465C26.1648 36.0288 25.1959 36.7175 24.4229 37.1533C23.8439 37.4796 23.0429 37.8926 22.3968 38.0545C21.7827 38.2083 19.9322 38.2867 19.9322 38.2867C19.9322 38.2867 20.2616 36.8269 20.4918 36.5444C20.7059 36.2817 21.8302 35.8735 21.8302 35.8735C21.8302 35.8735 20.7815 36.1176 20.4705 36.4266C19.861 37.0324 19.7375 38.2836 19.3899 39.0655C19.0971 39.7242 18.7562 40.6355 18.3491 41.2321C18.022 41.7114 17.5588 42.4046 17.0293 42.651C16.5777 42.8612 15.3673 42.7381 15.3673 42.7381L13.7053 42.8251L13.7052 40.9758C13.7052 40.9758 14.7898 40.676 15.2195 40.4645C15.6201 40.2674 16.2392 40.0257 16.4549 39.6384C16.8354 38.9554 16.5345 37.0414 16.5345 37.0414C16.5345 37.0414 14.6411 36.3856 13.9836 36.0188C13.3152 35.6459 12.4381 34.8936 12.2157 34.0955C11.9859 33.271 11.5012 33.0172 12.177 31.2377C12.177 31.2377 12.3414 30.274 11.0876 32.094C10.0805 33.5558 10.9562 31.8307 10.7475 30.7944C10.2128 28.1393 13.3367 24.333 11.9791 25.1432C10.6606 25.93 10.7128 25.9072 10.7128 25.9072C10.7128 25.9072 11.3789 23.7677 11.7212 23.1424C11.9607 22.7049 12.4744 22.2472 12.8471 21.9126C13.2359 21.5636 13.7829 21.1136 14.2519 20.8797L15.019 19.8471L12.9863 20.5951C12.7113 20.3595 13.052 19.729 13.2453 19.4244C13.4997 19.0237 14.0893 18.6925 14.5007 18.4505C14.7526 18.3023 15.3974 18.0668 15.3974 18.0668C15.3974 18.0668 15.1964 16.9871 15.1857 16.5186C15.1744 16.0286 15.2413 15.3732 15.3327 14.8916C15.4412 14.3197 15.4011 13.3699 15.8782 13.0285C16.0592 12.8989 16.4431 12.9232 16.623 13.0543C16.9657 13.3041 16.876 14.0144 17.0888 14.3788C17.2596 14.6713 17.5259 15.0835 17.8335 15.231C18.2285 15.4204 18.871 15.4063 19.2957 15.2962C19.7657 15.1743 20.2763 14.7308 20.6691 14.4484C21.1425 14.1081 21.7652 13.6322 22.1621 13.2071C22.476 12.871 22.6517 12.1862 23.0573 11.9658C23.3558 11.8036 23.9124 11.7121 24.1916 11.9051C24.7798 12.3117 24.4726 13.5876 24.8875 14.1662C25.1988 14.6004 25.9947 14.8035 26.3345 15.2162C26.7215 15.6863 26.8236 16.5628 27.1837 17.0533C27.5015 17.4862 28.2771 17.7786 28.5112 18.2607C28.841 18.9402 28.3521 20.0877 28.6828 20.7668C28.9029 21.2186 29.7578 21.4242 29.9306 21.8955C30.073 22.2841 29.9291 22.8202 29.624 23.103C29.2946 23.4083 28.6119 23.5125 28.2812 23.2085C28.0025 22.9523 28.093 23.0856 27.3163 22.6363C27.0229 22.4667 26.9915 22.5094 26.5386 22.3908C26.0857 22.2722 25.7014 22.1959 25.0965 22.1631C23.8868 22.0974 22.5521 22.5205 22.3659 22.497C22.3659 22.497 20.9065 22.0281 20.3249 22.4365C20.0315 22.6425 19.881 22.7276 19.7585 23.0449C19.6072 23.4365 19.6617 24.3702 19.8297 24.7552C20.0884 25.3475 20.7949 25.9464 21.3358 26.308C21.7905 26.6121 22.4946 26.8801 23.0335 26.9842C23.7094 27.1148 24.6504 27.1065 25.3291 26.9914C26.1626 26.85 27.2147 26.4023 27.9834 26.0541C28.9033 25.6374 30.0794 24.97 30.9166 24.4085C31.4824 24.029 31.4858 24.0236 32.6941 22.9989C34.0439 21.8542 35.5032 21.7063 37.9453 21.5998C40.6016 21.4817 42.5192 22.428 43.0841 22.5415C45.2793 22.9827 44.881 23.792 45.3301 22.7231C45.4506 22.2225 45.433 21.4853 45.433 21.4853C45.433 21.4853 45.2638 20.3724 45.0908 19.6962C44.9403 19.1081 44.46 18.4195 44.1079 17.9224C43.7061 17.3552 43.1262 16.6053 42.567 16.1879C41.9773 15.7478 41.0219 15.4294 40.3418 15.1436C39.9205 14.9664 39.3521 14.7419 38.9138 14.6108C38.5537 14.5032 38.0645 14.383 37.6918 14.3324C36.7751 14.2079 35.5353 14.1505 34.611 14.1906C34.0408 14.2154 32.7258 14.4424 32.7258 14.4424C32.7258 14.4424 32.9971 13.7577 33.1921 13.5136C33.4882 13.1431 34.4178 12.978 34.4157 12.5061C34.4146 12.2833 34.0509 12.0961 33.8338 12.0356C33.1531 11.8461 30.4351 11.3571 29.7298 11.4081C28.4705 11.4993 29.0127 10.8365 27.7527 10.7555C26.9864 10.7063 25.3396 11.7435 24.5783 11.6439C23.7953 11.5415 22.9287 11.7927 22.1423 11.7209C21.3365 11.6472 20.2495 11.6812 19.45 11.5581C18.5779 11.4239 17.4211 11.1597 16.5983 10.8445C15.7692 10.5269 14.6965 9.98939 13.9857 9.46182C13.4039 9.03003 12.2903 7.74828 12.2903 7.74828C12.2903 7.74828 13.3095 8.08433 13.7595 8.17582C14.3359 8.29296 15.7071 8.40659 15.7071 8.40659C15.7071 8.40659 15.0506 7.39958 14.7452 6.98454C14.4486 6.58147 13.7036 5.68055 13.7036 5.68055C13.7036 5.68055 16.0661 6.89745 17.1546 7.21731C18.5854 7.63773 20.5852 7.834 22.0711 7.97491C23.2708 8.08866 26.0858 8.12032 26.0858 8.12032C26.0858 8.12032 24.4521 7.63259 23.8497 7.23895C23.4558 6.9815 22.7409 6.13497 22.7409 6.13497C22.7409 6.13497 26.5524 5.86165 28.1886 5.87488C29.8432 5.88825 32.0651 5.93234 33.6926 6.22697C34.5043 6.37391 36.3222 7.0243 36.3222 7.0243L36.1623 3.3418C36.1623 3.3418 38.5094 6.17338 39.7224 7.17252C40.8144 8.07206 42.7035 8.69911 43.7334 9.66756C44.6147 10.4964 46.0606 12.9488 46.0606 12.9488C46.0606 12.9488 46.2327 11.7359 46.4716 11.2768C47.1143 10.0412 49.5316 7.76832 49.5316 7.76832C49.5316 7.76832 49.3619 10.2014 49.3384 11.2461C49.3175 12.1724 49.0878 13.4509 49.3707 14.3343C49.6458 15.1936 49.9464 16.1699 50.174 18.4518C50.4873 21.5915 47.9986 24.4518 46.0209 26.8049C45.1254 27.8704 44.3301 28.3067 43.0899 30.3741C42.4759 31.3978 43.0598 32.5179 43.428 33.4894C43.7158 34.2484 44.2916 34.2228 44.23 34.6365C44.1108 35.4379 42.6097 35.6927 42.0947 36.3232C41.5476 36.993 41.0818 38.077 40.8016 38.8918C40.5486 39.6272 40.2975 41.4325 40.2975 41.4325Z" fill="#DF0000" stroke="black" stroke-width="0.357123"/>
<path fill-rule="evenodd" clip-rule="evenodd" d="M22.3201 16.2376C22.3201 16.2376 23.5099 16.1325 23.9931 16.2636C24.3232 16.3532 24.7317 16.5931 24.978 16.8233C25.1466 16.9808 25.2986 17.2551 25.3963 17.461C25.5124 17.7058 25.6661 18.3199 25.6661 18.3199C25.6661 18.3199 24.7936 18.3261 24.4248 18.2744C24.1106 18.2302 23.6742 18.1742 23.3994 18.0206C23.1282 17.869 22.8321 17.5576 22.6709 17.2983C22.4928 17.0119 22.3201 16.2376 22.3201 16.2376Z" stroke="black" stroke-width="0.412528"/>
<path fill-rule="evenodd" clip-rule="evenodd" d="M30.988 11.7913L23.9392 11.8636L27.0834 2.70801L30.988 11.7913Z" fill="white" stroke="black" stroke-width="0.287269" stroke-linecap="round" stroke-linejoin="round"/>
<path fill-rule="evenodd" clip-rule="evenodd" d="M24.553 12.2406C24.4493 12.0393 24.1353 11.8193 24.1353 11.8193L24.9258 9.42998L29.7803 9.40332L30.8206 11.6168C30.8322 11.701 30.7732 12.7162 30.7848 12.8235L28.1001 12.8436L27.8727 12.0891L26.5767 12.0935L26.5749 13.4083L24.8192 13.0601C24.8192 13.0601 24.6719 12.4714 24.553 12.2406Z" fill="white"/>
<path d="M29.9012 52.9351H24.0483C23.6514 52.9351 23.3296 53.0232 23.3296 53.1319V63.5163C23.3296 63.625 23.6514 63.7132 24.0483 63.7132H29.9012C30.2981 63.7132 30.6199 63.625 30.6199 63.5163V53.1319C30.6199 53.0232 30.2981 52.9351 29.9012 52.9351Z" fill="white" stroke="black" stroke-width="0.542842"/>
<path fill-rule="evenodd" clip-rule="evenodd" d="M29.7058 53.4723L23.1798 56.5094C22.9623 56.3572 23.4101 56.0362 23.4989 55.7266L29.3603 53.0791C29.5778 53.2313 29.7445 52.9264 29.6557 53.236L29.7058 53.4723Z" fill="black"/>
<path fill-rule="evenodd" clip-rule="evenodd" d="M30.7288 55.0639L23.2827 58.5495C22.9975 58.314 23.3127 58.3141 23.3652 57.8809L30.7742 54.3506L30.7288 55.0639Z" fill="black"/>
<path fill-rule="evenodd" clip-rule="evenodd" d="M21.0404 53.9892C20.3617 53.6398 20.1116 52.9733 20.0915 52.3348C20.0693 51.6298 20.6027 51.0392 21.0327 50.8433H33.0353C33.4404 51.097 33.7262 51.541 33.7412 52.2805C33.7565 53.0285 33.6198 53.9194 33.0898 53.9224L21.0404 53.9892Z" fill="white" stroke="black" stroke-width="0.513027" stroke-linecap="round" stroke-linejoin="round"/>
<path d="M32.8593 52.2258L21.1714 52.2316C20.7526 52.2318 20.4131 52.2572 20.4131 52.2885L20.4132 52.3663C20.4132 52.3975 20.7527 52.4226 21.1715 52.4224L32.8594 52.4166C33.2782 52.4164 33.6177 52.391 33.6176 52.3597L33.6176 52.2819C33.6176 52.2507 33.2781 52.2256 32.8593 52.2258Z" fill="#E2DB2A" stroke="black" stroke-width="0.555453" stroke-linecap="round" stroke-linejoin="round"/>
<path d="M32.1991 63.8994H21.5915C21.2094 63.8994 20.8997 64.2748 20.8997 64.7378V65.5908C20.8997 66.0538 21.2094 66.4292 21.5915 66.4292H32.1991C32.5812 66.4292 32.891 66.0538 32.891 65.5908V64.7378C32.891 64.2748 32.5812 63.8994 32.1991 63.8994Z" fill="white" stroke="black" stroke-width="0.561155"/>
<path fill-rule="evenodd" clip-rule="evenodd" d="M30.6788 57.4272L23.2326 60.9128C22.9474 60.6773 23.2627 60.6774 23.3151 60.2442L30.7242 56.7139L30.6788 57.4272Z" fill="black"/>
<path fill-rule="evenodd" clip-rule="evenodd" d="M30.6788 59.79L23.2326 63.2756C22.9474 63.0401 23.2627 63.0402 23.3151 62.607L30.7242 59.0767L30.6788 59.79Z" fill="black"/>
</svg>
