<svg width="1140" height="650" viewBox="0 0 1140 650" fill="none" xmlns="http://www.w3.org/2000/svg">
<mask id="mask0_9_375" style="mask-type:luminance" maskUnits="userSpaceOnUse" x="0" y="0" width="1140" height="650">
<path d="M1140 0H0V650H1140V0Z" fill="white"/>
</mask>
<g mask="url(#mask0_9_375)">
<mask id="mask1_9_375" style="mask-type:luminance" maskUnits="userSpaceOnUse" x="0" y="0" width="1140" height="650">
<path d="M1140 0H0V650H1140V0Z" fill="white"/>
</mask>
<g mask="url(#mask1_9_375)">
<g style="mix-blend-mode:screen" opacity="0.4">
<mask id="mask2_9_375" style="mask-type:luminance" maskUnits="userSpaceOnUse" x="-9" y="-8" width="1158" height="659">
<path d="M1149 -8H-9V651H1149V-8Z" fill="white"/>
</mask>
<g mask="url(#mask2_9_375)">
<mask id="mask3_9_375" style="mask-type:luminance" maskUnits="userSpaceOnUse" x="0" y="0" width="1140" height="650">
<path d="M1140 0H0V650H1140V0Z" fill="white"/>
</mask>
<g mask="url(#mask3_9_375)">
<path d="M799.99 652.98C758.75 672.71 788.76 735.44 829.99 715.72C871.36 695.93 841.38 633.18 799.99 652.98Z" fill="#008DFE"/>
<path d="M799.4 649.94C758.12 669.69 788.16 732.48 829.43 712.73C870.84 692.93 840.83 630.12 799.4 649.94Z" fill="#008DFE"/>
<path d="M798.77 646.9C757.46 666.66 787.52 729.51 828.83 709.75C870.27 689.93 840.23 627.07 798.77 646.9Z" fill="#008DFE"/>
<path d="M798.09 643.87C756.74 663.65 786.83 726.55 828.18 706.77C869.66 686.93 839.59 624.02 798.09 643.87Z" fill="#008EFE"/>
<path d="M797.38 640.85C755.99 660.65 786.11 723.6 827.49 703.81C869 683.96 838.91 620.98 797.38 640.85Z" fill="#008EFE"/>
<path d="M796.62 637.83C755.2 657.64 785.34 720.66 826.76 700.85C868.31 680.97 838.2 617.94 796.62 637.83Z" fill="#008EFE"/>
<path d="M795.83 634.83C754.37 654.66 784.54 717.73 825.99 697.9C867.58 678 837.44 614.92 795.83 634.83Z" fill="#008EFE"/>
<path d="M794.99 631.83C753.49 651.68 783.69 714.8 825.18 694.96C866.8 675.05 836.63 611.91 794.99 631.83Z" fill="#008EFE"/>
<path d="M794.12 628.84C752.59 648.7 782.81 711.89 824.34 692.02C866 672.09 835.81 608.9 794.12 628.84Z" fill="#008EFE"/>
<path d="M793.2 625.86C751.63 645.74 781.88 708.98 823.44 689.1C865.14 669.15 834.91 605.91 793.2 625.86Z" fill="#008EFE"/>
<path d="M792.25 622.89C750.64 642.79 780.92 706.08 822.52 686.18C864.25 666.22 834 602.91 792.25 622.89Z" fill="#008EFE"/>
<path d="M791.25 619.93C749.61 639.85 779.91 703.19 821.55 683.28C863.32 663.3 833.04 599.94 791.25 619.93Z" fill="#008EFE"/>
<path d="M790.22 616.98C748.55 636.92 778.87 700.32 820.55 680.38C862.35 660.38 832.05 596.97 790.22 616.98Z" fill="#008EFE"/>
<path d="M789.15 614.05C747.44 634 777.79 697.46 819.5 677.51C861.34 657.5 831.01 594.03 789.15 614.05Z" fill="#008FFE"/>
<path d="M788.04 611.12C746.29 631.09 776.67 694.6 818.42 674.63C860.3 654.6 829.94 591.07 788.04 611.12Z" fill="#008FFE"/>
<path d="M786.9 608.21C745.12 628.2 775.52 691.76 817.3 671.78C859.21 651.73 828.83 588.16 786.9 608.21Z" fill="#008FFE"/>
<path d="M785.71 605.31C743.89 625.32 774.32 688.93 816.14 668.93C858.09 648.86 827.68 585.23 785.71 605.31Z" fill="#008FFE"/>
<path d="M784.49 602.43C742.63 622.45 773.09 686.13 814.94 666.11C856.93 646.03 826.49 582.34 784.49 602.43Z" fill="#008FFE"/>
<path d="M783.24 599.56C741.34 619.6 771.83 683.33 813.72 663.29C855.74 643.19 825.28 579.45 783.24 599.56Z" fill="#008FFE"/>
<path d="M781.94 596.71C740.01 616.77 770.52 680.55 812.45 660.5C854.5 640.38 824.02 576.58 781.94 596.71Z" fill="#008FFE"/>
<path d="M780.61 593.87C738.64 613.94 769.18 677.78 811.14 657.71C853.23 637.58 822.72 573.72 780.61 593.87Z" fill="#008FFE"/>
<path d="M779.25 591.04C737.24 611.13 767.81 675.03 809.81 654.94C851.94 634.79 821.4 570.88 779.25 591.04Z" fill="#008FFE"/>
<path d="M777.85 588.24C735.81 608.35 766.4 672.3 808.44 652.19C850.6 632.02 820.04 568.06 777.85 588.24Z" fill="#0090FE"/>
<path d="M776.41 585.45C734.34 605.57 764.95 669.58 807.02 649.46C849.22 629.28 818.63 565.25 776.41 585.45Z" fill="#0090FE"/>
<path d="M774.95 582.68C732.84 602.82 763.49 666.89 805.59 646.74C847.83 626.54 817.21 562.46 774.95 582.68Z" fill="#0090FE"/>
<path d="M773.44 579.92C731.29 600.08 761.96 664.2 804.11 644.04C846.38 623.82 815.73 559.69 773.44 579.92Z" fill="#0090FE"/>
<path d="M771.9 577.19C729.72 597.37 760.41 661.54 802.59 641.36C844.9 621.13 814.23 556.94 771.9 577.19Z" fill="#0090FE"/>
<path d="M770.33 574.47C728.11 594.66 758.83 658.89 801.05 638.7C843.39 618.44 812.7 554.2 770.33 574.47Z" fill="#0090FE"/>
<path d="M768.73 571.78C726.47 591.99 757.22 656.28 799.48 636.07C841.86 615.79 811.14 551.5 768.73 571.78Z" fill="#0090FE"/>
<path d="M767.09 569.11C724.8 589.34 755.57 653.68 797.86 633.45C840.28 613.16 809.53 548.81 767.09 569.11Z" fill="#0090FE"/>
<path d="M765.42 566.45C723.09 586.7 753.9 651.09 796.22 630.85C838.67 610.54 807.9 546.13 765.42 566.45Z" fill="#0090FE"/>
<path d="M763.71 563.82C721.34 584.08 752.18 648.53 794.53 628.27C837.02 607.94 806.22 543.48 763.71 563.82Z" fill="#0090FE"/>
<path d="M761.98 561.21C719.58 581.49 750.43 645.99 792.83 625.72C835.36 605.37 804.52 540.86 761.98 561.21Z" fill="#0091FD"/>
<path d="M760.21 558.62C717.77 578.92 748.65 643.48 791.09 623.18C833.65 602.82 802.79 538.25 760.21 558.62Z" fill="#0091FD"/>
<path d="M758.41 556.06C715.93 576.38 746.84 640.99 789.31 620.68C831.91 600.3 801.03 535.68 758.41 556.06Z" fill="#0091FD"/>
<path d="M756.59 553.52C714.08 573.85 745.01 638.52 787.52 618.19C830.16 597.8 799.25 533.11 756.59 553.52Z" fill="#0091FD"/>
<path d="M754.72 551C712.18 571.35 743.14 636.08 785.68 615.73C828.35 595.32 797.41 530.58 754.72 551Z" fill="#0091FD"/>
<path d="M752.83 548.51C710.25 568.88 741.23 633.66 783.81 613.29C826.52 592.86 795.55 528.07 752.83 548.51Z" fill="#0091FD"/>
<path d="M750.91 546.05C708.29 566.44 739.3 631.27 781.92 610.89C824.66 590.44 793.68 525.6 750.91 546.05Z" fill="#0091FD"/>
<path d="M748.96 543.61C706.3 564.01 737.34 628.9 779.99 608.5C822.77 588.04 791.75 523.13 748.96 543.61Z" fill="#0091FD"/>
<path d="M746.98 541.2C704.29 561.62 735.36 626.57 778.04 606.15C820.86 585.67 789.81 520.71 746.98 541.2Z" fill="#0091FD"/>
<path d="M744.97 538.81C702.24 559.25 733.34 624.25 776.06 603.81C818.91 583.32 787.84 518.3 744.97 538.81Z" fill="#0092FD"/>
<path d="M742.94 536.45C700.17 556.91 731.3 621.96 774.05 601.51C816.94 581 785.84 515.93 742.94 536.45Z" fill="#0092FD"/>
<path d="M740.87 534.12C698.07 554.59 729.22 619.71 772.01 599.23C814.93 578.7 783.81 513.57 740.87 534.12Z" fill="#0092FD"/>
<path d="M738.77 531.82C695.93 552.31 727.1 617.47 769.94 596.99C812.9 576.44 781.75 511.26 738.77 531.82Z" fill="#0092FD"/>
<path d="M736.65 529.55C693.77 550.05 724.98 615.28 767.85 594.77C810.84 574.21 779.67 508.97 736.65 529.55Z" fill="#0092FD"/>
<path d="M734.5 527.3C691.59 547.82 722.82 613.1 765.72 592.58C808.76 572 777.56 506.71 734.5 527.3Z" fill="#0092FD"/>
<path d="M732.32 525.09C689.38 545.63 720.63 610.97 763.57 590.42C806.64 569.82 775.41 504.48 732.32 525.09Z" fill="#0092FD"/>
<path d="M730.12 522.91C687.14 543.47 718.42 608.86 761.39 588.3C804.49 567.69 773.24 502.28 730.12 522.91Z" fill="#0092FD"/>
<path d="M727.89 520.76C684.87 541.34 716.18 606.78 759.19 586.2C802.33 565.57 771.05 500.11 727.89 520.76Z" fill="#0092FD"/>
<path d="M725.63 518.64C682.58 539.23 713.91 604.73 756.96 584.14C800.13 563.49 768.83 497.98 725.63 518.64Z" fill="#0092FD"/>
<path d="M723.35 516.56C680.26 537.17 711.62 602.72 754.7 582.12C797.91 561.45 766.58 495.88 723.35 516.56Z" fill="#0093FD"/>
<path d="M721.04 514.51C677.91 535.14 709.3 600.75 752.42 580.12C795.67 559.43 764.31 493.81 721.04 514.51Z" fill="#0093FD"/>
<path d="M718.71 512.49C675.55 533.14 706.96 598.8 750.12 578.16C793.4 557.45 762.02 491.78 718.71 512.49Z" fill="#0093FD"/>
<path d="M716.35 510.5C673.15 531.17 704.59 596.88 747.78 576.22C791.1 555.5 759.69 489.77 716.35 510.5Z" fill="#0093FD"/>
<path d="M713.97 508.55C670.73 529.23 702.2 595 745.43 574.33C788.79 553.59 757.35 487.8 713.97 508.55Z" fill="#0093FD"/>
<path d="M711.56 506.64C668.29 527.34 699.78 593.17 743.04 572.47C786.43 551.71 754.97 485.87 711.56 506.64Z" fill="#0093FD"/>
<path d="M709.13 504.76C665.82 525.48 697.34 591.36 740.64 570.65C784.06 549.87 752.58 483.98 709.13 504.76Z" fill="#0093FD"/>
<path d="M706.67 502.92C663.32 523.65 694.87 589.59 738.21 568.86C781.67 548.07 750.16 482.12 706.67 502.92Z" fill="#0093FD"/>
<path d="M704.19 501.11C660.81 521.86 692.38 587.86 735.75 567.11C779.25 546.3 747.71 480.3 704.19 501.11Z" fill="#0093FD"/>
<path d="M701.69 499.34C658.27 520.11 689.87 586.16 733.28 565.39C776.82 544.56 745.25 478.5 701.69 499.34Z" fill="#0094FD"/>
<path d="M699.17 497.61C655.72 518.4 687.34 584.5 730.79 563.72C774.36 542.87 742.77 476.76 699.17 497.61Z" fill="#0094FD"/>
<path d="M696.62 495.92C653.13 516.72 684.78 582.88 728.27 562.08C771.88 541.22 740.26 475.05 696.62 495.92Z" fill="#0094FD"/>
<path d="M694.06 494.27C650.53 515.09 682.21 581.3 725.73 560.49C769.38 539.61 737.73 473.39 694.06 494.27Z" fill="#0094FD"/>
<path d="M691.47 492.65C647.91 513.49 679.61 579.76 723.17 558.92C766.85 538.02 735.18 471.74 691.47 492.65Z" fill="#0094FD"/>
<path d="M688.86 491.08C645.26 511.93 676.99 578.26 720.58 557.41C764.3 536.5 732.6 470.16 688.86 491.08Z" fill="#0094FD"/>
<path d="M686.22 489.55C642.58 510.42 674.34 576.8 717.97 555.93C761.72 535 729.99 468.61 686.22 489.55Z" fill="#0094FD"/>
<path d="M683.57 488.06C639.9 508.95 671.68 575.38 715.34 554.5C759.13 533.56 727.38 467.11 683.57 488.06Z" fill="#0094FD"/>
<path d="M680.9 486.61C637.19 507.52 669 574.01 712.7 553.1C756.53 532.14 724.75 465.63 680.9 486.61Z" fill="#0094FD"/>
<path d="M678.2 485.2C634.45 506.12 666.29 572.67 710.03 551.75C753.89 530.77 722.09 464.21 678.2 485.2Z" fill="#0094FD"/>
<path d="M675.49 483.84C631.71 504.78 663.57 571.38 707.34 550.44C751.24 529.44 719.41 462.83 675.49 483.84Z" fill="#0095FD"/>
<path d="M672.76 482.52C628.95 503.48 660.83 570.13 704.64 549.18C748.58 528.17 716.72 461.5 672.76 482.52Z" fill="#0095FD"/>
<path d="M670.01 481.24C626.16 502.22 658.07 568.93 701.92 547.95C745.89 526.92 714 460.2 670.01 481.24Z" fill="#0095FD"/>
<path d="M667.24 480.01C623.35 501 655.29 567.77 699.17 546.78C743.18 525.73 711.26 458.95 667.24 480.01Z" fill="#0095FD"/>
<path d="M664.45 478.83C620.53 499.84 652.49 566.66 696.41 545.66C740.45 524.59 708.51 457.76 664.45 478.83Z" fill="#0095FD"/>
<path d="M661.64 477.69C617.68 498.72 649.67 565.59 693.62 544.57C737.7 523.48 705.74 456.6 661.64 477.69Z" fill="#0095FD"/>
<path d="M658.82 476.59C614.82 497.64 646.84 564.57 690.83 543.53C734.95 522.43 702.95 455.48 658.82 476.59Z" fill="#0095FD"/>
<path d="M655.98 475.54C611.95 496.6 643.99 563.59 688.02 542.53C732.17 521.41 700.15 454.41 655.98 475.54Z" fill="#0095FD"/>
<path d="M653.12 474.54C609.05 495.62 641.12 562.66 685.19 541.59C729.38 520.45 697.33 453.4 653.12 474.54Z" fill="#0095FD"/>
<path d="M650.24 473.59C606.13 494.69 638.23 561.78 682.33 540.69C726.55 519.53 694.48 452.43 650.24 473.59Z" fill="#0096FD"/>
<path d="M647.35 472.69C603.21 493.8 635.33 560.96 679.47 539.85C723.73 518.68 691.63 451.52 647.35 472.69Z" fill="#0096FD"/>
<path d="M644.44 471.83C600.26 492.96 632.41 560.17 676.58 539.04C720.88 517.85 688.75 450.63 644.44 471.83Z" fill="#0096FD"/>
<path d="M641.52 471.02C597.31 492.17 629.48 559.43 673.69 538.29C718.02 517.08 685.87 449.81 641.52 471.02Z" fill="#0096FD"/>
<path d="M638.58 470.27C594.33 491.43 626.53 558.76 670.78 537.59C715.14 516.36 682.97 449.04 638.58 470.27Z" fill="#0096FD"/>
<path d="M635.63 469.56C591.34 490.74 623.57 558.12 667.85 536.94C712.26 515.7 680.05 448.32 635.63 469.56Z" fill="#0096FD"/>
<path d="M632.66 468.91C588.34 490.11 620.59 557.54 664.91 536.34C709.35 515.08 677.12 447.64 632.66 468.91Z" fill="#0096FD"/>
<path d="M629.67 468.31C585.31 489.53 617.59 557.01 661.95 535.8C706.42 514.52 674.17 447.03 629.67 468.31Z" fill="#0096FD"/>
<path d="M626.67 467.75C582.27 488.98 614.58 556.53 658.97 535.29C703.48 514 671.19 446.45 626.67 467.75Z" fill="#0096FD"/>
<path d="M623.59 467.18C579.16 488.43 611.49 556.03 655.92 534.78C700.47 513.47 668.16 445.87 623.59 467.18Z" fill="#0097FD"/>
<path d="M620.49 466.51C576.02 487.78 608.38 555.43 652.84 534.16C697.43 512.84 665.09 445.17 620.49 466.51Z" fill="#0097FD"/>
<path d="M617.42 465.7C572.91 486.99 605.3 554.7 649.8 533.41C694.42 512.07 662.06 444.35 617.42 465.7Z" fill="#0097FD"/>
<path d="M614.45 464.71C569.91 486.02 602.32 553.77 646.86 532.47C691.51 511.11 659.13 443.34 614.45 464.71Z" fill="#0097FD"/>
<path d="M611.62 463.49C567.04 484.81 599.48 552.63 644.05 531.31C688.75 509.93 656.33 442.11 611.62 463.49Z" fill="#0097FD"/>
<path d="M609.01 462C564.39 483.34 596.86 551.21 641.47 529.87C686.2 508.48 653.76 440.59 609.01 462Z" fill="#0097FD"/>
<path d="M606.67 460.17C562.02 481.53 594.51 549.45 639.16 528.1C683.92 506.69 651.45 438.75 606.67 460.17Z" fill="#0097FD"/>
<path d="M604.65 457.98C559.96 479.36 592.48 547.34 637.17 525.96C681.97 504.53 649.47 436.54 604.65 457.98Z" fill="#0097FD"/>
<path d="M604.91 456.09C560.19 477.48 592.73 545.52 637.45 524.13C682.29 502.69 649.77 434.64 604.91 456.09Z" fill="#0097FD"/>
<path d="M607.89 455.04C563.13 476.45 595.7 544.54 640.46 523.13C685.33 501.67 652.79 433.57 607.89 455.04Z" fill="#0097FD"/>
<path d="M610.86 453.98C566.07 475.41 598.66 543.55 643.45 522.13C688.36 500.65 655.78 432.49 610.86 453.98Z" fill="#0098FD"/>
<path d="M613.82 452.91C568.99 474.35 601.61 542.56 646.44 521.12C691.38 499.62 658.79 431.4 613.82 452.91Z" fill="#0098FD"/>
<path d="M616.76 451.83C571.89 473.29 604.54 541.55 649.4 520.09C694.38 498.57 661.76 430.31 616.76 451.83Z" fill="#0098FD"/>
<path d="M619.7 450.73C574.79 472.21 607.47 540.52 652.37 519.05C697.39 497.51 664.73 429.19 619.7 450.73Z" fill="#0098FD"/>
<path d="M622.62 449.61C577.68 471.1 610.38 539.47 655.32 517.98C700.37 496.43 667.69 428.05 622.62 449.61Z" fill="#0098FD"/>
<path d="M625.52 448.48C580.54 469.99 613.27 538.41 658.25 516.91C703.34 495.34 670.63 426.91 625.52 448.48Z" fill="#0098FD"/>
<path d="M628.41 447.33C583.39 468.86 616.15 537.34 661.16 515.81C706.29 494.22 673.55 425.74 628.41 447.33Z" fill="#0098FD"/>
<path d="M631.29 446.16C586.24 467.71 619.02 536.24 664.07 514.7C709.23 493.1 676.47 424.55 631.29 446.16Z" fill="#0098FD"/>
<path d="M634.15 444.98C589.06 466.54 621.87 535.13 666.95 513.57C712.15 491.95 679.36 423.35 634.15 444.98Z" fill="#0098FD"/>
<path d="M637 443.77C591.88 465.35 624.72 534 669.83 512.42C715.06 490.78 682.25 422.13 637 443.77Z" fill="#0099FD"/>
<path d="M639.82 442.54C594.66 464.14 627.53 532.84 672.68 511.24C717.95 489.59 685.11 420.87 639.82 442.54Z" fill="#0099FD"/>
<path d="M642.63 441.29C597.44 462.91 630.32 531.66 675.51 510.05C720.82 488.38 687.95 419.62 642.63 441.29Z" fill="#0099FD"/>
<path d="M645.43 440.02C600.2 461.66 633.11 530.46 678.34 508.83C723.68 487.14 690.79 418.32 645.43 440.02Z" fill="#0099FD"/>
<path d="M648.2 438.72C602.93 460.37 635.87 529.24 681.14 507.59C726.52 485.88 693.6 417.01 648.2 438.72Z" fill="#0099FD"/>
<path d="M650.95 437.4C605.65 459.07 638.61 527.99 683.91 506.32C729.32 484.6 696.38 415.67 650.95 437.4Z" fill="#0099FD"/>
<path d="M653.69 436.06C608.35 457.75 641.35 526.72 686.68 505.04C732.13 483.3 699.16 414.32 653.69 436.06Z" fill="#0099FD"/>
<path d="M656.4 434.69C611.02 456.4 644.05 525.42 689.41 503.72C734.9 481.96 701.9 412.93 656.4 434.69Z" fill="#0099FD"/>
<path d="M659.09 433.29C613.68 455.01 646.72 524.1 692.13 502.37C737.65 480.6 704.63 411.5 659.09 433.29Z" fill="#0099FD"/>
<path d="M661.75 431.86C616.3 453.6 649.37 522.74 694.82 501C740.37 479.21 707.33 410.06 661.75 431.86Z" fill="#0099FD"/>
<path d="M664.4 430.41C618.91 452.17 652.01 521.36 697.49 499.6C743.09 477.79 710.01 408.59 664.4 430.41Z" fill="#009AFD"/>
<path d="M667.02 428.93C621.5 450.7 654.62 519.96 700.14 498.18C745.77 476.36 712.67 407.1 667.02 428.93Z" fill="#009AFD"/>
<path d="M669.62 427.42C624.06 449.21 657.22 518.51 702.77 496.73C748.44 474.89 715.31 405.57 669.62 427.42Z" fill="#009AFD"/>
<path d="M672.19 425.88C626.6 447.69 659.78 517.05 705.36 495.24C751.06 473.38 717.91 404.01 672.19 425.88Z" fill="#009AFD"/>
<path d="M674.74 424.3C629.11 446.12 662.31 515.54 707.94 493.71C753.68 471.83 720.5 402.41 674.74 424.3Z" fill="#009AFD"/>
<path d="M677.26 422.7C631.59 444.54 664.82 514.01 710.49 492.17C756.26 470.27 723.06 400.79 677.26 422.7Z" fill="#009AFD"/>
<path d="M679.75 421.06C634.05 442.92 667.3 512.45 713 490.59C758.81 468.67 725.58 399.14 679.75 421.06Z" fill="#009AFD"/>
<path d="M682.22 419.38C636.48 441.26 669.76 510.84 715.5 488.96C761.34 467.03 728.09 397.44 682.22 419.38Z" fill="#009AFD"/>
<path d="M684.65 417.68C638.87 439.57 672.19 509.21 717.95 487.32C763.84 465.37 730.55 395.72 684.65 417.68Z" fill="#009AFD"/>
<path d="M687.06 415.93C641.25 437.84 674.59 507.53 720.39 485.63C766.31 463.66 733 393.96 687.06 415.93Z" fill="#009BFD"/>
<path d="M689.44 414.15C643.59 436.08 676.96 505.83 722.8 483.9C768.75 461.91 735.41 392.16 689.44 414.15Z" fill="#009BFD"/>
<path d="M691.79 412.33C645.9 434.28 679.29 504.08 725.18 482.14C771.17 460.14 737.8 390.33 691.79 412.33Z" fill="#009BFD"/>
<path d="M694.11 410.48C648.19 432.45 681.6 502.3 727.52 480.34C773.55 458.32 740.16 388.45 694.11 410.48Z" fill="#009BFD"/>
<path d="M696.4 408.58C650.44 430.56 683.89 500.47 729.84 478.5C775.9 456.46 742.49 386.54 696.4 408.58Z" fill="#009BFD"/>
<path d="M698.65 406.65C652.66 428.65 686.13 498.61 732.11 476.62C778.21 454.57 744.77 384.59 698.65 406.65Z" fill="#009BFD"/>
<path d="M700.87 404.67C654.84 426.69 688.34 496.71 734.36 474.7C780.5 452.63 747.02 382.6 700.87 404.67Z" fill="#009BFD"/>
<path d="M703.06 402.66C657 424.7 690.52 494.77 736.58 472.74C782.75 450.65 749.25 380.57 703.06 402.66Z" fill="#009BFD"/>
<path d="M705.22 400.6C659.12 422.65 692.67 492.78 738.76 470.74C784.97 448.63 751.44 378.5 705.22 400.6Z" fill="#009BFD"/>
<path d="M707.34 398.5C661.2 420.57 694.78 490.76 740.91 468.69C787.15 446.57 753.6 376.37 707.34 398.5Z" fill="#009BFD"/>
<path d="M709.42 396.35C663.25 418.44 696.85 488.68 743.02 466.6C789.3 444.46 755.72 374.21 709.42 396.35Z" fill="#009CFD"/>
<path d="M711.47 394.16C665.26 416.26 698.89 486.56 745.09 464.46C791.41 442.31 757.8 372 711.47 394.16Z" fill="#009CFD"/>
<path d="M713.48 391.93C667.23 414.05 700.89 484.4 747.13 462.28C793.48 440.11 759.85 369.74 713.48 391.93Z" fill="#009CFD"/>
<path d="M715.45 389.65C669.17 411.79 702.85 482.2 749.12 460.06C795.51 437.87 761.85 367.45 715.45 389.65Z" fill="#009CFD"/>
<path d="M717.39 387.32C671.07 409.47 704.78 479.94 751.09 457.78C797.52 435.58 763.83 365.1 717.39 387.32Z" fill="#009CFD"/>
<path d="M719.29 384.94C672.94 407.11 706.67 477.63 753.02 455.46C799.48 433.24 765.77 362.71 719.29 384.94Z" fill="#009CFD"/>
<path d="M721.14 382.51C674.74 404.7 708.51 475.28 754.89 453.08C801.39 430.84 767.65 360.25 721.14 382.51Z" fill="#009CFD"/>
<path d="M722.96 380.04C676.53 402.25 710.32 472.87 756.74 450.67C803.27 428.41 769.51 357.77 722.96 380.04Z" fill="#009CFD"/>
<path d="M724.74 377.51C678.28 399.73 712.09 470.42 758.55 448.2C805.12 425.92 771.33 355.23 724.74 377.51Z" fill="#009CFD"/>
<path d="M726.48 374.94C679.98 397.18 713.82 467.92 760.32 445.68C806.92 423.38 773.11 352.63 726.48 374.94Z" fill="#009DFD"/>
<path d="M728.17 372.31C681.63 394.57 715.5 465.36 762.03 443.11C808.67 420.8 774.83 349.99 728.17 372.31Z" fill="#009DFD"/>
<path d="M729.82 369.63C683.25 391.91 717.14 462.76 763.71 440.48C810.39 418.15 776.52 347.29 729.82 369.63Z" fill="#009DFD"/>
<path d="M731.43 366.89C684.82 389.18 718.74 460.09 765.34 437.8C812.05 415.45 778.16 344.54 731.43 366.89Z" fill="#009DFD"/>
<path d="M732.99 364.1C686.34 386.41 720.29 457.37 766.93 435.06C813.68 412.7 779.76 341.73 732.99 364.1Z" fill="#009DFD"/>
<path d="M734.51 361.26C687.83 383.59 721.8 454.6 768.47 432.28C815.26 409.9 781.31 338.87 734.51 361.26Z" fill="#009DFD"/>
<path d="M735.99 358.35C689.27 380.7 723.27 451.77 769.98 429.42C816.81 407.02 782.83 335.94 735.99 358.35Z" fill="#009DFD"/>
<path d="M737.42 355.39C690.66 377.75 724.69 448.88 771.44 426.52C818.3 404.1 784.3 332.97 737.42 355.39Z" fill="#009DFD"/>
<path d="M738.77 352.44C691.98 374.82 726.03 446 772.81 423.62C819.7 401.19 785.68 330 738.77 352.44Z" fill="#009DFD"/>
<path d="M740.01 349.6C693.18 372 727.26 443.24 774.08 420.84C821.01 398.39 786.96 327.14 740.01 349.6Z" fill="#009DFD"/>
<path d="M741.19 346.73C694.33 369.15 728.43 440.44 775.29 418.02C822.26 395.55 788.18 324.25 741.19 346.73Z" fill="#009EFD"/>
<path d="M742.32 343.85C695.42 366.28 729.55 437.63 776.44 415.2C823.44 392.72 789.33 321.36 742.32 343.85Z" fill="#009EFD"/>
<path d="M743.4 340.95C696.46 363.4 730.62 434.8 777.55 412.35C824.59 389.85 790.45 318.44 743.4 340.95Z" fill="#009EFD"/>
<path d="M744.42 338.03C697.45 360.5 731.63 431.96 778.59 409.49C825.67 386.97 791.51 315.5 744.42 338.03Z" fill="#009EFD"/>
<path d="M745.38 335.09C698.37 357.58 732.58 429.09 779.58 406.6C826.69 384.06 792.51 312.54 745.38 335.09Z" fill="#009EFD"/>
<path d="M746.3 332.14C699.26 354.64 733.49 426.21 780.53 403.71C827.68 381.16 793.46 309.58 746.3 332.14Z" fill="#009EFD"/>
<path d="M747.16 329.18C700.08 351.7 734.34 423.32 781.42 400.8C828.6 378.23 794.37 306.6 747.16 329.18Z" fill="#009EFD"/>
<path d="M747.96 326.2C700.84 348.74 735.13 420.41 782.24 397.88C829.46 375.29 795.19 303.61 747.96 326.2Z" fill="#009EFD"/>
<path d="M748.71 323.21C701.55 345.76 735.87 417.5 783.02 394.94C830.28 372.34 795.98 300.59 748.71 323.21Z" fill="#009EFD"/>
<path d="M749.41 320.2C702.22 342.77 736.56 414.56 783.74 391.99C831.03 369.37 796.71 297.57 749.41 320.2Z" fill="#009FFD"/>
<path d="M750.05 317.19C702.82 339.78 737.19 411.62 784.41 389.03C831.74 366.39 797.39 294.54 750.05 317.19Z" fill="#009FFD"/>
<path d="M750.63 314.16C703.37 336.77 737.76 408.66 785.02 386.06C832.38 363.41 798.01 291.5 750.63 314.16Z" fill="#009FFD"/>
<path d="M751.16 311.13C703.86 333.75 738.28 405.71 785.57 383.08C832.97 360.41 798.58 288.44 751.16 311.13Z" fill="#009FFD"/>
<path d="M751.64 308.09C704.31 330.73 738.75 402.74 786.08 380.1C833.52 357.41 799.09 285.39 751.64 308.09Z" fill="#009FFD"/>
<path d="M752.06 305.04C704.69 327.7 739.16 399.76 786.53 377.11C834 354.4 799.55 282.33 752.06 305.04Z" fill="#009FFD"/>
<path d="M752.43 301.99C705.02 324.67 739.52 396.79 786.92 374.11C834.43 351.38 799.95 279.26 752.43 301.99Z" fill="#009FFD"/>
<path d="M752.74 298.93C705.3 321.63 739.82 393.8 787.26 371.11C834.8 348.37 800.3 276.18 752.74 298.93Z" fill="#009FFD"/>
<path d="M752.99 295.86C705.51 318.57 740.06 390.8 787.53 368.09C835.11 345.33 800.58 273.09 752.99 295.86Z" fill="#009FFD"/>
<path d="M753.19 292.8C705.67 315.53 740.25 387.81 787.76 365.09C835.38 342.31 800.82 270.02 753.19 292.8Z" fill="#00A0FD"/>
<path d="M753.33 289.73C705.78 312.48 740.38 384.81 787.93 362.07C835.58 339.27 801 266.93 753.33 289.73Z" fill="#00A0FD"/>
<path d="M753.42 286.66C705.83 309.42 740.46 381.82 788.05 359.06C835.74 336.25 801.13 263.84 753.42 286.66Z" fill="#00A0FD"/>
<path d="M753.45 283.59C705.82 306.37 740.48 378.82 788.1 356.04C835.83 333.21 801.19 260.75 753.45 283.59Z" fill="#00A0FD"/>
<path d="M753.43 280.51C705.77 303.31 740.45 375.81 788.11 353.02C835.87 330.17 801.21 257.66 753.43 280.51Z" fill="#00A0FD"/>
<path d="M753.35 277.44C705.65 300.26 740.36 372.81 788.06 350C835.86 327.13 801.17 254.57 753.35 277.44Z" fill="#00A0FD"/>
<path d="M753.21 274.38C705.48 297.21 740.21 369.83 787.94 347C835.77 324.12 801.06 251.49 753.21 274.38Z" fill="#00A0FD"/>
<path d="M753.02 271.31C705.25 294.16 740.01 366.83 787.78 343.98C835.65 321.08 800.91 248.4 753.02 271.31Z" fill="#00A0FD"/>
<path d="M752.77 268.25C704.96 291.11 739.75 363.84 787.55 340.98C835.46 318.06 800.69 245.33 752.77 268.25Z" fill="#00A0FD"/>
<path d="M752.46 265.2C704.62 288.08 739.43 360.87 787.27 337.98C835.21 315.05 800.42 242.26 752.46 265.2Z" fill="#00A0FD"/>
<path d="M752.1 262.15C704.22 285.05 739.06 357.89 786.93 334.99C834.91 312.04 800.09 239.2 752.1 262.15Z" fill="#00A1FD"/>
<path d="M751.68 259.1C703.76 282.02 738.64 354.91 786.54 331.99C834.56 309.02 799.71 236.12 751.68 259.1Z" fill="#00A1FD"/>
<path d="M751.2 256.07C703.25 279.01 738.15 351.95 786.09 329.02C834.14 306.04 799.27 233.08 751.2 256.07Z" fill="#00A1FD"/>
<path d="M750.67 253.04C702.68 275.99 737.6 349 785.59 326.04C833.67 303.04 798.78 230.03 750.67 253.04Z" fill="#00A1FD"/>
<path d="M750.08 250.02C702.05 272.99 737 346.05 785.02 323.08C833.15 300.06 798.22 227 750.08 250.02Z" fill="#00A1FD"/>
<path d="M749.43 247.02C701.37 270.01 736.34 343.12 784.4 320.13C832.56 297.1 797.61 223.97 749.43 247.02Z" fill="#00A1FD"/>
<path d="M748.73 244.02C700.63 267.03 735.63 340.19 783.72 317.19C831.92 294.14 796.93 220.96 748.73 244.02Z" fill="#00A1FD"/>
<path d="M747.96 241.04C699.82 264.07 734.86 337.28 782.98 314.26C831.21 291.19 796.2 217.96 747.96 241.04Z" fill="#00A1FD"/>
<path d="M747.14 238.07C698.97 261.11 734.03 334.39 782.19 311.35C830.45 288.26 795.42 214.98 747.14 238.07Z" fill="#00A1FD"/>
<path d="M746.27 235.12C698.06 258.18 733.14 331.51 781.34 308.46C829.64 285.35 794.59 212.01 746.27 235.12Z" fill="#00A2FD"/>
<path d="M745.33 232.18C697.09 255.26 732.19 328.64 780.43 305.57C828.77 282.45 793.69 209.05 745.33 232.18Z" fill="#00A2FD"/>
<path d="M744.34 229.25C696.06 252.34 731.19 325.79 779.47 302.7C827.84 279.56 792.74 206.11 744.34 229.25Z" fill="#00A2FD"/>
<path d="M743.29 226.34C694.98 249.45 730.13 322.95 778.44 299.84C826.85 276.68 791.71 203.18 743.29 226.34Z" fill="#00A2FD"/>
<path d="M742.18 223.46C693.83 246.59 729.02 320.14 777.36 297.02C825.81 273.84 790.64 200.28 742.18 223.46Z" fill="#00A2FD"/>
<path d="M741.01 220.58C692.62 243.72 727.84 317.33 776.22 294.19C824.7 271 789.51 197.38 741.01 220.58Z" fill="#00A2FD"/>
<path d="M739.79 217.73C691.37 240.89 726.6 314.56 775.02 291.4C823.54 268.19 788.32 194.52 739.79 217.73Z" fill="#00A2FD"/>
<path d="M738.5 214.9C690.04 238.08 725.3 311.8 773.76 288.62C822.31 265.39 787.07 191.67 738.5 214.9Z" fill="#00A2FC"/>
<path d="M737.16 212.1C688.66 235.3 723.95 309.07 772.44 285.88C821.04 262.64 785.77 188.85 737.16 212.1Z" fill="#00A2FC"/>
<path d="M735.76 209.31C687.23 232.52 722.54 306.35 771.07 283.14C819.7 259.88 784.4 186.04 735.76 209.31Z" fill="#00A2FC"/>
<path d="M734.3 206.55C685.73 229.78 721.08 303.66 769.64 280.44C818.3 257.16 782.98 183.27 734.3 206.55Z" fill="#00A3FC"/>
<path d="M732.77 203.78C684.17 227.03 719.54 300.97 768.13 277.72C816.83 254.42 781.48 180.48 732.77 203.78Z" fill="#00A3FC"/>
<path d="M731.15 200.97C682.51 224.24 717.91 298.23 766.54 274.97C815.27 251.66 779.9 177.65 731.15 200.97Z" fill="#00A3FC"/>
<path d="M729.49 198.2C680.81 221.48 716.23 295.53 764.91 272.25C813.68 248.92 778.28 174.86 729.49 198.2Z" fill="#00A3FC"/>
<path d="M727.8 195.47C679.09 218.77 714.53 292.88 763.24 269.58C812.05 246.23 776.62 172.12 727.8 195.47Z" fill="#00A3FC"/>
<path d="M726.08 192.78C677.33 216.1 712.81 290.26 761.55 266.94C810.39 243.58 774.94 169.41 726.08 192.78Z" fill="#00A3FC"/>
<path d="M724.32 190.14C675.53 213.48 711.04 287.69 759.81 264.36C808.69 240.98 773.21 166.76 724.32 190.14Z" fill="#00A3FC"/>
<path d="M722.53 187.53C673.71 210.88 709.24 285.15 758.05 261.8C806.97 238.4 771.46 164.12 722.53 187.53Z" fill="#00A3FC"/>
<path d="M720.7 184.96C671.84 208.33 707.4 282.66 756.25 259.29C805.2 235.87 769.67 161.54 720.7 184.96Z" fill="#00A3FC"/>
<path d="M718.85 182.44C669.95 205.83 705.53 280.21 754.43 256.82C803.42 233.39 767.85 159 718.85 182.44Z" fill="#00A4FC"/>
<path d="M716.96 179.95C668.03 203.36 703.63 277.79 752.56 254.39C801.58 230.94 765.99 156.5 716.96 179.95Z" fill="#00A4FC"/>
<path d="M715.03 177.51C666.06 200.93 701.7 275.42 750.66 252C799.72 228.54 764.11 154.03 715.03 177.51Z" fill="#00A4FC"/>
<path d="M713.08 175.1C664.08 198.54 699.74 273.09 748.73 249.65C797.83 226.17 762.19 151.61 713.08 175.1Z" fill="#00A4FC"/>
<path d="M711.1 172.73C662.06 196.19 697.75 270.79 746.78 247.33C795.91 223.83 760.25 149.22 711.1 172.73Z" fill="#00A4FC"/>
<path d="M709.08 170.4C660 193.87 695.72 268.53 744.79 245.06C793.96 221.54 758.27 146.87 709.08 170.4Z" fill="#00A4FC"/>
<path d="M707.04 168.11C657.93 191.6 693.67 266.31 742.77 242.83C791.98 219.29 756.26 144.57 707.04 168.11Z" fill="#00A4FC"/>
<path d="M704.96 165.86C655.81 189.37 691.57 264.14 740.72 240.63C789.96 217.07 754.22 142.3 704.96 165.86Z" fill="#00A4FC"/>
<path d="M702.86 163.65C653.68 187.17 689.47 262 738.65 238.48C787.93 214.91 752.15 140.08 702.86 163.65Z" fill="#00A4FC"/>
<path d="M700.72 161.48C651.5 185.02 687.32 259.9 736.53 236.36C785.84 212.77 750.04 137.88 700.72 161.48Z" fill="#00A4FC"/>
<path d="M698.56 159.34C649.3 182.9 685.15 257.83 734.4 234.28C783.75 210.67 747.93 135.73 698.56 159.34Z" fill="#00A5FC"/>
<path d="M696.37 157.24C647.08 180.82 682.95 255.81 732.23 232.23C781.62 208.61 745.77 133.61 696.37 157.24Z" fill="#00A5FC"/>
<path d="M694.15 155.19C644.82 178.78 680.72 253.83 730.04 230.24C779.46 206.6 743.59 131.54 694.15 155.19Z" fill="#00A5FC"/>
<path d="M691.91 153.16C642.54 176.77 678.47 251.87 727.83 228.26C777.29 204.6 741.38 129.5 691.91 153.16Z" fill="#00A5FC"/>
<path d="M689.63 151.18C640.23 174.81 676.18 249.96 725.57 226.34C775.07 202.66 739.13 127.5 689.63 151.18Z" fill="#00A5FC"/>
<path d="M687.33 149.23C637.89 172.88 673.87 248.09 723.3 224.44C772.83 200.75 736.87 125.53 687.33 149.23Z" fill="#00A5FC"/>
<path d="M685.01 147.32C635.54 170.99 671.54 246.25 721.01 222.59C770.58 198.88 734.59 123.61 685.01 147.32Z" fill="#00A5FC"/>
<path d="M682.65 145.45C633.14 169.13 669.17 244.45 718.68 220.77C768.28 197.04 732.27 121.72 682.65 145.45Z" fill="#00A5FC"/>
<path d="M680.28 143.61C630.73 167.31 666.79 242.69 716.33 218.99C765.97 195.24 729.94 119.86 680.28 143.61Z" fill="#00A5FC"/>
<path d="M677.87 141.81C628.29 165.53 664.37 240.96 713.95 217.24C763.62 193.48 727.56 118.04 677.87 141.81Z" fill="#00A6FC"/>
<path d="M675.45 140.04C625.83 163.78 661.94 239.26 711.55 215.53C761.26 191.75 725.17 116.26 675.45 140.04Z" fill="#00A6FC"/>
<path d="M673 138.31C623.34 162.06 659.48 237.6 709.13 213.85C758.87 190.06 722.76 114.51 673 138.31Z" fill="#00A6FC"/>
<path d="M670.52 136.62C620.83 160.39 656.99 235.98 706.68 212.22C756.46 188.41 720.32 112.81 670.52 136.62Z" fill="#00A6FC"/>
<path d="M668.02 134.96C618.29 158.75 654.48 234.4 704.2 210.61C754.02 186.78 717.85 111.12 668.02 134.96Z" fill="#00A6FC"/>
<path d="M665.5 133.34C615.73 157.14 651.95 232.85 701.71 209.05C751.56 185.2 715.37 109.49 665.5 133.34Z" fill="#00A6FC"/>
<path d="M662.95 131.76C613.15 155.58 649.39 231.34 699.18 207.52C749.07 183.66 712.85 107.89 662.95 131.76Z" fill="#00A6FC"/>
<path d="M660.39 130.2C610.55 154.04 646.82 229.85 696.65 206.02C746.58 182.14 710.33 106.32 660.39 130.2Z" fill="#00A6FC"/>
<path d="M657.8 128.69C607.93 152.55 644.22 228.42 694.09 204.57C744.05 180.67 707.78 104.79 657.8 128.69Z" fill="#00A6FC"/>
<path d="M655.19 127.2C605.28 151.07 641.6 227 691.5 203.13C741.5 179.21 705.2 103.27 655.19 127.2Z" fill="#00A6FC"/>
<path d="M652.55 125.76C602.6 149.65 638.95 225.63 688.89 201.75C738.92 177.81 702.6 101.83 652.55 125.76Z" fill="#00A7FC"/>
<path d="M649.9 124.34C599.92 148.25 636.29 224.29 686.27 200.38C736.34 176.43 699.98 100.38 649.9 124.34Z" fill="#00A7FC"/>
<path d="M647.23 122.96C597.21 146.88 633.61 222.98 683.62 199.06C733.73 175.09 697.35 98.99 647.23 122.96Z" fill="#00A7FC"/>
<path d="M644.54 121.62C594.48 145.56 630.91 221.71 680.96 197.77C731.1 173.78 694.7 97.63 644.54 121.62Z" fill="#00A7FC"/>
<path d="M641.82 120.31C591.73 144.27 628.18 220.47 678.27 196.52C728.45 172.52 692.02 96.3 641.82 120.31Z" fill="#00A7FC"/>
<path d="M639.09 119.03C588.96 143.01 625.44 219.26 675.56 195.29C725.78 171.27 689.32 95.01 639.09 119.03Z" fill="#00A7FC"/>
<path d="M636.34 117.78C586.17 141.78 622.68 218.09 672.84 194.1C723.09 170.06 686.61 93.74 636.34 117.78Z" fill="#00A7FC"/>
<path d="M633.57 116.57C583.37 140.58 619.9 216.95 670.09 192.94C720.38 168.88 683.87 92.51 633.57 116.57Z" fill="#00A7FC"/>
<path d="M630.79 115.39C580.55 139.42 617.11 215.84 667.34 191.82C717.67 167.75 681.12 91.32 630.79 115.39Z" fill="#00A7FC"/>
<path d="M627.98 114.24C577.71 138.29 614.29 214.76 664.56 190.72C714.92 166.63 678.35 90.15 627.98 114.24Z" fill="#00A8FC"/>
<path d="M625.16 113.13C574.85 137.2 611.46 213.73 661.76 189.67C712.16 165.56 675.56 89.02 625.16 113.13Z" fill="#00A8FC"/>
<path d="M622.33 112.05C571.99 136.13 608.62 212.72 658.96 188.64C709.39 164.52 672.78 87.92 622.33 112.05Z" fill="#00A8FC"/>
<path d="M619.47 111C569.09 135.1 605.75 211.74 656.13 187.65C706.6 163.51 669.95 86.86 619.47 111Z" fill="#00A8FC"/>
<path d="M616.6 109.98C566.18 134.1 602.87 210.8 653.28 186.68C703.79 162.52 667.11 85.82 616.6 109.98Z" fill="#00A8FC"/>
<path d="M613.72 108.99C563.27 133.13 599.98 209.88 650.43 185.75C700.97 161.57 664.28 84.81 613.72 108.99Z" fill="#00A8FC"/>
<path d="M610.81 108.04C560.32 132.19 597.06 209 647.54 184.85C698.12 160.66 661.4 83.84 610.81 108.04Z" fill="#00A8FC"/>
<path d="M607.9 107.11C557.37 131.28 594.14 208.14 644.66 183.98C695.27 159.77 658.52 82.9 607.9 107.11Z" fill="#00A8FC"/>
<path d="M604.97 106.22C554.41 130.4 591.2 207.33 641.76 183.14C692.41 158.91 655.63 81.99 604.97 106.22Z" fill="#00A8FC"/>
<path d="M602.02 105.36C551.42 129.56 588.24 206.54 638.83 182.34C689.52 158.09 652.71 81.11 602.02 105.36Z" fill="#00A9FC"/>
<path d="M599.07 104.52C548.43 128.74 585.28 205.77 635.91 181.55C686.63 157.29 649.8 80.25 599.07 104.52Z" fill="#00A9FC"/>
<path d="M596.1 103.72C545.43 127.96 582.3 205.04 632.97 180.81C683.73 156.53 646.87 79.44 596.1 103.72Z" fill="#00A9FC"/>
<path d="M593.11 102.95C542.4 127.2 579.3 204.34 630.01 180.09C680.8 155.79 643.92 78.64 593.11 102.95Z" fill="#00A9FC"/>
<path d="M590.12 102.21C539.38 126.48 576.3 203.68 627.04 179.41C677.87 155.1 640.97 77.89 590.12 102.21Z" fill="#00A9FC"/>
<path d="M587.11 101.5C536.33 125.79 573.28 203.04 624.06 178.76C674.93 154.43 637.99 77.17 587.11 101.5Z" fill="#00A9FC"/>
<path d="M584.09 100.82C533.27 125.13 570.25 202.43 621.06 178.13C671.96 153.78 635 76.47 584.09 100.82Z" fill="#00A9FC"/>
<path d="M581.06 100.17C530.21 124.49 567.21 201.85 618.06 177.53C668.99 153.16 632.01 75.79 581.06 100.17Z" fill="#00A9FC"/>
<path d="M578.02 99.55C527.13 123.89 564.16 201.31 615.05 176.97C666.02 152.59 629.01 75.16 578.02 99.55Z" fill="#00A9FC"/>
<path d="M574.97 98.95C524.04 123.31 561.1 200.78 612.02 176.43C663.03 152.03 625.99 74.55 574.97 98.95Z" fill="#00A9FC"/>
<path d="M571.9 98.39C520.94 122.77 558.02 200.29 608.98 175.92C660.03 151.5 622.96 73.97 571.9 98.39Z" fill="#00AAFC"/>
<path d="M568.83 97.85C517.83 122.25 554.94 199.83 605.94 175.43C657.02 150.99 619.93 73.4 568.83 97.85Z" fill="#00AAFC"/>
<path d="M565.75 97.34C514.71 121.75 551.85 199.39 602.88 174.98C654 150.53 616.88 72.88 565.75 97.34Z" fill="#00AAFC"/>
<path d="M562.66 96.87C511.59 121.3 548.75 198.99 599.82 174.57C650.98 150.1 613.83 72.4 562.66 96.87Z" fill="#00AAFC"/>
<path d="M559.57 96.41C508.46 120.86 545.65 198.6 596.75 174.16C647.94 149.67 610.77 71.92 559.57 96.41Z" fill="#00AAFC"/>
<path d="M556.46 95.99C505.32 120.45 542.54 198.26 593.67 173.79C644.9 149.29 607.7 71.47 556.46 95.99Z" fill="#00AAFC"/>
<path d="M553.35 95.6C502.17 120.08 539.42 197.94 590.59 173.46C641.85 148.94 604.62 71.08 553.35 95.6Z" fill="#00AAFC"/>
<path d="M550.23 95.23C499.02 119.73 536.29 197.64 587.49 173.15C638.79 148.61 601.54 70.69 550.23 95.23Z" fill="#00AAFC"/>
<path d="M547.1 94.89C495.85 119.41 533.14 197.37 584.39 172.86C635.72 148.3 598.45 70.33 547.1 94.89Z" fill="#00AAFC"/>
<path d="M543.96 94.57C492.67 119.1 529.99 197.12 581.28 172.59C632.65 148.02 595.35 69.99 543.96 94.57Z" fill="#00ABFC"/>
<path d="M540.82 94.29C489.49 118.84 526.84 196.92 578.16 172.37C629.57 147.78 592.24 69.69 540.82 94.29Z" fill="#00ABFC"/>
<path d="M537.68 94.03C486.32 118.6 523.7 196.73 575.05 172.17C626.49 147.56 589.14 69.42 537.68 94.03Z" fill="#00ABFC"/>
<path d="M534.53 93.79C483.13 118.37 520.54 196.56 571.93 171.98C623.41 147.36 586.02 69.16 534.53 93.79Z" fill="#00ABFC"/>
<path d="M531.37 93.59C479.94 118.19 517.37 196.44 568.79 171.83C620.31 147.19 582.89 68.94 531.37 93.59Z" fill="#00ABFC"/>
<path d="M528.21 93.41C476.74 118.03 514.19 196.33 565.66 171.71C617.21 147.05 579.77 68.74 528.21 93.41Z" fill="#00ABFC"/>
<path d="M525.05 93.25C473.54 117.89 511.02 196.24 562.52 171.61C614.11 146.93 576.65 68.57 525.05 93.25Z" fill="#00ABFC"/>
<path d="M521.88 93.12C470.34 117.77 507.84 196.18 559.38 171.53C611.01 146.84 573.52 68.42 521.88 93.12Z" fill="#00ABFC"/>
<path d="M518.71 93.02C467.13 117.69 504.67 196.16 556.24 171.49C607.9 146.78 570.38 68.3 518.71 93.02Z" fill="#00ABFC"/>
<path d="M515.54 92.94C463.93 117.63 501.49 196.15 553.09 171.46C604.79 146.73 567.24 68.2 515.54 92.94Z" fill="#00ABFC"/>
<path d="M512.36 92.89C460.71 117.6 498.3 196.17 549.94 171.47C601.68 146.72 564.1 68.14 512.36 92.89Z" fill="#00ACFC"/>
<path d="M509.18 92.86C457.49 117.58 495.1 196.22 546.79 171.5C598.56 146.74 560.96 68.1 509.18 92.86Z" fill="#00ACFC"/>
<path d="M506 92.85C454.28 117.59 491.92 196.27 543.63 171.54C595.44 146.76 557.81 68.07 506 92.85Z" fill="#00ACFC"/>
<path d="M502.82 92.88C451.06 117.64 488.72 196.38 540.48 171.62C592.32 146.82 554.67 68.07 502.82 92.88Z" fill="#00ACFC"/>
<path d="M499.64 92.92C447.84 117.7 485.54 196.49 537.33 171.72C589.21 146.9 551.53 68.1 499.64 92.92Z" fill="#00ACFC"/>
<path d="M496.46 92.99C444.63 117.78 482.35 196.63 534.17 171.84C586.09 147.01 548.38 68.15 496.46 92.99Z" fill="#00ACFC"/>
<path d="M493.28 93.08C441.41 117.89 479.16 196.8 531.02 171.99C582.97 147.14 545.24 68.23 493.28 93.08Z" fill="#00ACFC"/>
<path d="M490.1 93.2C438.19 118.03 475.97 196.99 527.87 172.16C579.85 147.29 542.1 68.32 490.1 93.2Z" fill="#00ACFC"/>
<path d="M486.91 93.34C434.97 118.18 472.77 197.2 524.7 172.36C576.72 147.48 538.94 68.45 486.91 93.34Z" fill="#00ACFC"/>
<path d="M483.73 93.5C431.75 118.36 469.58 197.43 521.55 172.57C573.61 147.67 535.8 68.59 483.73 93.5Z" fill="#00ADFC"/>
<path d="M480.56 93.69C428.55 118.57 466.4 197.7 518.4 172.82C570.49 147.9 532.66 68.77 480.56 93.69Z" fill="#00ADFC"/>
<path d="M477.38 93.9C425.33 118.8 463.21 197.98 515.25 173.08C567.38 148.14 529.52 68.95 477.38 93.9Z" fill="#00ADFC"/>
<path d="M474.21 94.13C422.13 119.04 460.03 198.28 512.11 173.37C564.27 148.42 526.39 69.17 474.21 94.13Z" fill="#00ADFC"/>
<path d="M471.03 94.39C418.91 119.32 456.84 198.61 508.95 173.68C561.15 148.71 523.24 69.41 471.03 94.39Z" fill="#00ADFC"/>
<path d="M467.87 94.67C415.71 119.62 453.67 198.96 505.82 174.02C558.06 149.03 520.12 69.68 467.87 94.67Z" fill="#00ADFC"/>
<path d="M464.7 94.97C412.5 119.94 450.49 199.34 502.68 174.37C554.95 149.37 516.99 69.96 464.7 94.97Z" fill="#00ADFC"/>
<path d="M461.54 95.29C409.31 120.27 447.32 199.73 499.54 174.75C551.85 149.73 513.86 70.26 461.54 95.29Z" fill="#00ADFC"/>
<path d="M458.38 95.63C406.11 120.63 444.15 200.15 496.41 175.14C548.76 150.1 510.74 70.58 458.38 95.63Z" fill="#00ADFC"/>
<path d="M455.23 96C402.93 121.02 440.99 200.59 493.28 175.57C545.66 150.52 507.62 70.94 455.23 96Z" fill="#00ADFC"/>
<path d="M452.08 96.38C399.74 121.42 437.83 201.04 490.16 176C542.58 150.93 504.51 71.3 452.08 96.38Z" fill="#00AEFC"/>
<path d="M448.94 96.79C396.56 121.84 434.68 201.52 487.05 176.47C539.5 151.38 501.41 71.69 448.94 96.79Z" fill="#00AEFC"/>
<path d="M445.81 97.22C393.4 122.29 431.54 202.02 483.95 176.95C536.44 151.84 498.32 72.1 445.81 97.22Z" fill="#00AEFC"/>
<path d="M442.68 97.67C390.23 122.76 428.4 202.55 480.84 177.46C533.37 152.33 495.22 72.54 442.68 97.67Z" fill="#00AEFC"/>
<path d="M439.56 98.14C387.08 123.25 425.27 203.09 477.75 177.99C530.31 152.85 492.13 72.99 439.56 98.14Z" fill="#00AEFC"/>
<path d="M436.44 98.63C383.92 123.75 422.14 203.65 474.66 178.53C527.26 153.37 489.05 73.46 436.44 98.63Z" fill="#00AEFC"/>
<path d="M433.33 99.14C380.77 124.28 419.02 204.23 471.57 179.1C524.2 153.92 485.97 73.96 433.33 99.14Z" fill="#00AEFC"/>
<path d="M430.23 99.67C377.64 124.83 415.91 204.84 468.5 179.68C521.17 154.49 482.92 74.47 430.23 99.67Z" fill="#00AEFC"/>
<path d="M427.14 100.22C374.51 125.39 412.81 205.46 465.43 180.29C518.14 155.08 479.85 75 427.14 100.22Z" fill="#00AEFC"/>
<path d="M424.06 100.79C371.39 125.98 409.72 206.1 462.38 180.91C515.12 155.68 476.81 75.55 424.06 100.79Z" fill="#00AFFC"/>
<path d="M420.99 101.38C368.29 126.59 406.64 206.77 459.34 181.56C512.12 156.31 473.78 76.13 420.99 101.38Z" fill="#00AFFC"/>
<path d="M417.92 101.98C365.18 127.2 403.56 207.44 456.29 182.21C509.11 156.95 470.75 76.71 417.92 101.98Z" fill="#00AFFC"/>
<path d="M414.87 102.61C362.09 127.85 400.5 208.14 453.27 182.9C506.12 157.62 467.73 77.33 414.87 102.61Z" fill="#00AFFC"/>
<path d="M411.83 103.26C359.02 128.52 397.45 208.86 450.26 183.6C503.15 158.3 464.73 77.95 411.83 103.26Z" fill="#00AFFC"/>
<path d="M408.79 103.92C355.94 129.2 394.4 209.59 447.24 184.32C500.16 159 461.72 78.6 408.79 103.92Z" fill="#00AFFC"/>
<path d="M405.77 104.61C352.89 129.91 391.37 210.36 444.25 185.06C497.21 159.73 458.74 79.27 405.77 104.61Z" fill="#00AFFC"/>
<path d="M402.76 105.31C349.84 130.62 388.35 211.13 441.26 185.82C494.26 160.47 455.76 79.96 402.76 105.31Z" fill="#00AFFC"/>
<path d="M399.76 106.03C346.8 131.36 385.34 211.92 438.29 186.59C491.32 161.22 452.8 80.66 399.76 106.03Z" fill="#00AFFC"/>
<path d="M396.77 106.76C343.78 132.11 382.34 212.72 435.33 187.38C488.4 162 449.85 81.37 396.77 106.76Z" fill="#00B0FC"/>
<path d="M393.8 107.52C340.77 132.89 379.36 213.56 432.38 188.19C485.49 162.79 446.91 82.11 393.8 107.52Z" fill="#00B0FC"/>
<path d="M390.84 108.29C337.77 133.67 376.39 214.4 429.45 189.02C482.59 163.6 443.99 82.87 390.84 108.29Z" fill="#00B0FC"/>
<path d="M387.89 109.08C334.79 134.48 373.43 215.26 426.53 189.86C479.71 164.43 441.08 83.64 387.89 109.08Z" fill="#00B0FC"/>
<path d="M384.96 109.89C331.82 135.31 370.49 216.15 423.62 190.73C476.83 165.28 438.18 84.43 384.96 109.89Z" fill="#00B0FC"/>
<path d="M382.04 110.71C328.86 136.15 367.56 217.03 420.73 191.6C473.98 166.13 435.3 85.23 382.04 110.71Z" fill="#00B0FC"/>
<path d="M379.14 111.55C325.93 137 364.65 217.95 417.85 192.5C471.14 167.01 432.43 86.06 379.14 111.55Z" fill="#00B0FC"/>
<path d="M376.25 112.41C323 137.88 361.75 218.88 414.99 193.41C468.31 167.91 429.58 86.9 376.25 112.41Z" fill="#00B0FC"/>
<path d="M373.37 113.28C320.09 138.77 358.86 219.82 412.14 194.34C465.5 168.82 426.74 87.76 373.37 113.28Z" fill="#00B0FC"/>
<path d="M370.51 114.17C317.19 139.67 355.99 220.79 409.3 195.29C462.7 169.75 423.91 88.63 370.51 114.17Z" fill="#00B0FC"/>
<path d="M367.67 115.07C314.32 140.59 353.14 221.76 406.49 196.24C459.92 170.68 421.11 89.51 367.67 115.07Z" fill="#00B1FC"/>
<path d="M364.85 115.99C311.46 141.53 350.31 222.75 403.7 197.22C457.17 171.64 418.33 90.41 364.85 115.99Z" fill="#00B1FC"/>
<path d="M362.04 116.92C308.61 142.47 347.49 223.75 400.92 198.2C454.42 172.61 415.56 91.32 362.04 116.92Z" fill="#00B1FC"/>
<path d="M359.25 117.88C305.79 143.45 344.69 224.79 398.15 199.22C451.68 173.61 412.79 92.27 359.25 117.88Z" fill="#00B1FC"/>
<path d="M356.48 118.84C302.98 144.43 341.91 225.82 395.4 200.23C448.98 174.6 410.06 93.21 356.48 118.84Z" fill="#00B1FC"/>
<path d="M353.72 119.82C300.18 145.43 339.14 226.87 392.67 201.27C446.28 175.63 407.34 94.18 353.72 119.82Z" fill="#00B1FC"/>
<path d="M350.99 120.82C297.41 146.44 336.4 227.95 389.97 202.32C443.61 176.66 404.65 95.15 350.99 120.82Z" fill="#00B1FC"/>
<path d="M348.27 121.83C294.66 147.47 333.67 229.03 387.28 203.39C440.96 177.71 401.96 96.15 348.27 121.83Z" fill="#00B1FC"/>
<path d="M345.57 122.85C291.92 148.51 330.96 230.12 384.6 204.46C438.32 178.76 399.3 97.15 345.57 122.85Z" fill="#00B1FC"/>
<path d="M342.89 123.89C289.21 149.57 328.27 231.23 381.95 205.56C435.7 179.85 396.65 98.18 342.89 123.89Z" fill="#00B2FC"/>
<path d="M340.24 124.94C286.52 150.64 325.61 232.36 379.33 206.66C433.12 180.93 394.04 99.2 340.24 124.94Z" fill="#00B2FC"/>
<path d="M337.6 126C283.85 151.71 322.96 233.49 376.71 207.78C430.54 182.03 391.43 100.25 337.6 126Z" fill="#00B2FC"/>
<path d="M334.98 127.08C281.19 152.81 320.33 234.64 374.12 208.91C427.98 183.15 388.86 101.31 334.98 127.08Z" fill="#00B2FC"/>
<path d="M332.39 128.18C278.56 153.93 317.73 235.81 371.55 210.07C425.45 184.29 386.29 102.4 332.39 128.18Z" fill="#00B2FC"/>
<path d="M329.82 129.28C275.96 155.05 315.15 236.98 369.01 211.22C422.94 185.42 383.77 103.48 329.82 129.28Z" fill="#00B2FC"/>
<path d="M327.27 130.4C273.37 156.18 312.59 238.18 366.49 212.4C420.46 186.58 381.25 104.58 327.27 130.4Z" fill="#00B2FC"/>
<path d="M324.72 131.54C270.78 157.34 310.03 239.39 363.96 213.59C417.97 187.76 378.73 105.7 324.72 131.54Z" fill="#00B2FC"/>
<path d="M322.05 132.75C268.08 158.57 307.35 240.67 361.32 214.86C415.36 189.01 376.1 106.9 322.05 132.75Z" fill="#00B2FC"/>
<path d="M319.38 133.98C265.37 159.81 304.68 241.98 358.68 216.14C412.76 190.27 373.47 108.11 319.38 133.98Z" fill="#00B2FC"/>
<path d="M316.71 135.23C262.66 161.08 301.99 243.3 356.03 217.45C410.14 191.56 370.83 109.34 316.71 135.23Z" fill="#00B3FC"/>
<path d="M314.04 136.49C259.96 162.36 299.31 244.63 353.39 218.76C407.54 192.86 368.2 110.58 314.04 136.49Z" fill="#00B3FC"/>
<path d="M311.36 137.77C257.24 163.66 296.62 245.98 350.74 220.1C404.93 194.18 365.56 111.85 311.36 137.77Z" fill="#00B3FC"/>
<path d="M308.69 139.07C254.54 164.97 293.94 247.36 348.09 221.46C402.31 195.52 362.92 113.13 308.69 139.07Z" fill="#00B3FC"/>
<path d="M306.02 140.38C251.83 166.3 291.27 248.74 345.45 222.82C399.71 196.87 360.29 114.42 306.02 140.38Z" fill="#00B3FC"/>
<path d="M303.34 141.71C249.11 167.65 288.58 250.14 342.79 224.21C397.09 198.24 357.64 115.74 303.34 141.71Z" fill="#00B3FC"/>
<path d="M300.67 143.05C246.41 169 285.89 251.55 340.15 225.6C394.48 199.61 355.01 117.06 300.67 143.05Z" fill="#00B3FC"/>
<path d="M298 144.41C243.7 170.38 283.21 252.98 337.51 227.02C391.88 201.01 352.38 118.4 298 144.41Z" fill="#00B3FC"/>
<path d="M295.33 145.78C241 171.77 280.53 254.43 334.87 228.44C389.27 202.42 349.75 119.75 295.33 145.78Z" fill="#00B3FC"/>
<path d="M292.66 147.17C238.29 173.18 277.86 255.89 332.22 229.89C386.66 203.85 347.11 121.13 292.66 147.17Z" fill="#00B4FC"/>
<path d="M289.99 148.58C235.58 174.61 275.18 257.37 329.57 231.35C384.05 205.29 344.47 122.52 289.99 148.58Z" fill="#00B4FC"/>
<path d="M287.33 150C232.88 176.04 272.51 258.86 326.94 232.83C381.45 206.75 341.85 123.93 287.33 150Z" fill="#00B4FC"/>
<path d="M284.67 151.43C230.19 177.49 269.84 260.37 324.31 234.31C378.86 208.22 339.23 125.33 284.67 151.43Z" fill="#00B4FB"/>
<path d="M282 152.88C227.48 178.96 267.15 261.89 321.66 235.82C376.25 209.71 336.59 126.77 282 152.88Z" fill="#00B4FB"/>
<path d="M279.35 154.35C224.8 180.45 264.49 263.43 319.04 237.34C373.66 211.21 333.98 128.22 279.35 154.35Z" fill="#00B4FB"/>
<path d="M276.69 155.83C222.1 181.94 261.83 264.99 316.41 238.88C371.07 212.74 331.36 129.69 276.69 155.83Z" fill="#00B4FB"/>
<path d="M274.04 157.33C219.42 183.46 259.17 266.56 313.79 240.43C368.48 214.27 328.75 131.16 274.04 157.33Z" fill="#00B4FB"/>
<path d="M271.39 158.84C216.73 184.99 256.51 268.14 311.16 242C365.89 215.82 326.12 132.66 271.39 158.84Z" fill="#00B4FB"/>
<path d="M268.75 160.37C214.05 186.53 253.86 269.74 308.55 243.58C363.32 217.38 323.53 134.17 268.75 160.37Z" fill="#00B4FB"/>
<path d="M266.11 161.91C211.38 188.09 251.2 271.36 305.93 245.18C360.73 218.97 320.91 135.7 266.11 161.91Z" fill="#00B5FB"/>
<path d="M263.47 163.47C208.7 189.67 248.56 272.99 303.32 246.79C358.15 220.56 318.31 137.24 263.47 163.47Z" fill="#00B5FB"/>
<path d="M260.84 165.05C206.03 191.26 245.92 274.64 300.72 248.43C355.59 222.18 315.72 138.8 260.84 165.05Z" fill="#00B5FB"/>
<path d="M258.21 166.63C203.37 192.86 243.28 276.3 298.11 250.06C353.02 223.79 313.12 140.36 258.21 166.63Z" fill="#00B5FB"/>
<path d="M255.59 168.24C200.71 194.49 240.65 277.97 295.52 251.73C350.47 225.45 310.54 141.96 255.59 168.24Z" fill="#00B5FB"/>
<path d="M252.97 169.85C198.05 196.12 238.02 279.66 292.93 253.39C347.91 227.09 307.96 143.55 252.97 169.85Z" fill="#00B5FB"/>
<path d="M250.36 171.49C195.41 197.77 235.4 281.37 290.34 255.09C345.36 228.77 305.38 145.17 250.36 171.49Z" fill="#00B5FB"/>
<path d="M247.75 173.13C192.76 199.43 232.78 283.08 287.76 256.78C342.81 230.45 302.81 146.79 247.75 173.13Z" fill="#00B5FB"/>
<path d="M245.16 174.79C190.14 201.11 230.18 284.82 285.19 258.5C340.28 232.15 300.25 148.43 245.16 174.79Z" fill="#00B5FB"/>
<path d="M242.56 176.47C187.5 202.81 227.57 286.57 282.62 260.24C337.74 233.87 297.69 150.1 242.56 176.47Z" fill="#00B6FB"/>
<path d="M239.98 178.16C184.88 204.51 224.98 288.33 280.07 261.98C335.23 235.59 295.15 151.77 239.98 178.16Z" fill="#00B6FB"/>
<path d="M237.4 179.87C182.27 206.24 222.39 290.11 277.51 263.75C332.71 237.35 292.6 153.47 237.4 179.87Z" fill="#00B6FB"/>
<path d="M234.82 181.59C179.65 207.98 219.8 291.91 274.96 265.52C330.19 239.1 290.06 155.16 234.82 181.59Z" fill="#00B6FB"/>
<path d="M232.26 183.32C177.05 209.73 217.23 293.71 272.43 267.31C327.7 240.87 287.54 156.89 232.26 183.32Z" fill="#00B6FB"/>
<path d="M229.7 185.07C174.46 211.5 214.66 295.53 269.89 269.11C325.2 242.65 285.01 158.61 229.7 185.07Z" fill="#00B6FB"/>
<path d="M227.15 186.83C171.87 213.27 212.1 297.37 267.37 270.93C322.71 244.46 282.5 160.36 227.15 186.83Z" fill="#00B6FB"/>
<path d="M224.61 188.61C169.29 215.07 209.55 299.21 264.85 272.76C320.23 246.27 279.99 162.11 224.61 188.61Z" fill="#00B6FB"/>
<path d="M222.08 190.4C166.73 216.88 207.01 301.08 262.35 274.61C317.77 248.1 277.5 163.9 222.08 190.4Z" fill="#00B6FB"/>
<path d="M219.56 192.21C164.17 218.7 204.48 302.96 259.86 276.47C315.31 249.95 275.02 165.68 219.56 192.21Z" fill="#00B6FB"/>
<path d="M217.04 194.03C161.61 220.54 201.95 304.85 257.37 278.35C312.86 251.81 272.54 167.49 217.04 194.03Z" fill="#00B7FB"/>
<path d="M214.53 195.86C159.07 222.39 199.43 306.76 254.88 280.23C310.41 253.67 270.06 169.3 214.53 195.86Z" fill="#00B7FB"/>
<path d="M212.04 197.71C156.55 224.26 196.93 308.68 252.42 282.14C307.98 255.56 267.61 171.14 212.04 197.71Z" fill="#00B7FB"/>
<path d="M209.55 199.57C154.02 226.13 194.43 310.61 249.96 284.05C305.56 257.46 265.16 172.97 209.55 199.57Z" fill="#00B7FB"/>
<path d="M207.07 201.45C151.5 228.03 191.94 312.56 247.5 285.99C303.13 259.38 262.7 174.84 207.07 201.45Z" fill="#00B7FB"/>
<path d="M204.61 203.34C149.01 229.94 189.47 314.53 245.07 287.93C300.74 261.3 260.29 176.71 204.61 203.34Z" fill="#00B7FB"/>
<path d="M202.15 205.24C146.51 231.85 187 316.5 242.63 289.89C298.34 263.25 257.86 178.6 202.15 205.24Z" fill="#00B7FB"/>
<path d="M199.71 207.16C144.03 233.79 184.55 318.49 240.22 291.86C295.96 265.2 255.46 180.5 199.71 207.16Z" fill="#00B7FB"/>
<path d="M197.27 209.09C141.56 235.74 182.1 320.49 237.81 293.85C293.58 267.17 253.05 182.41 197.27 209.09Z" fill="#00B7FB"/>
<path d="M194.85 211.03C139.1 237.7 179.67 322.51 235.41 295.84C291.23 269.14 250.67 184.33 194.85 211.03Z" fill="#00B8FB"/>
<path d="M192.44 212.99C136.65 239.67 177.25 324.54 233.03 297.86C288.88 271.15 248.3 186.28 192.44 212.99Z" fill="#00B8FB"/>
<path d="M190.04 214.96C134.22 241.66 174.84 326.58 230.66 299.88C286.54 273.15 245.94 188.23 190.04 214.96Z" fill="#00B8FB"/>
<path d="M187.65 216.95C131.79 243.67 172.44 328.65 228.29 301.93C284.21 275.18 243.57 190.2 187.65 216.95Z" fill="#00B8FB"/>
<path d="M185.28 218.95C129.39 245.69 170.06 330.72 225.95 303.99C281.91 277.22 241.25 192.18 185.28 218.95Z" fill="#00B8FB"/>
<path d="M182.92 220.96C126.99 247.72 167.69 332.8 223.61 306.05C279.6 279.27 238.91 194.17 182.92 220.96Z" fill="#00B8FB"/>
<path d="M180.57 222.98C124.6 249.75 165.33 334.89 221.29 308.13C277.32 281.33 236.6 196.18 180.57 222.98Z" fill="#00B8FB"/>
<path d="M178.23 225.02C122.23 251.81 162.98 337 218.98 310.22C275.04 283.4 234.3 198.2 178.23 225.02Z" fill="#00B8FB"/>
<path d="M175.91 227.07C119.87 253.87 160.65 339.13 216.68 312.33C272.78 285.49 232.02 200.24 175.91 227.07Z" fill="#00B8FB"/>
<path d="M173.6 229.14C117.52 255.96 158.33 341.27 214.4 314.45C270.54 287.6 229.75 202.28 173.6 229.14Z" fill="#00B9FB"/>
<path d="M171.3 231.22C115.19 258.06 156.02 343.42 212.13 316.59C268.3 289.72 227.48 204.35 171.3 231.22Z" fill="#00B9FB"/>
<path d="M169.02 233.31C112.87 260.17 153.73 345.58 209.87 318.73C266.08 291.84 225.23 206.42 169.02 233.31Z" fill="#00B9FB"/>
<path d="M166.76 235.41C110.57 262.28 151.46 347.76 207.64 320.89C263.89 293.99 223.01 208.51 166.76 235.41Z" fill="#00B9FB"/>
<path d="M164.5 237.53C108.28 264.42 149.19 349.95 205.4 323.06C261.68 296.14 220.78 210.6 164.5 237.53Z" fill="#00B9FB"/>
<path d="M162.27 239.66C106.01 266.57 146.95 352.15 203.2 325.25C259.52 298.31 218.59 212.72 162.27 239.66Z" fill="#00B9FB"/>
<path d="M160.04 241.8C103.74 268.72 144.71 354.37 201 327.44C257.35 300.48 216.4 214.84 160.04 241.8Z" fill="#00B9FB"/>
<path d="M157.84 243.96C101.51 270.9 142.5 356.6 198.82 329.66C255.21 302.69 214.24 216.99 157.84 243.96Z" fill="#00B9FB"/>
<path d="M155.65 246.13C99.2798 273.09 140.3 358.84 196.66 331.88C253.09 304.89 212.08 219.14 155.65 246.13Z" fill="#00B9FB"/>
<path d="M153.47 248.31C97.07 275.29 138.11 361.09 194.51 334.12C250.97 307.11 209.94 221.3 153.47 248.31Z" fill="#00B9FB"/>
<path d="M151.32 250.5C94.8799 277.5 135.95 363.35 192.39 336.36C248.89 309.34 207.83 223.47 151.32 250.5Z" fill="#00BAFB"/>
<path d="M149.17 252.71C92.6999 279.72 133.79 365.64 190.26 338.63C246.79 311.59 205.71 225.67 149.17 252.71Z" fill="#00BAFB"/>
<path d="M147.05 254.93C90.5399 281.96 131.66 367.93 188.17 340.9C244.74 313.84 203.63 227.87 147.05 254.93Z" fill="#00BAFB"/>
<path d="M144.94 257.16C88.39 284.21 129.54 370.23 186.08 343.18C242.69 316.1 201.55 230.07 144.94 257.16Z" fill="#00BAFB"/>
<path d="M142.85 259.4C86.2699 286.47 127.45 372.54 184.02 345.48C240.66 318.39 199.5 232.31 142.85 259.4Z" fill="#00BAFB"/>
<path d="M140.78 261.66C84.16 288.74 125.36 374.88 181.98 347.8C238.66 320.69 197.47 234.55 140.78 261.66Z" fill="#00BAFB"/>
<path d="M138.72 263.93C82.0599 291.03 123.29 377.22 179.94 350.12C236.66 322.99 195.44 236.8 138.72 263.93Z" fill="#00BAFB"/>
<path d="M136.69 266.21C79.9999 293.33 121.25 379.57 177.94 352.46C234.69 325.31 193.45 239.06 136.69 266.21Z" fill="#00BAFB"/>
<path d="M134.67 268.51C77.94 295.65 119.22 381.95 175.95 354.81C232.74 327.65 191.46 241.34 134.67 268.51Z" fill="#00BAFB"/>
<path d="M132.67 270.81C75.9099 297.96 117.21 384.32 173.97 357.17C230.79 329.99 189.49 243.63 132.67 270.81Z" fill="#00BBFB"/>
<path d="M130.69 273.13C73.89 300.3 115.23 386.71 172.02 359.55C228.88 332.35 187.56 245.93 130.69 273.13Z" fill="#00BBFB"/>
<path d="M128.72 275.46C71.88 302.65 113.24 389.11 170.07 361.93C226.97 334.72 185.62 248.24 128.72 275.46Z" fill="#00BBFB"/>
<path d="M126.78 277.8C69.9099 305 111.29 391.53 168.16 364.32C225.09 337.09 183.72 250.56 126.78 277.8Z" fill="#00BBFB"/>
<path d="M124.86 280.15C67.9498 307.37 109.36 393.95 166.27 366.73C223.23 339.48 181.84 252.9 124.86 280.15Z" fill="#00BBFB"/>
<path d="M122.96 282.52C66.0099 309.76 107.45 396.39 164.39 369.16C221.4 341.89 179.97 255.26 122.96 282.52Z" fill="#00BBFB"/>
<path d="M121.07 284.9C64.09 312.16 105.56 398.85 162.53 371.59C219.57 344.31 178.11 257.61 121.07 284.9Z" fill="#00BBFB"/>
<path d="M119.21 287.29C62.19 314.56 103.69 401.3 160.7 374.03C217.78 346.73 176.29 259.98 119.21 287.29Z" fill="#00BBFB"/>
<path d="M117.37 289.69C60.3099 316.98 101.83 403.78 158.88 376.49C215.99 349.17 174.48 262.37 117.37 289.69Z" fill="#00BBFB"/>
<path d="M115.55 292.1C58.4599 319.41 99.9999 406.26 157.09 378.96C214.24 351.62 172.71 264.77 115.55 292.1Z" fill="#00BBFB"/>
<path d="M113.75 294.53C56.6199 321.86 98.1899 408.76 155.32 381.44C212.5 354.09 170.94 267.17 113.75 294.53Z" fill="#00BCFB"/>
<path d="M111.97 296.96C54.7999 324.3 96.3999 411.27 153.56 383.92C210.78 356.55 169.19 269.58 111.97 296.96Z" fill="#00BCFB"/>
<path d="M110.22 299.41C53.0199 326.77 94.6499 413.79 151.84 386.43C209.09 359.04 167.48 272.02 110.22 299.41Z" fill="#00BCFB"/>
<path d="M108.48 301.87C51.24 329.25 92.9 416.32 150.13 388.94C207.42 361.54 165.78 274.46 108.48 301.87Z" fill="#00BCFB"/>
<path d="M106.77 304.34C49.4999 331.74 91.1799 418.86 148.44 391.47C205.77 364.05 164.1 276.92 106.77 304.34Z" fill="#00BCFB"/>
<path d="M105.08 306.83C47.7699 334.24 89.4699 421.43 146.78 394.01C204.14 366.57 162.45 279.38 105.08 306.83Z" fill="#00BCFB"/>
<path d="M103.41 309.32C46.06 336.75 87.79 423.99 145.13 396.56C202.53 369.1 160.81 281.86 103.41 309.32Z" fill="#00BCFB"/>
<path d="M101.77 311.82C44.39 339.27 86.15 426.56 143.52 399.11C200.95 371.64 159.21 284.34 101.77 311.82Z" fill="#00BCFB"/>
<path d="M100.15 314.34C42.73 341.81 84.52 429.15 141.93 401.69C199.4 374.2 157.63 286.85 100.15 314.34Z" fill="#00BCFB"/>
<path d="M98.5499 316.87C41.0899 344.35 82.9099 431.75 140.35 404.27C197.86 376.76 156.06 289.35 98.5499 316.87Z" fill="#00BDFB"/>
<path d="M96.9799 319.41C39.4899 346.91 81.3299 434.37 138.81 406.87C196.35 379.35 154.53 291.88 96.9799 319.41Z" fill="#00BDFB"/>
<path d="M95.43 321.96C37.9 349.48 79.76 436.99 137.29 409.47C194.87 381.93 153.02 294.41 95.43 321.96Z" fill="#00BDFB"/>
<path d="M93.9099 324.52C36.3499 352.05 78.2299 439.62 135.79 412.09C193.41 384.53 151.53 296.95 93.9099 324.52Z" fill="#00BDFB"/>
<path d="M92.4099 327.09C34.8099 354.64 76.7299 442.27 134.32 414.72C191.97 387.14 150.07 299.51 92.4099 327.09Z" fill="#00BDFB"/>
<path d="M90.94 329.67C33.31 357.24 75.25 444.92 132.88 417.35C190.57 389.75 148.64 302.07 90.94 329.67Z" fill="#00BDFB"/>
<path d="M89.49 332.27C31.82 359.85 73.79 447.59 131.45 420.01C189.18 392.4 147.22 304.66 89.49 332.27Z" fill="#00BDFB"/>
<path d="M88.0599 334.87C30.3499 362.47 72.3499 450.26 130.05 422.66C187.81 395.03 145.83 307.23 88.0599 334.87Z" fill="#00BDFB"/>
<path d="M86.65 337.51C28.91 365.13 70.92 452.98 128.66 425.36C186.46 397.71 144.45 309.86 86.65 337.51Z" fill="#00BDFB"/>
<path d="M85.2499 340.22C27.4699 367.86 69.5099 455.76 127.29 428.12C185.12 400.46 143.08 312.55 85.2499 340.22Z" fill="#00BDFB"/>
<path d="M83.8899 342.95C26.0699 370.6 68.1399 458.56 125.96 430.91C183.83 403.23 141.76 315.27 83.8899 342.95Z" fill="#00BEFB"/>
<path d="M82.57 345.71C24.72 373.38 66.82 461.39 124.66 433.72C182.57 406.02 140.48 318.01 82.57 345.71Z" fill="#00BEFB"/>
<path d="M81.29 348.48C23.4 376.17 65.53 464.24 123.41 436.55C181.35 408.83 139.24 320.76 81.29 348.48Z" fill="#00BEFB"/>
<path d="M80.0499 351.29C22.1199 379 64.2799 467.12 122.2 439.41C180.18 411.68 138.04 323.55 80.0499 351.29Z" fill="#00BEFB"/>
<path d="M78.8499 354.11C20.8799 381.84 63.0699 470.01 121.02 442.29C179.04 414.54 136.87 326.36 78.8499 354.11Z" fill="#00BEFB"/>
<path d="M77.69 356.95C19.69 384.69 61.9 472.92 119.89 445.18C177.94 417.41 135.75 329.18 77.69 356.95Z" fill="#00BEFB"/>
<path d="M76.5699 359.81C18.5299 387.57 60.7699 475.86 118.79 448.1C176.88 420.32 134.66 332.02 76.5699 359.81Z" fill="#00BEFB"/>
<path d="M75.4999 362.69C17.4299 390.47 59.6899 478.81 117.75 451.03C175.87 423.23 133.62 334.88 75.4999 362.69Z" fill="#00BEFB"/>
<path d="M74.4699 365.58C16.3599 393.38 58.6499 481.77 116.75 453.98C174.91 426.16 132.63 337.76 74.4699 365.58Z" fill="#00BEFB"/>
<path d="M73.4899 368.49C15.3499 396.3 57.6599 484.75 115.79 456.94C173.99 429.1 131.69 340.65 73.4899 368.49Z" fill="#00BFFB"/>
<path d="M72.56 371.42C14.38 399.25 56.72 487.76 114.89 459.93C173.12 432.08 130.79 343.57 72.56 371.42Z" fill="#00BFFB"/>
<path d="M71.67 374.36C13.45 402.21 55.82 490.77 114.03 462.92C172.3 435.05 129.94 346.48 71.67 374.36Z" fill="#00BFFB"/>
<path d="M70.8298 377.31C12.5798 405.17 54.9698 493.79 113.21 465.93C171.51 438.04 129.13 349.42 70.8298 377.31Z" fill="#00BFFB"/>
<path d="M70.0399 380.27C11.7499 408.15 54.1699 496.82 112.45 468.94C170.79 441.03 128.39 352.36 70.0399 380.27Z" fill="#00BFFB"/>
<path d="M69.3 383.24C10.97 411.14 53.42 499.86 111.74 471.97C170.12 444.05 127.69 355.32 69.3 383.24Z" fill="#00BFFB"/>
<path d="M68.61 386.23C10.25 414.14 52.72 502.93 111.07 475.01C169.48 447.07 127.02 358.28 68.61 386.23Z" fill="#00BFFB"/>
<path d="M67.9799 389.22C9.57993 417.15 52.0799 505.99 110.47 478.06C168.92 450.1 126.43 361.26 67.9799 389.22Z" fill="#00BFFB"/>
<path d="M67.3899 392.21C8.94993 420.16 51.4799 509.06 109.91 481.11C168.39 453.14 125.88 364.24 67.3899 392.21Z" fill="#00BFFB"/>
<path d="M66.8598 395.22C8.38984 423.19 50.9398 512.13 109.4 484.17C167.92 456.18 125.38 367.22 66.8598 395.22Z" fill="#00BFFB"/>
<path d="M66.3799 398.23C7.86995 426.21 50.4499 515.22 108.95 487.24C167.51 459.23 124.94 370.22 66.3799 398.23Z" fill="#00C0FB"/>
<path d="M65.9598 401.24C7.41982 429.24 50.0198 518.3 108.56 490.3C167.15 462.27 124.56 373.21 65.9598 401.24Z" fill="#00C0FB"/>
<path d="M65.5899 404.25C7.00993 432.27 49.6399 521.38 108.21 493.37C166.83 465.33 124.22 376.21 65.5899 404.25Z" fill="#00C0FB"/>
<path d="M65.28 407.27C6.65996 435.31 49.32 524.48 107.93 496.44C166.6 468.38 123.95 379.2 65.28 407.27Z" fill="#00C0FB"/>
<path d="M65.0299 410.29C6.37989 438.35 49.0599 527.57 107.7 499.52C166.4 471.44 123.73 382.21 65.0299 410.29Z" fill="#00C0FB"/>
<path d="M64.84 413.31C6.15004 441.38 48.86 530.66 107.54 502.59C166.28 474.49 123.58 385.21 64.84 413.31Z" fill="#00C0FB"/>
<path d="M64.7099 416.32C5.98995 444.41 48.7199 533.74 107.44 505.66C166.21 477.55 123.49 388.21 64.7099 416.32Z" fill="#00C0FB"/>
<path d="M64.6299 419.34C5.86985 447.45 48.6299 536.84 107.38 508.73C166.19 480.6 123.44 391.21 64.6299 419.34Z" fill="#00C0FB"/>
<path d="M64.6199 422.35C5.81993 450.47 48.6099 539.92 107.4 511.8C166.24 483.65 123.47 394.2 64.6199 422.35Z" fill="#00C0FB"/>
<path d="M64.67 425.35C5.84002 453.49 48.65 542.99 107.48 514.85C166.36 486.69 123.56 397.18 64.67 425.35Z" fill="#00C1FB"/>
<path d="M64.7799 428.35C5.90986 456.51 48.7499 546.07 107.61 517.91C166.53 489.73 123.7 400.17 64.7799 428.35Z" fill="#00C1FB"/>
<path d="M64.9598 431.35C6.05983 459.53 48.9198 549.14 107.82 520.96C166.77 492.76 123.92 403.15 64.9598 431.35Z" fill="#00C1FB"/>
<path d="M65.1999 434.34C6.25991 462.53 49.1499 552.2 108.09 524.01C167.08 495.79 124.2 406.13 65.1999 434.34Z" fill="#00C1FB"/>
<path d="M65.4999 437.31C6.51994 465.52 49.4399 555.24 108.41 527.03C167.44 498.8 124.53 409.07 65.4999 437.31Z" fill="#00C1FB"/>
<path d="M65.8699 440.28C6.85986 468.51 49.7999 558.28 108.81 530.06C167.87 501.81 124.93 412.03 65.8699 440.28Z" fill="#00C1FB"/>
<path d="M66.31 443.24C7.26003 471.48 50.23 561.32 109.27 533.07C168.37 504.8 125.41 414.97 66.31 443.24Z" fill="#00C1FB"/>
<path d="M66.8199 446.19C7.72988 474.45 50.7299 564.34 109.81 536.08C168.94 507.79 125.96 417.91 66.8199 446.19Z" fill="#00C1FB"/>
<path d="M67.39 449.12C8.26998 477.4 51.29 567.34 110.41 539.06C169.58 510.76 126.57 420.81 67.39 449.12Z" fill="#00C1FB"/>
<path d="M68.0399 452.04C8.87987 480.34 51.9299 570.33 111.08 542.04C170.29 513.72 127.25 423.72 68.0399 452.04Z" fill="#00C2FB"/>
<path d="M68.7599 454.94C9.55993 483.25 52.6399 573.31 111.83 545C171.07 516.66 128.01 426.61 68.7599 454.94Z" fill="#00C2FB"/>
<path d="M69.54 457.83C10.31 486.16 53.41 576.27 112.64 547.94C171.92 519.59 128.82 429.47 69.54 457.83Z" fill="#00C2FB"/>
<path d="M70.3998 460.7C11.1298 489.05 54.2598 579.21 113.52 550.87C172.84 522.5 129.71 432.33 70.3998 460.7Z" fill="#00C2FB"/>
<path d="M71.3299 463.55C12.0199 491.92 55.1799 582.14 114.48 553.77C173.83 525.38 130.68 435.16 71.3299 463.55Z" fill="#00C2FB"/>
<path d="M72.3399 466.38C12.9999 494.77 56.1799 585.03 115.52 556.66C174.91 528.25 131.73 437.97 72.3399 466.38Z" fill="#00C2FB"/>
<path d="M73.42 469.2C14.04 497.6 57.25 587.93 116.62 559.53C176.05 531.11 132.85 440.77 73.42 469.2Z" fill="#00C2FB"/>
<path d="M74.5799 471.99C15.1699 500.41 58.3999 590.79 117.81 562.38C177.27 533.94 134.04 443.55 74.5799 471.99Z" fill="#00C2FB"/>
<path d="M75.81 474.76C16.36 503.2 59.62 593.64 119.07 565.2C178.56 536.74 135.31 446.3 75.81 474.76Z" fill="#00C2FB"/>
<path d="M77.12 477.49C17.63 505.95 60.92 596.44 120.4 567.99C179.93 539.51 136.65 449.01 77.12 477.49Z" fill="#00C2FB"/>
<path d="M78.5 480.18C18.98 508.65 62.29 599.2 121.81 570.73C181.38 542.24 138.07 451.68 78.5 480.18Z" fill="#00C3FB"/>
<path d="M79.9499 482.82C20.3899 511.31 63.7299 601.91 123.28 573.43C182.89 544.92 139.55 454.31 79.9499 482.82Z" fill="#00C3FB"/>
<path d="M81.47 485.42C21.87 513.93 65.24 604.58 124.83 576.08C184.47 547.55 141.11 456.89 81.47 485.42Z" fill="#00C3FB"/>
<path d="M83.0599 487.97C23.4299 516.49 66.8199 607.21 126.45 578.69C186.12 550.15 142.74 459.43 83.0599 487.97Z" fill="#00C3FB"/>
<path d="M84.71 490.48C25.04 519.02 68.46 609.79 128.12 581.25C187.83 552.69 144.42 461.92 84.71 490.48Z" fill="#00C3FB"/>
<path d="M86.4298 492.95C26.7198 521.51 70.1698 612.33 129.87 583.78C189.62 555.2 146.18 464.37 86.4298 492.95Z" fill="#00C3FB"/>
<path d="M88.2099 495.36C28.4699 523.93 71.9399 614.81 131.68 586.24C191.46 557.64 148 466.76 88.2099 495.36Z" fill="#00C3FB"/>
<path d="M90.0499 497.73C30.2799 526.32 73.7699 617.26 133.54 588.67C193.36 560.06 149.87 469.12 90.0499 497.73Z" fill="#00C3FB"/>
<path d="M91.9498 500.05C32.1398 528.66 75.6698 619.65 135.47 591.04C195.33 562.41 151.81 471.42 91.9498 500.05Z" fill="#00C3FB"/>
<path d="M93.9098 502.32C34.0598 530.94 77.6098 621.99 137.45 593.37C197.34 564.72 153.8 473.67 93.9098 502.32Z" fill="#00C4FB"/>
<path d="M95.9199 504.55C36.0399 533.19 79.6099 624.3 139.49 595.65C199.42 566.99 155.85 475.88 95.9199 504.55Z" fill="#00C4FB"/>
<path d="M97.99 506.72C38.07 535.38 81.67 626.54 141.59 597.88C201.55 569.2 157.96 478.04 97.99 506.72Z" fill="#00C4FB"/>
<path d="M100.11 508.85C40.1499 537.53 83.7799 628.74 143.73 600.06C203.73 571.36 160.11 480.15 100.11 508.85Z" fill="#00C4FB"/>
<path d="M102.29 510.92C42.2998 539.62 85.9598 630.88 145.94 602.19C205.97 573.47 162.33 482.21 102.29 510.92Z" fill="#00C4FB"/>
<path d="M104.52 512.94C44.4899 541.65 88.1699 632.97 148.2 604.26C208.27 575.53 164.6 484.2 104.52 512.94Z" fill="#00C4FB"/>
<path d="M106.79 514.92C46.7199 543.65 90.4399 635.03 150.49 606.3C210.6 577.55 166.89 486.16 106.79 514.92Z" fill="#00C4FB"/>
<path d="M109.12 516.84C49.0198 545.59 92.7498 637.02 152.85 608.28C212.99 579.51 169.27 488.07 109.12 516.84Z" fill="#00C4FB"/>
<path d="M111.48 518.7C51.3399 547.47 95.0999 638.95 155.23 610.19C215.41 581.4 171.66 489.91 111.48 518.7Z" fill="#00C4FB"/>
<path d="M113.9 520.51C53.7199 549.3 97.5099 640.83 157.68 612.06C217.9 583.26 174.12 491.71 113.9 520.51Z" fill="#00C4FB"/>
<path d="M116.36 522.27C56.1499 551.07 99.9599 642.67 160.17 613.87C220.42 585.05 176.62 493.45 116.36 522.27Z" fill="#00C5FB"/>
<path d="M118.86 523.98C58.6099 552.8 102.46 644.45 162.7 615.64C222.99 586.8 179.15 495.14 118.86 523.98Z" fill="#00C5FB"/>
<path d="M121.39 525.63C61.1099 554.47 104.98 646.17 165.25 617.34C225.58 588.49 181.72 496.77 121.39 525.63Z" fill="#00C5FB"/>
<path d="M123.97 527.22C63.6499 556.07 107.54 647.84 167.86 618.99C228.22 590.12 184.33 498.35 123.97 527.22Z" fill="#00C5FB"/>
<path d="M126.59 528.76C66.2298 557.63 110.15 649.45 170.51 620.58C230.91 591.69 186.99 499.87 126.59 528.76Z" fill="#00C5FB"/>
<path d="M129.24 530.25C68.8499 559.14 112.8 651.01 173.18 622.13C233.61 593.22 189.67 501.34 129.24 530.25Z" fill="#00C5FB"/>
<path d="M131.92 531.67C71.4899 560.57 115.46 652.5 175.89 623.6C236.36 594.68 192.39 502.74 131.92 531.67Z" fill="#00C5FB"/>
<path d="M134.64 533.04C74.1698 561.96 118.18 653.94 178.63 625.03C239.14 596.09 195.14 504.1 134.64 533.04Z" fill="#00C5FB"/>
<path d="M137.39 534.35C76.8899 563.29 120.92 655.33 181.41 626.39C241.95 597.43 197.93 505.39 137.39 534.35Z" fill="#00C5FB"/>
<path d="M140.17 535.6C79.63 564.56 123.69 656.65 184.22 627.7C244.8 598.72 200.75 506.63 140.17 535.6Z" fill="#00C6FA"/>
<path d="M142.97 536.79C82.3898 565.76 126.47 657.91 187.04 628.94C247.66 599.95 203.59 507.79 142.97 536.79Z" fill="#00C6FA"/>
<path d="M145.81 537.92C85.2 566.91 129.3 659.11 189.91 630.13C250.56 601.12 206.46 508.91 145.81 537.92Z" fill="#00C6FA"/>
<path d="M148.67 538.99C88.0199 568 132.16 660.26 192.8 631.25C253.49 602.22 209.36 509.96 148.67 538.99Z" fill="#00C6FA"/>
<path d="M151.55 540C90.8699 569.03 135.03 661.34 195.7 632.32C256.42 603.28 212.27 510.96 151.55 540Z" fill="#00C6FA"/>
<path d="M154.45 540.95C93.7299 569.99 137.92 662.36 198.63 633.32C259.39 604.26 215.21 511.88 154.45 540.95Z" fill="#00C6FA"/>
<path d="M157.38 541.83C96.6198 570.89 140.84 663.32 201.58 634.26C262.38 605.18 218.17 512.75 157.38 541.83Z" fill="#00C6FA"/>
<path d="M160.32 542.66C99.5298 571.74 143.77 664.22 204.55 635.14C265.38 606.04 221.15 513.56 160.32 542.66Z" fill="#00C6FA"/>
<path d="M163.28 543.42C102.45 572.52 146.72 665.05 207.54 635.96C268.41 606.85 224.15 514.31 163.28 543.42Z" fill="#00C6FA"/>
<path d="M166.26 544.11C105.39 573.22 149.69 665.81 210.54 636.7C271.45 607.57 227.16 514.97 166.26 544.11Z" fill="#00C6FA"/>
<path d="M169.25 544.75C108.35 573.88 152.67 666.53 213.56 637.4C274.5 608.25 230.19 515.61 169.25 544.75Z" fill="#00C7FA"/>
<path d="M172.26 545.31C111.32 574.46 155.67 667.16 216.6 638.02C277.57 608.85 233.24 516.15 172.26 545.31Z" fill="#00C7FA"/>
<path d="M175.28 545.81C114.31 574.98 158.68 667.73 219.65 638.57C280.66 609.39 236.3 516.62 175.28 545.81Z" fill="#00C7FA"/>
<path d="M178.3 546.25C117.29 575.43 161.69 668.24 222.69 639.07C283.73 609.87 239.35 517.05 178.3 546.25Z" fill="#00C7FA"/>
<path d="M181.34 546.62C120.29 575.82 164.72 668.68 225.75 639.49C286.83 610.27 242.42 517.4 181.34 546.62Z" fill="#00C7FA"/>
<path d="M184.38 546.92C123.3 576.14 167.75 669.06 228.82 639.85C289.94 610.62 245.5 517.69 184.38 546.92Z" fill="#00C7FA"/>
<path d="M187.43 547.16C126.31 576.39 170.79 669.37 231.9 640.14C293.05 610.89 248.59 517.91 187.43 547.16Z" fill="#00C7FA"/>
<path d="M190.49 547.32C129.34 576.57 173.84 669.6 234.99 640.36C296.18 611.09 251.68 518.05 190.49 547.32Z" fill="#00C7FA"/>
<path d="M193.54 547.42C132.35 576.69 176.88 669.78 238.06 640.51C299.29 611.22 254.77 518.13 193.54 547.42Z" fill="#00C7FA"/>
<path d="M196.6 547.45C135.37 576.73 179.93 669.88 241.15 640.6C302.41 611.3 257.87 518.15 196.6 547.45Z" fill="#00C8FA"/>
<path d="M199.66 547.41C138.4 576.71 182.98 669.91 244.23 640.61C305.53 611.29 260.95 518.09 199.66 547.41Z" fill="#00C8FA"/>
<path d="M202.71 547.3C141.41 576.62 186.02 669.87 247.31 640.56C308.64 611.22 264.04 517.96 202.71 547.3Z" fill="#00C8FA"/>
<path d="M205.76 547.12C144.42 576.46 189.06 669.77 250.39 640.43C311.76 611.07 267.14 517.76 205.76 547.12Z" fill="#00C8FA"/>
<path d="M208.81 546.86C147.44 576.22 192.1 669.58 253.46 640.23C314.87 610.86 270.22 517.49 208.81 546.86Z" fill="#00C8FA"/>
<path d="M211.86 546.54C150.45 575.91 195.14 669.33 256.54 639.96C317.98 610.57 273.31 517.15 211.86 546.54Z" fill="#00C8FA"/>
<path d="M214.95 546.14C153.5 575.53 198.22 669 259.66 639.62C321.14 610.21 276.43 516.74 214.95 546.14Z" fill="#00C8FA"/>
<path d="M218 545.69C156.52 575.1 201.26 668.62 262.73 639.22C324.25 609.8 279.52 516.26 218 545.69Z" fill="#00C8FA"/>
<path d="M221.03 545.18C159.51 574.61 204.28 668.19 265.79 638.77C327.34 609.33 282.58 515.74 221.03 545.18Z" fill="#00C8FA"/>
<path d="M224.04 544.61C162.49 574.05 207.28 667.69 268.83 638.25C330.42 608.79 285.63 515.15 224.04 544.61Z" fill="#00C8FA"/>
<path d="M227.01 543.98C165.42 573.44 210.24 667.13 271.82 637.68C333.45 608.2 288.63 514.51 227.01 543.98Z" fill="#00C9FA"/>
<path d="M229.96 543.3C168.34 572.78 213.18 666.53 274.8 637.05C336.46 607.56 291.63 513.8 229.96 543.3Z" fill="#00C9FA"/>
<path d="M232.89 542.57C171.23 572.07 216.1 665.87 277.75 636.38C339.45 606.87 294.58 513.07 232.89 542.57Z" fill="#00C9FA"/>
<path d="M235.79 541.78C174.09 571.29 218.99 665.15 280.68 635.64C342.41 606.11 297.52 512.25 235.79 541.78Z" fill="#00C9FA"/>
<path d="M238.66 540.94C176.92 570.47 221.85 664.38 283.58 634.86C345.35 605.31 300.43 511.4 238.66 540.94Z" fill="#00C9FA"/>
<path d="M241.5 540.04C179.73 569.59 224.68 663.56 286.44 634.01C348.25 604.45 303.3 510.48 241.5 540.04Z" fill="#00C9FA"/>
<path d="M244.32 539.09C182.51 568.65 227.49 662.68 289.29 633.12C351.13 603.54 306.16 509.51 244.32 539.09Z" fill="#00C9FA"/>
<path d="M247.12 538.09C185.27 567.67 230.28 661.75 292.12 632.18C354 602.58 309 508.5 247.12 538.09Z" fill="#00C9FA"/>
<path d="M249.89 537.04C188.01 566.64 233.04 660.77 294.91 631.18C356.82 601.57 311.8 507.42 249.89 537.04Z" fill="#00C9FA"/>
<path d="M252.63 535.94C190.71 565.55 235.77 659.75 297.68 630.14C359.63 600.51 314.58 506.31 252.63 535.94Z" fill="#00CAFA"/>
<path d="M255.34 534.78C193.39 564.41 238.47 658.66 300.42 629.03C362.41 599.38 317.33 505.13 255.34 534.78Z" fill="#00CAFA"/>
<path d="M258.04 533.58C196.05 563.23 241.16 657.53 303.14 627.89C365.16 598.22 320.06 503.92 258.04 533.58Z" fill="#00CAFA"/>
<path d="M260.7 532.33C198.68 562 243.81 656.36 305.83 626.69C367.89 597.01 322.76 502.65 260.7 532.33Z" fill="#00CAFA"/>
<path d="M263.34 531.03C201.28 560.72 246.44 655.13 308.5 625.45C370.59 595.75 325.44 501.33 263.34 531.03Z" fill="#00CAFA"/>
<path d="M265.95 529.69C203.85 559.39 249.04 653.86 311.13 624.16C373.26 594.44 328.08 499.97 265.95 529.69Z" fill="#00CAFA"/>
<path d="M268.54 528.3C206.41 558.02 251.62 652.54 313.75 622.83C375.92 593.09 330.71 498.57 268.54 528.3Z" fill="#00CAFA"/>
<path d="M271.1 526.86C208.93 556.6 254.17 651.17 316.33 621.44C378.53 591.69 333.3 497.11 271.1 526.86Z" fill="#00CAFA"/>
<path d="M273.64 525.37C211.43 555.13 256.7 649.76 318.9 620.01C381.14 590.24 335.88 495.6 273.64 525.37Z" fill="#00CAFA"/>
<path d="M276.16 523.85C213.92 553.62 259.21 648.31 321.45 618.54C383.73 588.75 338.44 494.06 276.16 523.85Z" fill="#00CBFA"/>
<path d="M278.64 522.27C216.36 552.06 261.68 646.8 323.95 617.02C386.26 587.22 340.95 492.47 278.64 522.27Z" fill="#00CBFA"/>
<path d="M281.11 520.66C218.79 550.47 264.14 645.26 326.45 615.46C388.8 585.64 343.45 490.84 281.11 520.66Z" fill="#00CBFA"/>
<path d="M283.54 519C221.19 548.82 266.56 643.68 328.91 613.86C391.29 584.02 345.92 489.17 283.54 519Z" fill="#00CBFA"/>
<path d="M285.95 517.3C223.56 547.14 268.96 642.05 331.34 612.21C393.76 582.35 348.37 487.44 285.95 517.3Z" fill="#00CBFA"/>
<path d="M288.34 515.55C225.92 545.41 271.34 640.37 333.76 610.51C396.22 580.64 350.8 485.67 288.34 515.55Z" fill="#00CBFA"/>
<path d="M290.71 513.77C228.25 543.65 273.7 638.67 336.16 608.79C398.65 578.9 353.21 483.88 290.71 513.77Z" fill="#00CBFA"/>
<path d="M293.04 511.94C230.54 541.83 276.02 636.9 338.51 607.01C401.04 577.1 355.56 482.03 293.04 511.94Z" fill="#00CBFA"/>
<path d="M295.36 510.08C232.83 539.99 278.33 635.12 340.86 605.21C403.43 575.28 357.93 480.15 295.36 510.08Z" fill="#00CBFA"/>
<path d="M297.65 508.18C235.08 538.11 280.61 633.29 343.17 603.36C405.77 573.42 360.24 478.23 297.65 508.18Z" fill="#00CBFA"/>
<path d="M299.91 506.24C237.3 536.18 282.86 631.42 345.46 601.49C408.09 571.53 362.54 476.29 299.91 506.24Z" fill="#00CCFA"/>
<path d="M302.15 504.26C239.51 534.22 285.1 629.52 347.73 599.56C410.4 569.58 364.82 474.28 302.15 504.26Z" fill="#00CCFA"/>
<path d="M304.36 502.24C241.68 532.22 287.29 627.57 349.96 597.6C412.67 567.6 367.07 472.25 304.36 502.24Z" fill="#00CCFA"/>
<path d="M306.56 500.19C243.84 530.19 289.48 625.59 352.19 595.6C414.93 565.59 369.3 470.18 306.56 500.19Z" fill="#00CCFA"/>
<path d="M308.72 498.1C245.97 528.11 291.63 623.57 354.38 593.56C417.16 563.53 371.5 468.07 308.72 498.1Z" fill="#00CCFA"/>
<path d="M310.87 495.97C248.08 526 293.77 621.52 356.55 591.49C419.37 561.44 373.68 465.93 310.87 495.97Z" fill="#00CCFA"/>
<path d="M312.98 493.81C250.16 523.86 295.87 619.43 358.69 589.38C421.54 559.32 375.83 463.74 312.98 493.81Z" fill="#00CCFA"/>
<path d="M315.08 491.62C252.22 521.69 297.97 617.31 360.81 587.25C423.7 557.17 377.96 461.54 315.08 491.62Z" fill="#00CCFA"/>
<path d="M317.15 489.4C254.25 519.49 300.02 615.17 362.91 585.08C425.84 554.98 380.07 459.3 317.15 489.4Z" fill="#00CCFA"/>
<path d="M319.2 487.14C256.27 517.24 302.06 612.97 364.99 582.88C427.95 552.76 382.16 457.03 319.2 487.14Z" fill="#00CDFA"/>
<path d="M321.22 484.85C258.25 514.97 304.07 610.76 367.03 580.64C430.03 550.51 384.21 454.71 321.22 484.85Z" fill="#00CDFA"/>
<path d="M323.22 482.53C260.21 512.67 306.06 608.51 369.06 578.38C432.09 548.23 386.25 452.38 323.22 482.53Z" fill="#00CDFA"/>
<path d="M325.19 480.17C262.15 510.32 308.02 606.23 371.06 576.07C434.13 545.9 388.26 450 325.19 480.17Z" fill="#00CDFA"/>
<path d="M327.15 477.79C264.07 507.96 309.98 603.92 373.04 573.75C436.15 543.57 390.25 447.61 327.15 477.79Z" fill="#00CDFA"/>
<path d="M329.07 475.38C265.96 505.57 311.89 601.58 374.99 571.39C438.13 541.19 392.21 445.17 329.07 475.38Z" fill="#00CDFA"/>
<path d="M330.98 472.94C267.83 503.15 313.78 599.21 376.93 569.01C440.11 538.79 394.16 442.72 330.98 472.94Z" fill="#00CDFA"/>
<path d="M332.86 470.47C269.67 500.69 315.65 596.81 378.83 566.59C442.04 536.35 396.07 440.23 332.86 470.47Z" fill="#00CDFA"/>
<path d="M334.72 467.97C271.5 498.21 317.51 594.39 380.72 564.15C443.97 533.9 397.97 437.72 334.72 467.97Z" fill="#00CDFA"/>
<path d="M336.55 465.45C273.29 495.71 319.33 591.94 382.58 561.69C445.86 531.42 399.84 435.18 336.55 465.45Z" fill="#00CDFA"/>
<path d="M338.36 462.9C275.07 493.17 321.13 589.46 384.41 559.19C447.74 528.9 401.68 432.61 338.36 462.9Z" fill="#00CEFA"/>
<path d="M340.15 460.32C276.82 490.61 322.91 586.96 386.23 556.66C449.59 526.36 403.51 430.01 340.15 460.32Z" fill="#00CEFA"/>
<path d="M341.92 457.72C278.55 488.03 324.66 584.43 388.03 554.12C451.42 523.8 405.32 427.4 341.92 457.72Z" fill="#00CEFA"/>
<path d="M343.66 455.1C280.26 485.43 326.39 581.88 389.79 551.56C453.22 521.22 407.08 424.77 343.66 455.1Z" fill="#00CEFA"/>
<path d="M345.38 452.45C281.94 482.79 328.11 579.3 391.54 548.96C455.01 518.6 408.85 422.09 345.38 452.45Z" fill="#00CEFA"/>
<path d="M347.08 449.78C283.6 480.14 329.8 576.71 393.26 546.35C456.77 515.97 410.58 419.41 347.08 449.78Z" fill="#00CEFA"/>
<path d="M348.75 447.09C285.24 477.47 331.46 574.09 394.96 543.71C458.5 513.32 412.29 416.7 348.75 447.09Z" fill="#00CEFA"/>
<path d="M350.4 444.37C286.85 474.77 333.1 571.44 396.64 541.05C460.21 510.64 413.97 413.96 350.4 444.37Z" fill="#00CEFA"/>
<path d="M352.03 441.63C288.44 472.05 334.71 568.77 398.29 538.36C461.9 507.93 415.64 411.2 352.03 441.63Z" fill="#00CEFA"/>
<path d="M353.64 438.88C290.02 469.31 336.31 566.09 399.93 535.67C463.58 505.23 417.29 408.44 353.64 438.88Z" fill="#00CFFA"/>
<path d="M355.22 436.1C291.56 466.55 337.89 563.39 401.54 532.94C465.22 502.48 418.91 405.63 355.22 436.1Z" fill="#00CFFA"/>
<path d="M356.78 433.31C293.09 463.78 339.44 560.67 403.12 530.21C466.84 499.73 420.49 402.83 356.78 433.31Z" fill="#00CFFA"/>
<path d="M358.32 430.49C294.59 460.98 340.97 557.92 404.69 527.44C468.45 496.95 422.07 399.99 358.32 430.49Z" fill="#00CFFA"/>
<path d="M359.84 427.66C296.08 458.16 342.48 555.16 406.23 524.67C470.02 494.16 423.62 397.15 359.84 427.66Z" fill="#00CFFA"/>
<path d="M361.33 424.81C297.53 455.33 343.96 552.39 407.75 521.87C471.58 491.34 425.15 394.27 361.33 424.81Z" fill="#00CFFA"/>
<path d="M362.81 421.94C298.97 452.48 345.42 549.59 409.26 519.06C473.12 488.51 426.67 391.4 362.81 421.94Z" fill="#00CFFA"/>
<path d="M364.26 419.06C300.38 449.61 346.87 546.78 410.73 516.23C474.63 485.67 428.16 388.49 364.26 419.06Z" fill="#00CFFA"/>
<path d="M365.68 416.16C301.77 446.73 348.28 543.96 412.18 513.39C476.11 482.81 429.61 385.58 365.68 416.16Z" fill="#00CFFA"/>
<path d="M367.09 413.25C303.14 443.84 349.68 541.12 413.62 510.53C477.59 479.93 431.07 382.65 367.09 413.25Z" fill="#00CFFA"/>
<path d="M368.47 410.32C304.48 440.92 351.05 538.26 415.02 507.66C479.03 477.04 432.47 379.71 368.47 410.32Z" fill="#00D0FA"/>
<path d="M369.84 407.38C305.82 438 352.41 535.39 416.42 504.77C480.47 474.14 433.88 376.74 369.84 407.38Z" fill="#00D0FA"/>
<path d="M371.18 404.43C307.12 435.07 353.74 532.52 417.79 501.88C481.87 471.23 435.26 373.78 371.18 404.43Z" fill="#00D0FA"/>
<path d="M372.5 401.47C308.41 432.13 355.05 529.63 419.13 498.97C483.25 468.3 436.61 370.8 372.5 401.47Z" fill="#00D0FA"/>
<path d="M373.79 398.49C309.66 429.16 356.33 526.72 420.45 496.05C484.6 465.36 437.94 367.81 373.79 398.49Z" fill="#00D0FA"/>
<path d="M375.07 395.5C310.91 426.19 357.6 523.8 421.76 493.11C485.95 462.41 439.26 364.79 375.07 395.5Z" fill="#00D0FA"/>
<path d="M376.32 392.5C312.12 423.21 358.84 520.87 423.03 490.17C487.26 459.45 440.54 361.78 376.32 392.5Z" fill="#00D0FA"/>
<path d="M377.56 389.5C313.32 420.23 360.07 517.95 424.3 487.22C488.56 456.48 441.82 358.76 377.56 389.5Z" fill="#00D0FA"/>
<path d="M378.77 386.48C314.5 417.22 361.27 515 425.54 484.26C489.84 453.51 443.07 355.73 378.77 386.48Z" fill="#00D0FA"/>
<path d="M379.96 383.46C315.65 414.22 362.45 512.05 426.75 481.29C491.08 450.52 444.29 352.69 379.96 383.46Z" fill="#00D1FA"/>
<path d="M381.13 380.42C316.78 411.2 363.61 509.09 427.95 478.31C492.32 447.52 445.5 349.63 381.13 380.42Z" fill="#00D1FA"/>
<path d="M382.28 377.39C317.9 408.19 364.75 506.13 429.12 475.34C493.53 444.53 446.68 346.59 382.28 377.39Z" fill="#00D1FA"/>
<path d="M383.4 374.34C318.98 405.16 365.86 503.15 430.27 472.34C494.71 441.52 447.84 343.51 383.4 374.34Z" fill="#00D1FA"/>
<path d="M384.51 371.29C320.05 402.12 366.96 500.17 431.41 469.35C495.89 438.51 448.99 340.45 384.51 371.29Z" fill="#00D1FA"/>
<path d="M385.6 368.23C321.11 399.08 368.04 497.19 432.52 466.34C497.04 435.48 450.11 337.37 385.6 368.23Z" fill="#00D1FA"/>
<path d="M386.66 365.17C322.13 396.04 369.09 494.2 433.61 463.34C498.16 432.46 451.21 334.3 386.66 365.17Z" fill="#00D1FA"/>
<path d="M387.71 362.11C323.15 392.99 370.13 491.21 434.69 460.33C499.27 429.44 452.29 331.21 387.71 362.11Z" fill="#00D1FA"/>
<path d="M388.73 359.04C324.13 389.94 371.14 488.21 435.73 457.32C500.35 426.41 453.34 328.14 388.73 359.04Z" fill="#00D1FA"/>
<path d="M389.73 355.97C325.09 386.89 372.13 485.21 436.76 454.3C501.42 423.37 454.39 325.04 389.73 355.97Z" fill="#00D1FA"/>
<path d="M390.71 352.9C326.04 383.83 373.1 482.22 437.76 451.29C502.46 420.35 455.4 321.96 390.71 352.9Z" fill="#00D2FA"/>
<path d="M391.67 349.82C326.96 380.77 374.05 479.21 438.75 448.26C503.48 417.3 456.4 318.86 391.67 349.82Z" fill="#00D2FA"/>
<path d="M392.62 346.75C327.87 377.72 374.99 476.21 439.73 445.25C504.49 414.27 457.38 315.78 392.62 346.75Z" fill="#00D2FA"/>
<path d="M393.54 343.68C328.76 374.67 375.9 473.22 440.67 442.23C505.48 411.23 458.34 312.68 393.54 343.68Z" fill="#00D2FA"/>
<path d="M394.44 340.6C329.62 371.6 376.79 470.21 441.6 439.21C506.44 408.2 459.27 309.59 394.44 340.6Z" fill="#00D2FA"/>
<path d="M395.32 337.53C330.46 368.55 377.66 467.21 442.51 436.19C507.38 405.16 460.19 306.5 395.32 337.53Z" fill="#00D2FA"/>
<path d="M396.18 334.46C331.29 365.5 378.51 464.21 443.39 433.18C508.3 402.13 461.08 303.41 396.18 334.46Z" fill="#00D2FA"/>
<path d="M397.02 331.39C332.09 362.45 379.34 461.22 444.26 430.16C509.2 399.1 461.96 300.32 397.02 331.39Z" fill="#00D2FA"/>
<path d="M397.84 328.33C332.88 359.4 380.15 458.23 445.1 427.16C510.09 396.08 462.81 297.25 397.84 328.33Z" fill="#00D2FA"/>
<path d="M398.64 325.27C333.64 356.36 380.94 455.24 445.93 424.15C510.95 393.05 463.66 294.17 398.64 325.27Z" fill="#00D3FA"/>
<path d="M399.42 322.21C334.38 353.32 381.71 452.25 446.74 421.15C511.79 390.03 464.47 291.09 399.42 322.21Z" fill="#00D3FA"/>
<path d="M400.18 319.16C335.11 350.29 382.46 449.28 447.53 418.15C512.62 387.02 465.27 288.03 400.18 319.16Z" fill="#00D3FA"/>
<path d="M400.92 316.12C335.81 347.26 383.19 446.31 448.29 415.17C513.42 384.02 466.04 284.97 400.92 316.12Z" fill="#00D3FA"/>
<path d="M401.64 313.08C336.5 344.24 383.9 443.34 449.04 412.18C514.2 381.01 466.8 281.91 401.64 313.08Z" fill="#00D3FA"/>
<path d="M402.34 310.04C337.16 341.22 384.59 440.38 449.76 409.2C514.96 378.01 467.53 278.85 402.34 310.04Z" fill="#00D3FA"/>
<path d="M403.03 307.02C337.81 338.22 385.27 437.43 450.48 406.24C515.71 375.03 468.26 275.82 403.03 307.02Z" fill="#00D3FA"/>
<path d="M403.69 304.01C338.44 335.22 385.92 434.49 451.17 403.28C516.44 372.06 468.96 272.79 403.69 304.01Z" fill="#00D3FA"/>
<path d="M404.33 301C339.04 332.23 386.55 431.55 451.83 400.33C517.14 369.09 469.63 269.76 404.33 301Z" fill="#00D3FA"/>
<path d="M404.96 298C339.63 329.25 387.17 428.62 452.49 397.38C517.83 366.12 470.3 266.74 404.96 298Z" fill="#00D4FA"/>
<path d="M405.56 295.02C340.2 326.28 387.76 425.72 453.12 394.46C518.5 363.19 470.94 263.75 405.56 295.02Z" fill="#00D4FA"/>
<path d="M406.15 292.04C340.75 323.32 388.34 422.81 453.73 391.53C519.15 360.24 471.56 260.75 406.15 292.04Z" fill="#00D4FA"/>
<path d="M406.72 289.08C341.29 320.38 388.9 419.92 454.33 388.63C519.78 357.32 472.17 257.78 406.72 289.08Z" fill="#00D4FA"/>
<path d="M407.26 286.12C341.79 317.43 389.43 417.03 454.9 385.72C520.39 354.4 472.75 254.79 407.26 286.12Z" fill="#00D4FA"/>
<path d="M407.79 283.18C342.28 314.51 389.95 414.17 455.45 382.84C520.98 351.5 473.31 251.85 407.79 283.18Z" fill="#00D4FA"/>
<path d="M408.3 280.26C342.76 311.61 390.45 411.32 455.99 379.97C521.55 348.61 473.86 248.9 408.3 280.26Z" fill="#00D4FA"/>
<path d="M408.79 277.35C343.21 308.72 390.93 408.48 456.5 377.12C522.1 345.75 474.38 245.98 408.79 277.35Z" fill="#00D4FA"/>
<path d="M409.27 274.45C343.65 305.84 391.4 405.66 457.01 374.27C522.64 342.88 474.9 243.06 409.27 274.45Z" fill="#00D4FA"/>
<path d="M409.72 271.57C344.07 302.97 391.84 402.85 457.49 371.45C523.16 340.04 475.38 240.16 409.72 271.57Z" fill="#00D4FA"/>
<path d="M410.15 268.7C344.46 300.12 392.26 400.05 457.94 368.63C523.65 337.2 475.85 237.27 410.15 268.7Z" fill="#00D5FA"/>
<path d="M410.57 265.85C344.84 297.29 392.67 397.27 458.39 365.84C524.13 334.4 476.31 234.41 410.57 265.85Z" fill="#00D5FA"/>
<path d="M410.97 263.02C345.21 294.48 393.06 394.51 458.82 363.06C524.6 331.6 476.74 231.56 410.97 263.02Z" fill="#00D5FA"/>
<path d="M411.35 260.21C345.55 291.69 393.43 391.78 459.23 360.31C525.04 328.83 477.16 228.73 411.35 260.21Z" fill="#00D5FA"/>
<path d="M411.71 257.41C345.88 288.9 393.79 389.05 459.61 357.56C525.46 326.06 477.56 225.91 411.71 257.41Z" fill="#00D5FA"/>
<path d="M412.05 254.64C346.18 286.15 394.12 386.35 459.97 354.85C525.86 323.34 477.93 223.13 412.05 254.64Z" fill="#00D5FA"/>
<path d="M412.38 251.88C346.48 283.4 394.44 383.66 460.33 352.14C526.25 320.61 478.29 220.35 412.38 251.88Z" fill="#00D5FA"/>
<path d="M412.69 249.15C346.75 280.69 394.73 381.01 460.67 349.47C526.63 317.92 478.64 217.61 412.69 249.15Z" fill="#00D5FA"/>
<path d="M412.98 246.43C347 277.99 395.01 378.36 460.99 346.8C526.98 315.23 478.97 214.87 412.98 246.43Z" fill="#00D5FA"/>
<path d="M413.25 243.74C347.24 275.32 395.27 375.74 461.28 344.17C527.31 312.59 479.27 212.16 413.25 243.74Z" fill="#00D6FA"/>
<path d="M413.52 240.87C347.47 272.46 395.54 372.95 461.58 341.36C527.65 309.76 479.58 209.27 413.52 240.87Z" fill="#00D6FA"/>
<path d="M413.8 237.84C347.71 269.45 395.81 369.99 461.88 338.38C527.98 306.76 479.89 206.22 413.8 237.84Z" fill="#00D6FA"/>
<path d="M414.07 234.81C347.95 266.44 396.07 367.03 462.18 335.41C528.31 303.77 480.2 203.18 414.07 234.81Z" fill="#00D6FA"/>
<path d="M414.33 231.77C348.17 263.41 396.31 364.06 462.47 332.42C528.65 300.77 480.51 200.12 414.33 231.77Z" fill="#00D6FA"/>
<path d="M414.58 228.72C348.38 260.38 396.55 361.09 462.74 329.43C528.95 297.76 480.78 197.06 414.58 228.72Z" fill="#00D6FA"/>
<path d="M414.81 225.68C348.57 257.36 396.77 358.12 463 326.44C529.24 294.75 481.05 193.99 414.81 225.68Z" fill="#00D6FA"/>
<path d="M415.04 222.62C348.77 254.32 397 355.13 463.26 323.44C529.54 291.74 481.32 190.92 415.04 222.62Z" fill="#00D6FA"/>
<path d="M415.26 219.57C348.96 251.29 397.21 352.15 463.5 320.44C529.82 288.72 481.57 187.85 415.26 219.57Z" fill="#00D6FA"/>
<path d="M415.47 216.51C349.13 248.24 397.41 349.16 463.74 317.44C530.09 285.7 481.82 184.78 415.47 216.51Z" fill="#00D6FA"/>
<path d="M415.66 213.44C349.28 245.19 397.59 346.17 463.96 314.42C530.35 282.66 482.05 181.68 415.66 213.44Z" fill="#00D7FA"/>
<path d="M415.85 210.38C349.44 242.15 397.76 343.18 464.17 311.42C530.59 279.65 482.27 178.61 415.85 210.38Z" fill="#00D7FA"/>
<path d="M416.02 207.31C349.57 239.1 397.92 340.18 464.37 308.4C530.83 276.61 482.48 175.52 416.02 207.31Z" fill="#00D7FA"/>
<path d="M416.19 204.23C349.7 236.03 398.09 337.18 464.56 305.38C531.06 273.57 482.68 172.43 416.19 204.23Z" fill="#00D7FA"/>
<path d="M416.34 201.16C349.82 232.98 398.23 334.18 464.74 302.36C531.27 270.54 482.87 169.34 416.34 201.16Z" fill="#00D7FA"/>
<path d="M416.49 198.08C349.93 229.92 398.37 331.17 464.92 299.34C531.49 267.5 483.06 166.24 416.49 198.08Z" fill="#00D7FA"/>
<path d="M416.62 194.99C350.02 226.85 398.49 328.15 465.07 296.3C531.68 264.44 483.22 163.13 416.62 194.99Z" fill="#00D7F9"/>
<path d="M416.74 191.91C350.11 223.78 398.59 325.15 465.22 293.28C531.86 261.4 483.38 160.04 416.74 191.91Z" fill="#00D7F9"/>
<path d="M416.85 188.82C350.18 220.71 398.7 322.13 465.36 290.24C532.04 258.35 483.53 156.93 416.85 188.82Z" fill="#00D7F9"/>
<path d="M416.95 185.73C350.25 217.64 398.79 319.11 465.48 287.21C532.2 255.3 483.66 153.82 416.95 185.73Z" fill="#00D8F9"/>
<path d="M417.04 182.64C350.3 214.56 398.87 316.09 465.6 284.17C532.35 252.24 483.79 150.71 417.04 182.64Z" fill="#00D8F9"/>
<path d="M417.11 179.54C350.33 211.48 398.93 313.06 465.69 281.13C532.48 249.19 483.89 147.6 417.11 179.54Z" fill="#00D8F9"/>
<path d="M417.18 176.45C350.37 208.41 398.99 310.05 465.79 278.09C532.62 246.13 484 144.49 417.18 176.45Z" fill="#00D8F9"/>
<path d="M417.23 173.35C350.38 205.32 399.03 307.02 465.87 275.05C532.73 243.07 484.08 141.37 417.23 173.35Z" fill="#00D8F9"/>
<path d="M417.28 170.25C350.39 202.24 399.07 303.99 465.95 272C532.84 240 484.17 138.25 417.28 170.25Z" fill="#00D8F9"/>
<path d="M417.31 167.15C350.39 199.16 399.09 300.97 466 268.96C532.93 236.94 484.24 135.14 417.31 167.15Z" fill="#00D8F9"/>
<path d="M417.33 164.04C350.37 196.07 399.1 297.93 466.05 265.91C533.02 233.88 484.3 132.02 417.33 164.04Z" fill="#00D8F9"/>
<path d="M417.34 160.94C350.34 192.98 399.1 294.9 466.08 262.86C533.09 230.81 484.34 128.89 417.34 160.94Z" fill="#00D8F9"/>
<path d="M417.33 157.83C350.3 189.89 399.08 291.86 466.1 259.81C533.14 227.74 484.37 125.77 417.33 157.83Z" fill="#00D8F9"/>
<path d="M417.32 154.72C350.25 186.8 399.06 288.83 466.12 256.75C533.2 224.67 484.39 122.64 417.32 154.72Z" fill="#00D9F9"/>
<path d="M417.29 151.61C350.18 183.71 399.02 285.79 466.11 253.7C533.23 221.6 484.39 119.52 417.29 151.61Z" fill="#00D9F9"/>
<path d="M417.26 148.5C350.12 180.62 398.98 282.75 466.11 250.64C533.26 218.52 484.4 116.38 417.26 148.5Z" fill="#00D9F9"/>
<path d="M417.21 145.39C350.04 177.52 398.92 279.71 466.09 247.59C533.27 215.46 484.39 113.26 417.21 145.39Z" fill="#00D9F9"/>
<path d="M417.15 142.28C349.94 174.43 398.85 276.67 466.05 244.53C533.27 212.38 484.37 110.13 417.15 142.28Z" fill="#00D9F9"/>
<path d="M417.07 139.17C349.82 171.34 398.76 273.64 466 241.48C533.26 209.31 484.32 107.01 417.07 139.17Z" fill="#00D9F9"/>
<path d="M416.99 136.06C349.7 168.24 398.67 270.6 465.95 238.42C533.24 206.23 484.28 103.87 416.99 136.06Z" fill="#00D9F9"/>
<path d="M416.89 132.95C349.57 165.15 398.56 267.56 465.87 235.37C533.2 203.17 484.21 100.75 416.89 132.95Z" fill="#00D9F9"/>
<path d="M416.78 129.83C349.42 162.05 398.44 264.51 465.79 232.3C533.16 200.08 484.14 97.61 416.78 129.83Z" fill="#00D9F9"/>
<path d="M416.66 126.72C349.27 158.96 398.31 261.48 465.69 229.25C533.09 197.01 484.05 94.49 416.66 126.72Z" fill="#00DAF9"/>
<path d="M416.53 123.61C349.1 155.86 398.17 258.44 465.59 226.19C533.03 193.93 483.96 91.35 416.53 123.61Z" fill="#00DAF9"/>
<path d="M416.38 120.5C348.91 152.77 398.01 255.4 465.47 223.14C532.94 190.87 483.85 88.23 416.38 120.5Z" fill="#00DAF9"/>
<path d="M416.22 117.39C348.72 149.68 397.84 252.37 465.33 220.08C532.84 187.79 483.72 85.1 416.22 117.39Z" fill="#00DAF9"/>
<path d="M416.05 114.27C348.51 146.57 397.66 249.32 465.19 217.02C532.74 184.71 483.59 81.97 416.05 114.27Z" fill="#00DAF9"/>
<path d="M415.87 111.16C348.3 143.48 397.47 246.28 465.04 213.96C532.62 181.64 483.45 78.84 415.87 111.16Z" fill="#00DAF9"/>
<path d="M415.67 108.05C348.06 140.39 397.26 243.24 464.86 210.91C532.48 178.57 483.28 75.71 415.67 108.05Z" fill="#00DAF9"/>
<path d="M415.47 104.95C347.82 137.31 397.05 240.22 464.69 207.86C532.35 175.5 483.12 72.59 415.47 104.95Z" fill="#00DAF9"/>
<path d="M415.25 101.84C347.57 134.21 396.82 237.18 464.49 204.81C532.18 172.43 482.93 69.47 415.25 101.84Z" fill="#00DAF9"/>
<path d="M415.01 98.73C347.29 131.12 396.57 234.14 464.28 201.75C532.01 169.35 482.73 66.33 415.01 98.73Z" fill="#00DAF9"/>
<path d="M414.77 95.62C347.01 128.03 396.32 231.1 464.07 198.7C531.83 166.29 482.53 63.21 414.77 95.62Z" fill="#00DBF9"/>
<path d="M414.51 92.52C346.72 124.95 396.05 228.07 463.84 195.66C531.64 163.23 482.31 60.1 414.51 92.52Z" fill="#00DBF9"/>
<path d="M414.24 89.42C346.41 121.87 395.77 225.05 463.59 192.61C531.42 160.16 482.07 56.98 414.24 89.42Z" fill="#00DBF9"/>
<path d="M413.96 86.32C346.09 118.78 395.48 222.02 463.34 189.56C531.21 157.1 481.83 53.85 413.96 86.32Z" fill="#00DBF9"/>
<path d="M413.66 83.22C345.76 115.7 395.17 218.99 463.06 186.52C530.97 154.04 481.55 50.74 413.66 83.22Z" fill="#00DBF9"/>
<path d="M413.35 80.12C345.41 112.62 394.85 215.97 462.78 183.48C530.72 150.98 481.28 47.63 413.35 80.12Z" fill="#00DBF9"/>
<path d="M413.03 77.03C345.06 109.55 394.52 212.95 462.49 180.44C530.47 147.92 481.01 44.51 413.03 77.03Z" fill="#00DBF9"/>
<path d="M412.69 73.93C344.68 106.46 394.17 209.92 462.17 177.39C530.19 144.86 480.69 41.4 412.69 73.93Z" fill="#00DBF9"/>
<path d="M412.34 70.84C344.29 103.39 393.81 206.9 461.85 174.36C529.9 141.81 480.39 38.29 412.34 70.84Z" fill="#00DBF9"/>
<path d="M411.98 67.76C343.9 100.33 393.44 203.9 461.52 171.34C529.61 138.77 480.06 35.2 411.98 67.76Z" fill="#00DCF9"/>
<path d="M411.61 64.67C343.49 97.25 393.06 200.88 461.17 168.3C529.3 135.72 479.73 32.09 411.61 64.67Z" fill="#00DCF9"/>
<path d="M411.22 61.59C343.07 94.19 392.66 197.87 460.81 165.27C528.97 132.67 479.37 28.99 411.22 61.59Z" fill="#00DCF9"/>
<path d="M410.82 58.51C342.63 91.13 392.25 194.87 460.44 162.25C528.64 129.63 479.01 25.89 410.82 58.51Z" fill="#00DCF9"/>
<path d="M410.4 55.43C342.17 88.06 391.82 191.85 460.04 159.22C528.27 126.58 478.62 22.79 410.4 55.43Z" fill="#00DCF9"/>
<path d="M409.97 52.36C341.71 85.01 391.38 188.86 459.64 156.21C527.91 123.56 478.24 19.71 409.97 52.36Z" fill="#00DCF9"/>
<path d="M409.53 49.29C341.23 81.96 390.93 185.86 459.22 153.19C527.53 120.52 477.82 16.62 409.53 49.29Z" fill="#00DCF9"/>
<path d="M409.07 46.22C340.73 78.91 390.46 182.87 458.79 150.18C527.13 117.49 477.4 13.54 409.07 46.22Z" fill="#00DCF9"/>
<path d="M408.6 43.15C340.22 75.85 389.98 179.87 458.35 147.17C526.73 114.47 476.97 10.45 408.6 43.15Z" fill="#00DCF9"/>
<path d="M408.12 40.09C339.71 72.81 389.49 176.88 457.89 144.16C526.31 111.44 476.53 7.37001 408.12 40.09Z" fill="#00DDF9"/>
<path d="M407.62 37.04C339.18 69.78 388.98 173.9 457.42 141.16C525.87 108.42 476.06 4.3 407.62 37.04Z" fill="#00DDF9"/>
<path d="M407.11 33.99C338.63 66.75 388.46 170.92 456.94 138.17C525.42 105.41 475.59 1.24001 407.11 33.99Z" fill="#00DDF9"/>
<path d="M406.59 30.94C338.07 63.71 387.93 167.95 456.44 135.17C524.96 102.4 475.1 -1.83999 406.59 30.94Z" fill="#00DDF9"/>
<path d="M406.05 27.89C337.5 60.68 387.38 164.97 455.93 132.18C524.49 99.39 474.6 -4.89999 406.05 27.89Z" fill="#00DDF9"/>
<path d="M405.5 24.85C336.91 57.66 386.82 162 455.4 129.2C524 96.39 474.08 -7.95999 405.5 24.85Z" fill="#00DDF9"/>
<path d="M404.93 21.82C336.3 54.65 386.24 159.04 454.86 126.23C523.49 93.4 473.55 -11 404.93 21.82Z" fill="#00DDF9"/>
<path d="M404.35 18.78C335.69 51.63 385.65 156.08 454.31 123.24C522.97 90.39 473.01 -14.06 404.35 18.78Z" fill="#00DDF9"/>
<path d="M403.76 15.76C335.06 48.62 385.06 153.13 453.75 120.28C522.45 87.42 472.46 -17.09 403.76 15.76Z" fill="#00DDF9"/>
<path d="M403.15 12.74C334.41 45.62 384.43 150.18 453.16 117.31C521.9 84.43 471.88 -20.14 403.15 12.74Z" fill="#00DDF9"/>
<path d="M402.53 9.72001C333.76 42.62 383.8 147.24 452.57 114.34C521.34 81.44 471.3 -23.18 402.53 9.72001Z" fill="#00DEF9"/>
<path d="M401.89 6.71001C333.08 39.62 383.15 144.3 451.95 111.39C520.76 78.48 470.69 -26.2 401.89 6.71001Z" fill="#00DEF9"/>
<path d="M401.24 3.7C332.4 36.63 382.49 141.36 451.33 108.43C520.17 75.5 470.08 -29.23 401.24 3.7Z" fill="#00DEF9"/>
<path d="M400.57 0.700009C331.69 33.65 381.81 138.43 450.68 105.49C519.56 72.54 469.44 -32.25 400.57 0.700009Z" fill="#00DEF9"/>
<path d="M399.89 -2.29999C330.97 30.66 381.13 135.5 450.03 102.54C518.95 69.58 468.8 -35.26 399.89 -2.29999Z" fill="#00DEF9"/>
<path d="M399.2 -5.28999C330.25 27.69 380.43 132.59 449.37 99.61C518.32 66.63 468.15 -38.27 399.2 -5.28999Z" fill="#00DEF9"/>
<path d="M398.49 -8.26999C329.5 24.73 379.7 129.68 448.69 96.69C517.68 63.69 467.48 -41.26 398.49 -8.26999Z" fill="#00DEF9"/>
<path d="M397.76 -11.25C328.73 21.77 378.96 126.77 447.98 93.76C517 60.74 466.78 -44.26 397.76 -11.25Z" fill="#00DEF9"/>
<path d="M397.02 -14.23C327.96 18.8 378.22 123.86 447.27 90.83C516.33 57.8 466.08 -47.26 397.02 -14.23Z" fill="#00DEF9"/>
<path d="M396.27 -17.19C327.17 15.86 377.46 120.98 446.54 87.93C515.64 54.88 465.36 -50.24 396.27 -17.19Z" fill="#00DFF9"/>
<path d="M395.5 -20.15C326.36 12.92 376.68 118.09 445.8 85.02C514.93 51.95 464.62 -53.22 395.5 -20.15Z" fill="#00DFF9"/>
<path d="M394.72 -23.11C325.55 9.98 375.89 115.2 445.05 82.12C514.22 49.04 463.89 -56.19 394.72 -23.11Z" fill="#00DFF9"/>
<path d="M393.92 -26.06C324.71 7.04001 375.07 112.33 444.27 79.22C513.48 46.12 463.12 -59.17 393.92 -26.06Z" fill="#00DFF9"/>
<path d="M393.11 -29C323.86 4.12001 374.25 109.46 443.49 76.34C512.73 43.22 462.34 -62.11 393.11 -29Z" fill="#00DFF9"/>
<path d="M392.28 -31.93C323 1.21001 373.42 106.6 442.69 73.46C511.97 40.32 461.55 -65.07 392.28 -31.93Z" fill="#00DFF9"/>
<path d="M391.44 -34.86C322.13 -1.7 372.57 103.74 441.87 70.59C511.19 37.44 460.74 -68.01 391.44 -34.86Z" fill="#00DFF9"/>
<path d="M390.58 -37.78C321.23 -4.61 371.7 100.89 441.04 67.72C510.39 34.55 459.92 -70.95 390.58 -37.78Z" fill="#00DFF9"/>
<path d="M389.71 -40.7C320.32 -7.51 370.82 98.05 440.2 64.86C509.59 31.67 459.09 -73.88 389.71 -40.7Z" fill="#00DFF9"/>
<path d="M388.82 -43.6C319.4 -10.39 369.91 95.22 439.33 62.01C508.75 28.81 458.23 -76.81 388.82 -43.6Z" fill="#00DFF9"/>
<path d="M387.91 -46.5C318.45 -13.28 368.99 92.4 438.45 59.17C507.91 25.94 457.37 -79.72 387.91 -46.5Z" fill="#00E0F9"/>
<path d="M386.99 -49.39C317.49 -16.15 368.07 89.57 437.55 56.34C507.05 23.1 456.47 -82.63 386.99 -49.39Z" fill="#00E0F9"/>
<path d="M386.06 -52.28C316.53 -19.02 367.13 86.76 436.65 53.5C506.18 20.24 455.58 -85.54 386.06 -52.28Z" fill="#00E0F9"/>
<path d="M385.11 -55.15C315.54 -21.87 366.17 83.96 435.73 50.69C505.3 17.41 454.67 -88.42 385.11 -55.15Z" fill="#00E0F9"/>
<path d="M384.14 -58.02C315.11 -23.55 364.63 79.98 434.78 47.87C503.81 13.4 454.29 -90.13 384.14 -58.02Z" fill="#00E0F9"/>
</g>
</g>
</g>
</g>
</g>
</svg>
