<svg width="59" height="59" viewBox="0 0 59 59" fill="none" xmlns="http://www.w3.org/2000/svg">
<path d="M52.5238 34.8811C53.826 33.7172 54.6557 32.0348 54.6557 30.1564C54.6557 26.6648 51.8209 23.8301 48.3293 23.8301C44.8377 23.8301 42.0029 26.6648 42.0029 30.1564C42.0029 33.648 42.8211 33.7287 44.1348 34.8811C41.1041 36.1832 38.7879 38.8566 37.9697 42.1178C36.8635 40.6773 35.4 39.5365 33.7061 38.8105C35.0082 37.6467 35.8379 35.9643 35.8379 34.0859C35.8379 30.5943 33.0031 27.7596 29.5115 27.7596C26.0199 27.7596 23.1852 30.5943 23.1852 34.0859C23.1852 37.5775 24.0033 37.6582 25.317 38.8105C23.623 39.5365 22.1596 40.6889 21.0533 42.1178C20.2352 38.8566 17.9305 36.1947 14.8883 34.8811C16.1904 33.7172 17.0201 32.0348 17.0201 30.1564C17.0201 26.6648 14.1854 23.8301 10.6938 23.8301C7.20215 23.8301 4.36738 26.6648 4.36738 30.1564C4.36738 33.648 5.18555 33.7287 6.49922 34.8811C2.67344 36.5174 0 40.3086 0 44.699V48.617C0 49.3199 0.564648 49.8846 1.26758 49.8846H18.8178V52.535C18.8178 53.2379 19.3824 53.8025 20.0854 53.8025H38.9031C39.6061 53.8025 40.1707 53.2379 40.1707 52.535V49.8846H57.7209C58.4238 49.8846 58.9885 49.3199 58.9885 48.617V44.699C58.9885 40.2971 56.315 36.5174 52.5123 34.8811H52.5238ZM48.3178 26.3652C50.4035 26.3652 52.109 28.0707 52.109 30.1564C52.109 32.2422 50.4035 33.9477 48.3178 33.9477C46.232 33.9477 44.5266 32.2422 44.5266 30.1564C44.5266 28.0707 46.232 26.3652 48.3178 26.3652ZM29.5 30.2832C31.5857 30.2832 33.2912 31.9887 33.2912 34.0744C33.2912 36.1602 31.5857 37.8656 29.5 37.8656C27.4143 37.8656 25.7088 36.1602 25.7088 34.0744C25.7088 31.9887 27.4143 30.2832 29.5 30.2832ZM10.6822 26.3652C12.768 26.3652 14.4734 28.0707 14.4734 30.1564C14.4734 32.2422 12.768 33.9477 10.6822 33.9477C8.59648 33.9477 6.89102 32.2422 6.89102 30.1564C6.89102 28.0707 8.59648 26.3652 10.6822 26.3652ZM2.53516 44.699C2.53516 40.2049 6.18809 36.552 10.6822 36.552C15.1764 36.552 18.8293 40.2049 18.8293 44.699V47.3494H2.53516V44.699ZM37.6471 51.2789H21.3645V48.6285C21.3645 44.1344 25.0174 40.4814 29.5115 40.4814C34.0057 40.4814 37.6586 44.1344 37.6586 48.6285V51.2789H37.6471ZM56.4648 47.3609H40.1822V44.7105C40.1822 40.2164 43.8352 36.5635 48.3293 36.5635C52.8234 36.5635 56.4764 40.2164 56.4764 44.7105V47.3609H56.4648Z" fill="#010636"/>
<path d="M36.3681 14.0242L32.4501 13.3789L30.6179 9.85273C30.399 9.43789 29.9611 9.17285 29.4886 9.17285C29.0161 9.17285 28.5783 9.43789 28.3593 9.85273L26.5271 13.3789L22.6091 14.0242C22.1367 14.1049 21.7564 14.4275 21.6066 14.8885C21.4568 15.3494 21.572 15.8334 21.9062 16.1676L24.6949 18.9908L24.0956 22.9203C24.0265 23.3928 24.2224 23.8537 24.6027 24.1303C24.9829 24.4068 25.49 24.4529 25.9163 24.234L29.4656 22.4594L33.0148 24.234C33.1992 24.3262 33.3835 24.3723 33.5794 24.3723C33.7753 24.3723 34.1095 24.2916 34.3285 24.1303C34.7087 23.8537 34.9046 23.3812 34.8355 22.9203L34.2363 18.9908L37.0249 16.1676C37.3591 15.8334 37.4743 15.3379 37.3245 14.8885C37.1747 14.4391 36.7945 14.1049 36.322 14.0242H36.3681ZM32.0238 17.6656C31.7472 17.9537 31.6089 18.3455 31.6781 18.7488L32.0007 20.8807L30.0648 19.9127C29.7076 19.7283 29.2812 19.7283 28.924 19.9127L26.988 20.8807L27.3107 18.7488C27.3683 18.357 27.2415 17.9537 26.965 17.6656L25.4439 16.1215L27.5757 15.7643C27.9675 15.6951 28.3132 15.4531 28.4976 15.0959L29.4886 13.183L30.4796 15.0959C30.664 15.4531 30.9982 15.6951 31.4015 15.7643L33.5333 16.1215L32.0122 17.6656H32.0238Z" fill="#0069FF"/>
<path d="M19.129 9.16133L16.0407 8.6543L14.6003 5.87715C14.3813 5.4623 13.9434 5.19727 13.471 5.19727C12.9985 5.19727 12.5606 5.4623 12.3417 5.87715L10.9013 8.6543L7.81297 9.16133C7.34051 9.24199 6.96024 9.56465 6.81043 10.0256C6.66063 10.475 6.77586 10.9705 7.11004 11.3047L9.31102 13.5402L8.83856 16.64C8.76942 17.1125 8.96532 17.5734 9.34559 17.85C9.56454 18.0113 9.82958 18.092 10.0946 18.092C10.3597 18.092 10.4864 18.0459 10.6593 17.9537L13.4595 16.5479L16.2597 17.9537C16.686 18.1611 17.1931 18.1266 17.5733 17.85C17.9536 17.5734 18.1495 17.101 18.0804 16.64L17.6079 13.5402L19.8089 11.3047C20.1431 10.9705 20.2583 10.475 20.1085 10.0256C19.9587 9.57617 19.5784 9.24199 19.1059 9.16133H19.129ZM15.3723 12.2035C15.0958 12.4916 14.9575 12.8834 15.0266 13.2867L15.2225 14.6004L14.0356 14.0127C13.8513 13.9205 13.6669 13.8744 13.471 13.8744C13.2751 13.8744 13.0792 13.9205 12.9063 14.0127L11.7194 14.6004L11.9153 13.2867C11.9729 12.8949 11.8462 12.4916 11.5696 12.2035L10.6362 11.2586L11.9384 11.0396C12.3302 10.9705 12.6759 10.7285 12.8602 10.3713L13.471 9.1959L14.0817 10.3713C14.2661 10.7285 14.6003 10.9705 15.0036 11.0396L16.3057 11.2586L15.3723 12.2035Z" fill="#0069FF"/>
<path d="M52.1896 10.0256C52.0398 9.57617 51.6596 9.24199 51.1871 9.16133L48.0988 8.6543L46.6584 5.87715C46.4394 5.4623 46.0015 5.19727 45.5291 5.19727C45.0566 5.19727 44.6187 5.4623 44.3998 5.87715L42.9594 8.6543L39.8711 9.16133C39.3986 9.24199 39.0183 9.56465 38.8685 10.0256C38.7187 10.475 38.834 10.9705 39.1681 11.3047L41.3691 13.5402L40.8967 16.64C40.8275 17.1125 41.0234 17.5734 41.4037 17.85C41.784 18.1266 42.291 18.1727 42.7174 17.9537L45.5176 16.5479L48.3178 17.9537C48.5021 18.0459 48.6865 18.092 48.8824 18.092C49.0783 18.092 49.4125 18.0113 49.6314 17.85C50.0117 17.5734 50.2076 17.101 50.1385 16.64L49.666 13.5402L51.867 11.3047C52.2012 10.9705 52.3164 10.475 52.1666 10.0256H52.1896ZM47.4305 12.2035C47.1539 12.4916 47.0156 12.8834 47.0848 13.2867L47.2806 14.6004L46.0937 14.0127C45.9209 13.9205 45.725 13.8744 45.5291 13.8744C45.3332 13.8744 45.1373 13.9205 44.9644 14.0127L43.7775 14.6004L43.9734 13.2867C44.031 12.8949 43.9043 12.4916 43.6277 12.2035L42.6943 11.2586L43.9965 11.0396C44.3883 10.9705 44.734 10.7285 44.9183 10.3713L45.5291 9.1959L46.1398 10.3713C46.3242 10.7285 46.6584 10.9705 47.0617 11.0396L48.3639 11.2586L47.4305 12.2035Z" fill="#0069FF"/>
</svg>
