<svg width="59" height="59" viewBox="0 0 59 59" fill="none" xmlns="http://www.w3.org/2000/svg">
<path d="M55.0474 14.75C53.0654 11.3275 48.4791 9.7834 42.1297 10.4057C41.5535 10.4633 40.9773 10.5324 40.3896 10.6246C40.1707 10.083 39.9517 9.55293 39.7213 9.03438C37.0824 3.20352 33.4525 0 29.5 0C25.5474 0 21.9291 3.20352 19.2787 9.02285C19.0482 9.54141 18.8178 10.0715 18.6103 10.6131C18.0226 10.5209 17.4465 10.4518 16.8703 10.3941C10.5209 9.77187 5.93455 11.316 3.95252 14.7385C1.97049 18.1609 2.92694 22.9086 6.64901 28.1057C6.98319 28.5666 7.32889 29.0275 7.69764 29.4885C7.32889 29.9494 6.98319 30.4104 6.64901 30.8713C2.93846 36.0684 1.98201 40.8045 3.95252 44.2385C5.64647 47.1654 9.24178 48.7211 14.2314 48.7211C19.2211 48.7211 15.9484 48.675 16.8703 48.5828C17.4465 48.5252 18.0226 48.4561 18.6103 48.3639C18.8293 48.9055 19.0482 49.4355 19.2787 49.9541C21.9291 55.7734 25.5474 58.977 29.5 58.977C33.4525 58.977 37.0709 55.7734 39.7213 49.9541C39.9517 49.4355 40.1822 48.9055 40.3896 48.3639C40.9773 48.4561 41.5535 48.5252 42.1297 48.5828C43.0515 48.675 43.9273 48.7211 44.7685 48.7211C49.7582 48.7211 53.3535 47.1654 55.0474 44.2385C57.2715 40.3896 55.6812 34.9736 51.3138 29.4885C55.6812 24.0033 57.2715 18.5873 55.0474 14.7385V14.75ZM42.3832 12.9293C43.2129 12.8486 43.9965 12.8141 44.7455 12.8141C48.7556 12.8141 51.648 13.9434 52.858 16.0291C54.2869 18.5066 53.3535 22.3785 50.2998 26.6537C50.0924 26.9533 49.8619 27.2529 49.6314 27.5525C47.7992 25.5475 45.5982 23.5539 43.1092 21.6525C42.7174 18.5988 42.0951 15.7064 41.2539 13.0676C41.6342 13.0215 42.0029 12.9754 42.3832 12.9408V12.9293ZM35.2847 39.5139C33.3719 40.6201 31.4359 41.5996 29.5 42.4523C27.5756 41.5996 25.6396 40.6201 23.7152 39.5139C21.8023 38.4076 19.9816 37.2207 18.2762 35.9762C18.0457 33.8789 17.9305 31.7125 17.9305 29.5C17.9305 27.2875 18.0457 25.1211 18.2762 23.0238C19.9701 21.7793 21.7908 20.5924 23.7152 19.4861C25.6281 18.3799 27.564 17.4004 29.5 16.5477C31.4244 17.4004 33.3603 18.3799 35.2847 19.4861C37.1976 20.5924 39.0183 21.7793 40.7238 23.0238C40.9543 25.1211 41.0695 27.2875 41.0695 29.5C41.0695 31.7125 40.9543 33.8789 40.7238 35.9762C39.0299 37.2207 37.2092 38.4076 35.2847 39.5139ZM40.2283 39.4217C39.848 41.5766 39.3525 43.6162 38.7303 45.5061C36.7828 45.0912 34.7662 44.5035 32.715 43.7545C33.9941 43.1207 35.2732 42.4408 36.5523 41.7148C37.8314 40.9773 39.0529 40.2168 40.2283 39.4217ZM26.2849 43.7545C24.2338 44.5035 22.2172 45.0912 20.2697 45.5061C19.6474 43.6162 19.1519 41.565 18.7717 39.4102C19.9586 40.2053 21.1801 40.9773 22.4476 41.7033C23.7152 42.4408 24.9943 43.1207 26.2849 43.743V43.7545ZM15.5566 33.8443C13.8742 32.4385 12.3531 30.9865 11.0164 29.5C12.3531 28.025 13.8742 26.5615 15.5566 25.1557C15.4529 26.5846 15.4068 28.0365 15.4068 29.5C15.4068 30.9635 15.4529 32.4154 15.5566 33.8443ZM18.7717 19.5898C19.1519 17.435 19.6474 15.3953 20.2697 13.4939C22.2172 13.9088 24.2338 14.4965 26.2849 15.2455C25.0058 15.8793 23.7267 16.5592 22.4476 17.2852C21.1801 18.0227 19.9471 18.7832 18.7717 19.5783V19.5898ZM32.715 15.2455C34.7662 14.4965 36.7828 13.9088 38.7303 13.4939C39.3525 15.3838 39.848 17.435 40.2283 19.5783C39.0529 18.7947 37.8199 18.0227 36.5523 17.2852C35.2847 16.5477 34.0056 15.8678 32.715 15.2455ZM43.4549 25.1557C45.1373 26.5615 46.6584 28.0135 47.9951 29.5C46.6699 30.975 45.1373 32.4385 43.4549 33.8443C43.5586 32.4154 43.6047 30.9635 43.6047 29.5C43.6047 28.0365 43.5586 26.5846 43.4549 25.1557ZM21.5949 10.0715C23.7728 5.27773 26.6537 2.53516 29.5 2.53516C32.3463 2.53516 35.2271 5.28926 37.4051 10.0715C37.5549 10.4057 37.7047 10.7398 37.8429 11.0855C35.1465 11.6848 32.3347 12.5951 29.4885 13.782C26.6422 12.5951 23.8305 11.6848 21.134 11.0855C21.2722 10.7398 21.4221 10.4057 21.5719 10.0715H21.5949ZM8.7117 26.6422C5.65799 22.367 4.72459 18.4951 6.1535 16.0176C7.35194 13.9318 10.2558 12.8025 14.266 12.8025C18.2762 12.8025 15.8101 12.8371 16.6283 12.9178C16.9971 12.9523 17.3773 12.9984 17.7576 13.0445C16.9279 15.6834 16.3056 18.5758 15.9023 21.6295C13.4478 23.4963 11.2469 25.4898 9.38006 27.5295C9.14959 27.2299 8.93065 26.9303 8.7117 26.6307V26.6422ZM16.6283 46.0707C11.3967 46.5777 7.5824 45.4484 6.1535 42.9824C4.72459 40.5049 5.65799 36.633 8.7117 32.3578C8.93065 32.0582 9.14959 31.7586 9.38006 31.459C11.2469 33.4986 13.4478 35.4807 15.9023 37.359C16.2941 40.4127 16.9164 43.3051 17.7576 45.9439C17.3773 45.99 17.0086 46.0361 16.6283 46.0707ZM37.4166 48.9285C35.2387 53.7223 32.3578 56.4648 29.5115 56.4648C26.6652 56.4648 23.7844 53.7107 21.6064 48.9285C21.4566 48.5943 21.3068 48.2602 21.1685 47.9145C23.865 47.3152 26.6767 46.4049 29.523 45.218C32.3693 46.4049 35.181 47.3152 37.8775 47.9145C37.7392 48.2602 37.5894 48.5943 37.4396 48.9285H37.4166ZM50.2998 32.3578C53.3535 36.633 54.2869 40.5049 52.858 42.9824C51.4291 45.46 47.6148 46.5893 42.3832 46.0707C42.0144 46.0361 41.6342 45.99 41.2539 45.9439C42.0836 43.3051 42.7058 40.4127 43.1092 37.359C45.6097 35.4576 47.7992 33.4756 49.6314 31.459C49.8619 31.7586 50.0808 32.0582 50.2998 32.3578Z" fill="#010636"/>
<path d="M29.4999 37.6353C29.3847 37.6353 29.281 37.6237 29.1772 37.5892C27.3104 37.0821 24.0724 34.5354 22.413 31.6661C21.5026 30.0874 21.1454 28.4856 21.3874 27.0106C21.6063 25.6509 22.3208 24.4409 23.3925 23.6228C25.2132 22.2169 27.6446 22.1708 29.5114 23.3923C31.3782 22.1708 33.8097 22.2169 35.6304 23.6228C36.7136 24.4524 37.4165 25.6509 37.6354 27.0106C37.8659 28.4856 37.5087 30.0989 36.5983 31.6661C34.939 34.5354 31.7009 37.0937 29.8341 37.5892C29.7304 37.6122 29.6151 37.6353 29.5114 37.6353H29.4999ZM26.619 25.0517C25.9853 25.0517 25.3745 25.2821 24.9251 25.6278C23.888 26.4229 23.2657 28.0938 24.6024 30.3985C25.8931 32.6341 28.2899 34.4894 29.4999 35.031C30.7099 34.5009 33.1067 32.6341 34.3974 30.3985C35.7341 28.0823 35.1003 26.4114 34.0747 25.6278C33.1528 24.9134 31.6087 24.706 30.3987 25.9159C30.1567 26.1579 29.8341 26.2847 29.4999 26.2847C29.1657 26.2847 28.8431 26.1464 28.6011 25.9159C27.9903 25.3052 27.2874 25.0517 26.619 25.0517Z" fill="#0069FF"/>
</svg>
