<?xml version="1.0" encoding="UTF-8"?>
<svg id="Layer_2" data-name="Layer 2" xmlns="http://www.w3.org/2000/svg" viewBox="0 0 224.27 86.85">
  <defs>
    <style>
      .cls-1 {
        fill: #00d9ff;
      }
    </style>
  </defs>
  <g id="Layer_1-2" data-name="Layer 1">
    <g>
      <path class="cls-1" d="M212.86,46.57c3.84-.28,6.83,1.32,8.74,3.45,1.37,1.53,2.66,4.08,2.67,6.96.02,3.4-1.4,5.85-3.12,7.57-1.86,1.87-4.28,3.15-7.46,3.17-5.61.05-10.29-4.24-10.64-9.97-.22-3.67,1.2-6.06,2.73-7.74.81-.89,1.75-1.63,2.95-2.28,1.17-.64,2.39-1.04,4.12-1.17"/>
      <path class="cls-1" d="M187.67,34.13c-.58-.55-1.22-1.07-1.89-1.57-.07-.05-.13-.1-.19-.15-.16-.12-.32-.23-.48-.35-.04-.03-.08-.06-.12-.09-2.7-1.85-6.03-3.34-9.77-4.33l-.11-.02c-.46-.12-.92-.23-1.38-.34-1.23-.3-2.45-.59-3.64-.86-.23-.05-.46-.1-.68-.15-.03,0-.05-.01-.08-.02-6.58-1.49-11.78-2.66-11.78-5.76,0-2.52,2.71-4.55,6.58-4.94,4.23-.41,8.21.88,12.18,3.96.58.53,1.98,1.85,2.55,2.47,0,0,0,0,0,0,.05.05.12.09.2.09.05,0,.1-.02.14-.04,0,0,0,0,0,0l9.12-7.17,1.45-1.14.82-.64s0,0,0,0c.08-.05.13-.13.13-.23,0-.06-.02-.12-.06-.16,0,0,0,0,0,0,0,0,0,0,0-.01,0,0-.01-.02-.02-.02-.79-.98-1.76-2-2.54-2.8-.29-.3-.55-.58-.76-.8-2.18-2.42-4.95-4.41-8.09-5.9-.95-.45-1.92-.86-2.93-1.21-3.4-1.19-7.12-1.84-10.94-1.84-.14,0-.28,0-.42,0-.11,0-.21,0-.32,0-.44,0-.88.02-1.31.03h-.09c-.44.02-.89.06-1.33.1-8.03.94-14.84,4.85-18.59,10.28-1.19,1.73-2.08,3.61-2.6,5.6-.16.71-.28,1.44-.38,2.18,0,.05-.02.11-.02.16,0,.05,0,.1-.02.15-.1.64-.16,1.29-.16,1.95,0,1.62.29,3.19.84,4.7.77,2.14,2.07,4.15,3.79,5.96,2.78,2.94,6.68,5.37,11.31,7.01l2.09.66c1.11.34,5.27,1.21,7.02,1.64,2.47.61,4.76,1.31,6.63,2.07,2.68,1.09,4.46,2.43,4.46,4.51,0,.45-.09.9-.27,1.32-.1.25-.19.47-.35.7-.08.14-.18.27-.28.4-.39.64-1.09,1.18-1.96,1.59l.12-.05c-2.64,1.33-6.59,1.91-10.88,1.37-2.32-.29-4.47-.88-6.3-1.67-2.37-.93-4.92-2.61-7.23-4.92-.2-.2-.4-.41-.59-.61l-9.07,7.13-2.07,1.63-.09.07h0s0,.01,0,.01c-.08.05-.13.13-.13.23,0,.07.03.12.06.17,0,0,0,0,0,.01.34.43.7.85,1.06,1.27,2.98,3.44,6.58,6.23,10.55,8.26,4.52,2.31,9.55,3.64,14.75,3.78.25,0,.49.01.73.01.14,0,.28,0,.43,0,11.18-.03,20.87-4.59,25.7-11.25,2.1-2.89,3.29-6.16,3.29-9.64,0-4.83-2.28-9.27-6.11-12.81"/>
      <path class="cls-1" d="M86.35,25.2c2.95-5.38,8.48-8.92,14.54-8.92s11.59,3.54,14.54,8.92h-29.08ZM125.57,11.33c-3.94-4.66-9.11-8.02-14.85-9.82-1.73-.54-3.52-.95-5.34-1.2-1.47-.2-2.97-.31-4.48-.31-18.27,0-33.14,15-33.14,33.45,0,4.87,1.07,9.53,2.97,13.78,1.05,2.35,2.36,4.56,3.88,6.6,3.46,4.75,8.13,8.56,13.57,10.99.11.05.23.1.34.15.18.08.36.16.55.23,3.9,1.63,8.13,2.54,12.54,2.54.05,0,.11,0,.16,0,.06,0,.12,0,.18,0,7,0,13.51-2.13,18.9-5.77,2.92-1.97,5.51-4.4,7.68-7.16l-11.44-8.89c-.05-.06-.12-.09-.21-.09s-.15.04-.2.09c0,0,0,0,0,0-.95.83-5.34,4.4-11.48,5.16-.74.07-1.51.12-2.33.14-2.64,0-4.89-.4-6.82-1.04-3.24-1.2-6.37-3.38-8.5-6.34-1.12-1.63-1.73-3.09-2-3.87-.07-.2-.13-.39-.19-.59h46.88c.13,0,.24-.09.26-.22,1.76-10.6-.69-20.48-6.92-27.83"/>
      <path class="cls-1" d="M36.97,39.25c-1.25,2.79-2.6,5.43-4.04,7.83l-.5.84-.52-.83c-2.2-3.53-4.21-7.35-5.97-11.36-1.42-3.22-2.69-6.58-3.78-10-2.42-7.57-4.02-15.57-4.77-23.78H.33c.17,2.12.39,4.26.66,6.38,2.31,17.99,8.26,34.89,17.21,48.87.76,1.18,2.22,3.35,2.29,3.45l.32.47-.45.34c-5.07,3.93-10.73,6.62-16.8,8.01l-.16.04c-1.11.25-2.26.45-3.4.61v16.72c9.74-.63,18.98-3.8,26.75-9.19.66-.43,1.23-.81,1.77-1.19.93-.65,1.88-1.37,2.91-2.2,4.48-3.6,8.61-8.03,12.28-13.18,10.02-14.06,17.02-33.96,20.81-59.14h-17.38c-2.51,15.38-5.84,27.58-10.18,37.3"/>
    </g>
  </g>
</svg>